<?xml version="1.0" encoding="UTF-8"?>
<svg id="Layer_1" data-name="Layer 1" xmlns="http://www.w3.org/2000/svg" viewBox="0 0 32 32">
  <defs>
    <style>
      .cls-1 {
        fill: none;
      }

      .cls-2 {
        fill: #0328d1;
      }
    </style>
  </defs>
  <g>
    <path class="cls-1" d="M8.41,27.46c-1.17,0-2.13.9-2.23,2.04h17.25c-.1-1.14-1.06-2.04-2.23-2.04h-12.78Z"/>
    <path class="cls-1" d="M21.33,4.87c0-1.31-1.06-2.37-2.37-2.37h-8.33c-1.31,0-2.37,1.06-2.37,2.37v21.6s.09-.01.14-.01h12.78s.09.01.14.01V4.87Z"/>
    <path class="cls-1" d="M28.4,8.35v.73c0,.49.4.89.89.89h.31c.49,0,.89-.4.89-.89v-.73h-2.09Z"/>
    <path d="M30.8,7.35v-1.27c0-.28-.22-.5-.5-.5s-.5.22-.5.5v1.27h-.72v-1.27c0-.28-.22-.5-.5-.5s-.5.22-.5.5v1.27h-.69v1.73c0,.92.65,1.68,1.52,1.86v7.99c0,1.07-.87,1.94-1.94,1.94s-1.94-.87-1.94-1.94v-6.04c0-1.54-1.2-2.8-2.71-2.91v-5.1c0-1.86-1.51-3.37-3.37-3.37h-8.33c-1.86,0-3.37,1.51-3.37,3.37v21.8c-1.16.44-2,1.53-2.08,2.82h-2.59c-.28,0-.5.22-.5.5s.22.5.5.5h24.4c.28,0,.5-.22.5-.5s-.22-.5-.5-.5h-2.59c-.08-1.29-.92-2.38-2.08-2.82v-15.7c.96.11,1.71.92,1.71,1.91v6.04c0,1.62,1.32,2.94,2.94,2.94s2.94-1.32,2.94-2.94v-7.98c.89-.15,1.58-.93,1.58-1.86v-1.73h-.69ZM23.42,29.5H6.17c.1-1.14,1.06-2.04,2.23-2.04h12.78c1.17,0,2.13.9,2.23,2.04ZM21.19,26.46h-12.78s-.09.01-.14.01V4.87c0-1.31,1.06-2.37,2.37-2.37h8.33c1.31,0,2.37,1.06,2.37,2.37v21.6s-.09-.01-.14-.01ZM30.49,9.08c0,.49-.4.89-.89.89h-.31c-.49,0-.89-.4-.89-.89v-.73h2.09v.73Z"/>
  </g>
  <path class="cls-2" d="M19.15,9.35c-.96,2.39-4.16,1.61-6.05,2.99-2.2,1.62-1.64,3.94-1.43,4.58-1.64,1.27-1.82,2.68-1.83,2.76-.02.18.11.34.29.36.01,0,.02,0,.04,0,.16,0,.28-.13.32-.29.38-1.44,1.51-2.24,1.51-2.24.58-.49,1.37-.98,2.48-1.38,2.88-1.03,3.08-3.02,3.09-3.1.02-.18.18-.31.35-.3.18.01.31.17.3.35,0,.1-.22,2.49-3.52,3.67-1.07.38-1.81.84-2.33,1.3,1.62,1.9,4.99,1.64,6.65-1.35,1.56-2.8.12-7.35.12-7.35Z"/>
</svg>