<?xml version="1.0" encoding="UTF-8"?>
<svg id="Layer_1" data-name="Layer 1" xmlns="http://www.w3.org/2000/svg" viewBox="0 0 32 32">
  <defs>
    <style>
      .cls-1 {
        fill: none;
      }

      .cls-2 {
        fill: #0328d1;
      }
    </style>
  </defs>
  <path class="cls-1" d="M24.62,8.46h-3.41v2.26c0,.28-.22.5-.5.5s-.5-.22-.5-.5v-2.26h-6.75v2.26c0,.28-.22.5-.5.5s-.5-.22-.5-.5v-2.26h-3.41l-1.65,20.12h18.88l-1.65-20.12ZM20.88,21.72c-.67,1.2-1.63,1.96-2.85,2.26-.4.1-.79.14-1.17.14-1.37,0-2.49-.51-2.65-.62-.23-.15-.29-.46-.14-.69.15-.23.46-.29.69-.14.21.12,1.7.71,3.13.32.89-.25,1.6-.83,2.11-1.75,1-1.79.66-4.44.35-5.91-.81.81-1.99,1.07-3.06,1.3-.94.2-1.82.39-2.5.89-1.7,1.24-1.53,2.96-1.34,3.74.49-.28,1.07-.54,1.77-.76,2.79-.87,3.01-2.6,3.02-2.67.03-.27.29-.47.55-.45.27.03.47.26.45.54,0,.1-.25,2.45-3.72,3.53-3.26,1.01-3.63,3.02-3.65,3.11-.04.24-.25.42-.49.42-.03,0-.05,0-.08,0-.27-.04-.46-.29-.42-.56.01-.08.23-1.37,1.7-2.56-.41-1.21-.53-3.56,1.62-5.15.85-.62,1.88-.84,2.88-1.06,1.36-.29,2.54-.54,3.02-1.73.08-.2.27-.34.48-.31.21,0,.39.15.46.35.06.19,1.49,4.81-.16,7.77Z"/>
  <path class="cls-1" d="M20.21,5.92c0-1.86-1.52-3.38-3.38-3.38s-3.38,1.52-3.38,3.38v1.54h6.75v-1.54Z"/>
  <path class="cls-2" d="M20.58,13.6c-.22-.02-.4.12-.48.31-.48,1.18-1.65,1.44-3.02,1.73-1,.21-2.03.43-2.88,1.06-2.16,1.58-2.03,3.94-1.62,5.15-1.47,1.19-1.69,2.48-1.7,2.56-.04.27.15.52.42.56.03,0,.05,0,.08,0,.24,0,.45-.18.49-.42.01-.08.39-2.1,3.65-3.11,3.47-1.08,3.71-3.43,3.72-3.53.02-.27-.18-.51-.45-.54-.26-.02-.52.17-.55.45,0,.07-.23,1.8-3.02,2.67-.69.22-1.27.48-1.77.76-.19-.79-.36-2.5,1.34-3.74.68-.5,1.56-.69,2.5-.89,1.07-.23,2.25-.48,3.06-1.3.31,1.47.65,4.11-.35,5.91-.51.92-1.22,1.5-2.11,1.75-1.43.4-2.92-.2-3.13-.32-.23-.15-.54-.09-.69.14-.15.23-.09.54.14.69.16.11,1.28.62,2.65.62.38,0,.77-.04,1.17-.14,1.22-.3,2.18-1.06,2.85-2.26,1.65-2.96.22-7.57.16-7.77-.06-.2-.25-.34-.46-.35Z"/>
  <path d="M25.54,7.46h-4.33v-1.54c0-2.41-1.96-4.38-4.38-4.38s-4.38,1.96-4.38,4.38v1.54h-4.33l-1.82,22.12h21.05l-1.82-22.12ZM13.45,5.92c0-1.86,1.51-3.38,3.38-3.38s3.38,1.52,3.38,3.38v1.54h-6.75v-1.54ZM9.04,8.46h3.41v2.26c0,.28.22.5.5.5s.5-.22.5-.5v-2.26h6.75v2.26c0,.28.22.5.5.5s.5-.22.5-.5v-2.26h3.41l1.65,20.12H7.39l1.65-20.12Z"/>
</svg>