<?xml version="1.0" encoding="UTF-8"?>
<svg id="Layer_1" data-name="Layer 1" xmlns="http://www.w3.org/2000/svg" viewBox="0 0 32 32">
  <defs>
    <style>
      .cls-1 {
        fill: none;
      }

      .cls-2 {
        fill: #0328d1;
      }
    </style>
  </defs>
  <polygon class="cls-1" points="13.76 7.79 11.92 4.63 11.92 4.62 9.62 7.65 12.32 9.69 13.76 7.79"/>
  <polygon class="cls-1" points="25.44 20.52 24.03 17.12 20.53 18.58 21.33 20.51 25.44 20.52"/>
  <path d="M12.11,10.79c.09.07.2.1.3.1.15,0,.3-.07.4-.2l1.49-1.97,1.16,2-3.49,1.72,9.7,3.3,3.3-9.7-3.17,1.56-3.59-6.17-5.29,1c-.3.06-.56.21-.77.42-.11.03-.21.08-.28.18l-3.35,4.43c-.08.11-.12.24-.1.37.02.13.09.25.19.33l3.49,2.64ZM12.76,3.68c.07-.14.19-.24.35-.27l4.6-.87,3.7,6.36,1.84-.91-2.2,6.47-6.47-2.2,2.28-1.12-4.08-7.02c-.08-.14-.09-.3-.02-.44ZM11.92,4.62s0,0,0,0l1.84,3.16-1.44,1.9-2.69-2.04,2.29-3.03Z"/>
  <path d="M26.89,21.41l-2.13-5.13c-.11-.26-.4-.37-.65-.27l-4.42,1.83c-.12.05-.22.15-.27.27s-.05.26,0,.38l.83,2.01h-1.85s.28-3.88.28-3.88l-7.75,6.71,6.71,7.75.25-3.52,7.14.02,1.81-5.07c.09-.25.1-.51.06-.76.04-.11.04-.23,0-.34ZM24.03,17.12l1.41,3.4h-4.1s-.8-1.95-.8-1.95l3.5-1.45ZM25.89,22.17l-1.58,4.41-7.36-.02-.15,2.04-4.47-5.17,5.17-4.47-.18,2.54,8.12.02c.16,0,.3.08.39.2.09.13.11.29.06.44Z"/>
  <path class="cls-2" d="M8.84,18.6c-1.2,0-2.24-.33-2.84-.57-.1.13-.2.27-.3.42-1.88,3.01-.81,3.19-2.69,5.56,0,0,5.32.29,7.85-2.82,0,0,1.36-1.64,1.35-3.69-1.11.83-2.3,1.1-3.37,1.1Z"/>
  <path class="cls-2" d="M5.92,16.91c.12.06,2.59,1.32,4.87.29-2.49-.67-4.36-2.12-4.44-2.19-.22-.17-.25-.49-.08-.7s.49-.25.7-.08c.02.02,2.04,1.57,4.56,2.11-.43-1.21-1.62-3.8-4.21-4.75-1.71-.63-2.59-.69-3.36-.74-.7-.05-1.36-.09-2.43-.52.43,1.68,1.63,5.17,4.39,6.58Z"/>
</svg>