<?xml version="1.0" encoding="UTF-8"?>
<svg id="Layer_1" data-name="Layer 1" xmlns="http://www.w3.org/2000/svg" viewBox="0 0 32 32">
  <defs>
    <style>
      .cls-1 {
        fill: none;
      }

      .cls-2 {
        fill: #000205;
      }

      .cls-3 {
        fill: #0328d1;
      }
    </style>
  </defs>
  <polygon class="cls-1" points="14.36 20.49 14.07 22.14 16.19 22.14 14.36 20.49"/>
  <path class="cls-1" d="M17.28,14.61l-3.11-.45c.09.73.67,1.33,1.44,1.42.73.08,1.4-.33,1.68-.97Z"/>
  <polygon class="cls-1" points="17.74 26.14 17.32 23.74 14.28 26.14 17.74 26.14"/>
  <polygon class="cls-1" points="15.15 19.85 16.91 21.44 16.62 19.85 15.15 19.85"/>
  <path class="cls-1" d="M19.89,27.61c-.34-.77-.46-1.65-.3-2.54.17-.89.6-1.67,1.2-2.26l.58.86.93-6.08c-.46-.17-.86-.46-1.16-.86-.35-.48-.51-1.05-.48-1.63l-2.36-.34c-.22.68-.7,1.22-1.31,1.54h.74c.28,0,.5.22.5.5v2.56c0,.28-.22.5-.5.5h-.09l.43,2.39c.13.09.22.23.22.4,0,.11-.04.2-.1.28l.94,5.29c.01.08,0,.16-.02.23h4.17s-.02-.05-.02-.08v-2.09l-1.51-.27-.07.36-1.8,1.25Z"/>
  <path class="cls-1" d="M27.84,28.44s-.02-.05-.02-.08v-2.47l-3.56-1.21v3.69s-.01.05-.02.08h3.59Z"/>
  <polygon class="cls-1" points="13.89 23.14 13.47 25.51 16.47 23.14 13.89 23.14"/>
  <rect class="cls-1" x="13.89" y="17.29" width="3.34" height="1.56"/>
  <rect class="cls-1" x="5.15" y="26.95" width=".32" height=".92"/>
  <rect class="cls-1" x="4.76" y="23.48" width="1.11" height=".32"/>
  <path class="cls-1" d="M6.46,28.44h5.53c-.02-.07-.03-.15-.02-.23l1.49-8.37h-.07c-.28,0-.5-.22-.5-.5v-2.56c0-.28.22-.5.5-.5h1.19c-.84-.44-1.39-1.3-1.42-2.27l-3.24-.46s-.05.07-.08.09l-3.38,2.58c-.09.07-.19.1-.3.1-.04,0-.08,0-.11-.01-.09-.02-.17-.07-.23-.14v6.3h.56c.28,0,.5.22.5.5v1.32c0,.28-.22.5-.5.5h-.56v1.15h.16c.28,0,.5.22.5.5v1.92s-.01.05-.02.07Z"/>
  <path class="cls-1" d="M18.14,28.39l-.22-1.24h-4.74l-.22,1.24s-.01.04-.02.05h5.23s-.02-.03-.02-.05Z"/>
  <path class="cls-1" d="M5.81,12.5v.17c.06.82.23,1.62.54,2.39l2.71-2.08.42-3.01-2.03-2.75c-.86,1.09-1.41,2.38-1.61,3.77-.07.48-.08.96-.06,1.44,0,.02.01.04.01.07Z"/>
  <polygon class="cls-1" points="10.14 12.57 17.97 13.69 17.97 13.69 17.97 13.69 26.84 14.96 27.1 13.1 10.4 10.7 10.14 12.57"/>
  <path class="cls-1" d="M21.95,16.13c.24.32.59.54.99.59.76.11,1.46-.36,1.66-1.07l-2.94-.42c0,.32.1.63.29.89Z"/>
  <path d="M30.45,28.44h-1.64s.02-.05.02-.08v-2.83c0-.21-.14-.4-.34-.47l-4.56-1.55c-.15-.05-.32-.03-.45.07s-.21.25-.21.41v1.28l-1.09-.19,1.12-7.34c1.1-.06,2.05-.84,2.3-1.93l1.6.23s.05,0,.07,0c.11,0,.21-.03.3-.1.11-.08.18-.2.19-.33l.4-2.86c.04-.27-.15-.53-.42-.56l-17.24-2.47c-.02-.06-.04-.12-.08-.17l-2.53-3.42c-.09-.12-.23-.19-.38-.2-.16,0-.29.05-.4.16-1.22,1.33-2,2.98-2.26,4.77-.08.59-.09,1.18-.05,1.76v9.87h-.56c-.28,0-.5.22-.5.5v1.32c0,.28.22.5.5.5h.56v1.15h-.16c-.28,0-.5.22-.5.5v1.92s.01.05.02.07H1.5c-.28,0-.5.22-.5.5s.22.5.5.5h28.95c.28,0,.5-.22.5-.5s-.22-.5-.5-.5ZM24.26,24.68l3.56,1.21v2.47s.01.05.02.08h-3.59s.02-.05.02-.08v-3.69ZM20.8,24.82c-.27-.05-.53.13-.58.41-.05.27.13.53.41.58l1.13.2,1.51.27v2.09s.01.05.02.08h-4.17c.02-.07.03-.15.02-.23l-.94-5.29c.06-.08.1-.18.1-.28,0-.17-.09-.31-.22-.4l-.43-2.39h.09c.28,0,.5-.22.5-.5v-2.56c0-.28-.22-.5-.5-.5h-.74c.61-.32,1.1-.86,1.31-1.54l2.36.34c-.03.58.12,1.16.48,1.63.3.4.7.7,1.16.86l-.93,6.08.64.95-.07.4-1.14-.2ZM14.17,14.16l3.11.45c-.28.64-.95,1.05-1.68.97-.76-.09-1.34-.69-1.44-1.42ZM17.23,17.29v1.56h-3.34v-1.56h3.34ZM14.36,20.49l1.82,1.66h-2.12l.3-1.66ZM17.74,26.14h-3.46l3.04-2.4.43,2.4ZM15.15,19.85h1.47l.28,1.6-1.76-1.6ZM13.89,23.14h2.58l-3,2.37.42-2.37ZM12.95,28.39l.22-1.24h4.74l.22,1.24s.01.04.02.05h-5.23s.02-.03.02-.05ZM22.94,16.72c-.4-.06-.75-.27-.99-.59-.19-.26-.29-.57-.29-.89l2.94.42c-.21.71-.91,1.18-1.66,1.07ZM26.84,14.96l-8.86-1.27s0,0,0,0,0,0,0,0l-7.84-1.12.26-1.87,16.7,2.39-.26,1.87ZM5.86,10.99c.2-1.38.75-2.68,1.61-3.77l2.03,2.75-.42,3.01-2.71,2.08c-.31-.77-.48-1.57-.54-2.39v-.17s-.01-.04-.01-.07c-.02-.48-.01-.96.06-1.44ZM4.76,23.48h1.11v.32h-1.11v-.32ZM5.15,26.95h.32v.92h-.32v-.92ZM5.98,25.95h-.16v-1.15h.56c.28,0,.5-.22.5-.5v-1.32c0-.28-.22-.5-.5-.5h-.56v-6.3c.06.06.14.12.23.14.04,0,.08.01.11.01.11,0,.22-.04.3-.1l3.38-2.58s.06-.06.08-.09l3.24.46c.02.97.58,1.84,1.42,2.27h-1.19c-.28,0-.5.22-.5.5v2.56c0,.28.22.5.5.5h.07l-1.49,8.37c-.01.08,0,.16.02.23h-5.53s.02-.05.02-.07v-1.92c0-.28-.22-.5-.5-.5Z"/>
  <path class="cls-2" d="M21.37,23.67l-.58-.86c-.6.6-1.03,1.37-1.2,2.26-.17.89-.05,1.77.3,2.54l1.8-1.25.07-.36-1.13-.2c-.27-.05-.45-.31-.41-.58.05-.27.31-.46.58-.41l1.14.2.07-.4-.64-.95Z"/>
  <path class="cls-3" d="M28.12,4.26c-.14,0-.27.02-.39.04-.12-1.11-1.06-1.97-2.2-1.97-1,0-1.84.66-2.12,1.57-.07,0-.14-.01-.22-.01-1.05,0-1.9.81-1.97,1.84h8.68c-.15-.84-.89-1.47-1.77-1.47Z"/>
  <path class="cls-3" d="M18.66,7.48c-.07,0-.13,0-.19.02-.06-.53-.51-.95-1.06-.95-.48,0-.89.32-1.02.75-.03,0-.07,0-.1,0-.5,0-.92.39-.95.89h4.18c-.07-.4-.43-.71-.85-.71Z"/>
</svg>