<?xml version="1.0" encoding="UTF-8"?>
<svg id="Layer_1" data-name="Layer 1" xmlns="http://www.w3.org/2000/svg" viewBox="0 0 32 32">
  <defs>
    <style>
      .cls-1 {
        fill: none;
      }

      .cls-2 {
        fill: #fff;
      }

      .cls-3 {
        fill: #0328d1;
      }
    </style>
  </defs>
  <path class="cls-1" d="M5.28,23.36c.12.03.24.08.35.13-.11-.06-.23-.1-.35-.13Z"/>
  <path class="cls-1" d="M7.37,24.89c-.15-.06-.31-.09-.49-.09-.1,0-.19.01-.28.03.09-.02.18-.03.28-.03.17,0,.33.03.49.09Z"/>
  <path class="cls-1" d="M24.36,12.27c.49,0,.94.13,1.35.33-.41-.2-.86-.33-1.35-.33-.58,0-1.12.17-1.58.45h0c.46-.28,1-.45,1.58-.45Z"/>
  <path class="cls-1" d="M27.92,14.9h0c-.19,0-.37.02-.54.06h0c.17-.04.35-.06.54-.06Z"/>
  <path class="cls-1" d="M6.58,24.84c-.01-.11-.03-.21-.07-.31.03.1.05.21.07.31h0Z"/>
  <path class="cls-1" d="M3.05,24.51h0c-.46,0-.87.21-1.15.53.28-.32.69-.53,1.15-.53Z"/>
  <path class="cls-1" d="M7.37,24.89c.45.17.8.57.89,1.06h0c-.09-.49-.43-.89-.89-1.06Z"/>
  <path class="cls-1" d="M3.46,24.04c-.1.15-.19.31-.24.49h0c.05-.18.14-.34.24-.49Z"/>
  <path class="cls-1" d="M5.16,23.33c-.1-.02-.19-.03-.29-.03-.39,0-.75.13-1.03.34.29-.22.65-.34,1.03-.34.1,0,.2.01.29.03Z"/>
  <path class="cls-3" d="M15.47,24.03v1.92c0,.28.22.5.5.5s.5-.22.5-.5v-1.92c-.17.01-.33.03-.5.03s-.33-.01-.5-.03Z"/>
  <path class="cls-3" d="M16.47,8.65v-1.92c0-.28-.22-.5-.5-.5s-.5.22-.5.5v1.92c.17-.01.33-.03.5-.03s.33.01.5.03Z"/>
  <path class="cls-3" d="M21.05,22.13l1.35,1.35c.1.1.23.15.35.15s.26-.05.35-.15c.2-.2.2-.51,0-.71l-1.35-1.35c-.22.25-.46.49-.71.71Z"/>
  <path class="cls-3" d="M10.89,10.55l-1.35-1.35c-.2-.2-.51-.2-.71,0s-.2.51,0,.71l1.35,1.35c.22-.25.46-.49.71-.71Z"/>
  <path class="cls-3" d="M10.18,21.42l-1.35,1.35c-.2.2-.2.51,0,.71.1.1.23.15.35.15s.26-.05.35-.15l1.35-1.35c-.25-.22-.49-.46-.71-.71Z"/>
  <path class="cls-3" d="M21.76,11.26l1.35-1.35c.2-.2.2-.51,0-.71s-.51-.2-.71,0l-1.35,1.35c.25.22.49.46.71.71Z"/>
  <path class="cls-3" d="M8.28,15.84h-1.92c-.28,0-.5.22-.5.5s.22.5.5.5h1.92c-.01-.17-.03-.33-.03-.5s.01-.33.03-.5Z"/>
  <path class="cls-3" d="M19.4,27.22c.07.2.27.33.47.33.06,0,.11,0,.17-.03.26-.09.39-.38.3-.64l-1.27-3.48c-.3.13-.62.25-.94.34l1.27,3.48Z"/>
  <path class="cls-3" d="M12.54,5.46c-.09-.26-.38-.39-.64-.3-.26.09-.39.38-.3.64l1.27,3.48c.3-.13.62-.25.94-.34l-1.27-3.48Z"/>
  <path class="cls-3" d="M26.09,21.61c.07.03.14.05.21.05.19,0,.37-.11.45-.29.12-.25,0-.55-.24-.66l-3.36-1.57c-.12.31-.26.62-.42.91l3.36,1.56Z"/>
  <path class="cls-3" d="M5.85,11.07c-.25-.11-.55,0-.66.24-.12.25,0,.55.24.66l3.36,1.57c.12-.31.26-.62.42-.91l-3.35-1.56Z"/>
  <path class="cls-3" d="M21.24,6.22c.12-.25,0-.55-.24-.66-.25-.11-.55,0-.66.24l-1.57,3.36c.31.12.62.26.91.42l1.56-3.35Z"/>
  <path class="cls-3" d="M10.7,26.46c-.12.25,0,.55.24.66.07.03.14.05.21.05.19,0,.37-.11.45-.29l1.57-3.36c-.31-.12-.62-.26-.91-.42l-1.56,3.36Z"/>
  <path class="cls-3" d="M5.09,19.77c-.26.09-.39.38-.3.64.07.2.27.33.47.33.06,0,.11,0,.17-.03l3.48-1.27c-.13-.3-.25-.62-.34-.94l-3.48,1.27Z"/>
  <path class="cls-2" d="M22.78,12.73c-.08.05-.16.09-.24.15.08-.06.16-.1.24-.15h0Z"/>
  <path class="cls-2" d="M20.92,14.42c-.36.03-.69.13-1,.29.3-.16.64-.26,1-.29h0Z"/>
  <path class="cls-2" d="M21.74,13.79c.13-.22.27-.42.44-.6-.17.18-.32.38-.44.6h0Z"/>
  <path class="cls-3" d="M21.16,14.4h0c-.08,0-.16.02-.25.02h0c.08,0,.16-.02.25-.02Z"/>
  <path class="cls-3" d="M15.97,21.66c-2.94,0-5.32-2.38-5.32-5.32s2.38-5.32,5.32-5.32c1.88,0,3.53.98,4.47,2.46.12-.02.23-.06.35-.07.12-.22.26-.42.41-.61-1.14-1.68-3.06-2.78-5.23-2.78-3.48,0-6.32,2.83-6.32,6.32s2.83,6.32,6.32,6.32c2.94,0,5.41-2.02,6.11-4.74h-1.06c-.67,2.16-2.67,3.74-5.05,3.74Z"/>
  <path class="cls-3" d="M21.74,13.79h0c-.11.2-.22.4-.28.63h0c.07-.22.17-.43.28-.63Z"/>
  <path d="M8.26,25.94H1.52c.02-.35.17-.66.38-.9.28-.32.69-.53,1.15-.53h0c.06,0,.11,0,.17,0h0c.05-.18.14-.34.24-.49.1-.15.23-.28.37-.39.29-.22.65-.34,1.03-.34.1,0,.2.01.29.03.04,0,.08.02.12.03.12.03.24.08.35.13.14.07.27.15.39.25.23.21.4.47.5.77.03.1.05.21.07.31h0s.02,0,.03,0c.09-.02.18-.03.28-.03.17,0,.33.03.49.09.45.17.8.57.89,1.06h0Z"/>
  <path d="M22.19,13.19c.11-.11.23-.22.36-.31.08-.06.16-.1.24-.15.46-.28,1-.45,1.58-.45.49,0,.94.13,1.35.33.9.45,1.55,1.32,1.67,2.36h0c.17-.04.35-.06.54-.06h0c.15,0,.3.01.44.04.43.08.82.27,1.14.54.43.36.73.86.83,1.43h-11.87c.07-.96.65-1.78,1.46-2.2.3-.16.64-.26,1-.29.08,0,.16-.02.25-.02h0c.1,0,.2,0,.3.02h0c.07-.22.17-.43.28-.63.13-.22.27-.42.44-.6Z"/>
</svg>