<?xml version="1.0" encoding="UTF-8"?>
<svg id="Layer_1" data-name="Layer 1" xmlns="http://www.w3.org/2000/svg" viewBox="0 0 32 32">
  <defs>
    <style>
      .cls-1 {
        fill: none;
      }

      .cls-2 {
        fill: #0328d1;
      }
    </style>
  </defs>
  <path class="cls-1" d="M16,20.35c2.93,0,5.31-2.38,5.31-5.31,0-4.65-4.04-10.04-5.31-11.62-1.27,1.58-5.31,6.96-5.31,11.62,0,2.93,2.38,5.31,5.31,5.31Z"/>
  <path class="cls-2" d="M16,21.35c3.48,0,6.31-2.83,6.31-6.31,0-5.87-5.69-12.45-5.93-12.73l-.38-.43-.38.43c-.24.28-5.93,6.86-5.93,12.73,0,3.48,2.83,6.31,6.31,6.31ZM16,3.43c1.27,1.58,5.31,6.96,5.31,11.62,0,2.93-2.38,5.31-5.31,5.31s-5.31-2.38-5.31-5.31c0-4.65,4.04-10.04,5.31-11.62Z"/>
  <path d="M10.92,21.33c.26-.09.4-.37.32-.63-.09-.26-.37-.4-.63-.32-1.87.62-2.91,1.55-2.91,2.6,0,2.19,4.28,3.37,8.3,3.37s8.3-1.18,8.3-3.37c0-1.05-1.03-1.98-2.91-2.6-.26-.09-.54.05-.63.32-.09.26.05.54.32.63,1.37.46,2.22,1.09,2.22,1.65,0,.99-2.78,2.37-7.3,2.37s-7.3-1.38-7.3-2.37c0-.56.85-1.2,2.22-1.65Z"/>
  <path d="M13.22,22.52c.22-.17.27-.48.1-.7-.17-.22-.48-.26-.7-.1-.42.32-.51.66-.51.9,0,1.16,2.02,1.68,3.9,1.68s3.9-.53,3.9-1.68c0-.27-.12-.67-.68-1.01-.24-.14-.54-.07-.69.17-.14.24-.07.54.17.69.14.08.19.15.2.15-.11.21-1.09.69-2.89.69s-2.82-.5-2.9-.66c0-.01.04-.06.12-.12Z"/>
  <path d="M22.39,18.69c-.27-.06-.54.1-.6.37-.06.27.1.54.37.6,3.34.78,5.49,2.18,5.49,3.56,0,2.04-4.68,4.23-11.65,4.23s-11.65-2.19-11.65-4.23c0-1.35,1.99-2.69,5.2-3.49.27-.07.43-.34.36-.61-.07-.27-.34-.43-.61-.36-3.79.95-5.96,2.58-5.96,4.46,0,2.93,5.56,5.23,12.65,5.23s12.65-2.3,12.65-5.23c0-1.92-2.34-3.62-6.26-4.54Z"/>
</svg>