<?xml version="1.0" encoding="UTF-8"?>
<svg id="Layer_1" data-name="Layer 1" xmlns="http://www.w3.org/2000/svg" viewBox="0 0 32 32">
  <defs>
    <style>
      .cls-1 {
        fill: none;
      }

      .cls-2 {
        fill: #0328d1;
      }
    </style>
  </defs>
  <path class="cls-1" d="M14.8,21.79c.08-.39.17-.76.27-1.11,0-.04.02-.08.04-.12.8-2.64,2.16-3.96,2.25-4.04.2-.19.52-.18.7.02.19.2.18.52-.02.71-.01.01-.71.69-1.36,2.04.52-.21.92-.22.95-.22.28,0,.5.22.5.5s-.22.5-.5.5c-.05,0-.88.04-1.6.9-.2.69-.36,1.47-.44,2.34,1.78-.38,3.27-1.59,3.98-3.27.37-.87.51-1.82.41-2.75-.02-.18-.05-.35-.07-.52-.13-1.01.18-2.01.18-2.01,0,0-3.57.15-5.06,2.97-.54,1.31-.61,2.73-.24,4.06Z"/>
  <polygon class="cls-1" points="23.8 8.95 21.6 8.95 21.6 10.54 23.8 12.05 23.8 8.95"/>
  <path class="cls-1" d="M11.27,19.23c.02.72.22,1.42.59,2.04.54.92,1.4,1.59,2.4,1.91-.41-.9-.63-1.85-.66-2.82-.25-.78-1.19-1.38-1.2-1.38-.23-.15-.31-.45-.16-.69.15-.23.45-.31.69-.16.03.02.4.26.8.65.07-.36.17-.72.29-1.07-.78-.35-1.7-.42-2.33-.42-.45,0-.75.04-.75.04,0,0,.36.58.34,1.51,0,.13,0,.26,0,.4Z"/>
  <path class="cls-1" d="M10.8,16.32s.37-.04.87-.04c.81,0,1.84.1,2.75.51,1.85-2.85,5.48-3.03,5.64-3.04l1.41-.05-.41,1.35s-.24.81-.14,1.59l.02.16c.02.13.04.26.05.39.12,1.1-.05,2.22-.49,3.24-.87,2.05-2.69,3.51-4.89,3.91h0s-.04,0-.06.01c0,.37,0,.75.03,1.14.02.28-.19.51-.47.53-.01,0-.02,0-.03,0-.26,0-.48-.2-.5-.47-.03-.44-.03-.86-.03-1.27-1.49-.28-2.78-1.18-3.56-2.5-.45-.77-.7-1.64-.72-2.52,0-.15,0-.3,0-.44,0-.6-.2-.97-.2-.97l-.81-1.33,1.54-.19Z"/>
  <path class="cls-2" d="M10.26,18.81c0,.14,0,.29,0,.44.02.88.27,1.76.72,2.52.78,1.32,2.08,2.22,3.56,2.5,0,.41,0,.83.03,1.27.02.26.24.47.5.47.01,0,.02,0,.03,0,.28-.02.48-.26.47-.53-.03-.4-.03-.78-.03-1.14.02,0,.04,0,.06-.01h0c2.19-.4,4.02-1.86,4.89-3.91.43-1.02.6-2.14.49-3.24-.01-.13-.03-.26-.05-.39l-.02-.16c-.1-.77.14-1.58.14-1.59l.41-1.35-1.41.05c-.17,0-3.8.19-5.64,3.04-.91-.41-1.94-.51-2.75-.51-.49,0-.83.04-.87.04l-1.54.19.81,1.33s.2.37.2.97ZM20.11,14.76s-.31,1-.18,2.01c.02.17.05.34.07.52.1.93-.04,1.88-.41,2.75-.71,1.68-2.19,2.89-3.98,3.27.08-.88.24-1.66.44-2.34.72-.85,1.55-.89,1.6-.9.27,0,.5-.23.5-.5s-.22-.5-.5-.5c-.03,0-.43.01-.95.22.65-1.35,1.35-2.02,1.36-2.04.2-.19.21-.51.02-.71-.19-.2-.5-.21-.7-.02-.09.08-1.46,1.41-2.25,4.04-.02.04-.03.08-.04.12-.1.35-.19.72-.27,1.11-.37-1.33-.3-2.75.24-4.06,1.49-2.82,5.06-2.97,5.06-2.97ZM11.67,17.28c.63,0,1.54.08,2.33.42-.12.35-.22.71-.29,1.07-.39-.4-.77-.64-.8-.65-.23-.15-.54-.07-.69.16-.15.23-.07.54.16.69,0,0,.95.6,1.2,1.38.03.97.25,1.93.66,2.82-1-.31-1.85-.98-2.4-1.91-.36-.62-.57-1.33-.59-2.04,0-.14,0-.27,0-.4.01-.93-.34-1.51-.34-1.51,0,0,.3-.04.75-.04Z"/>
  <path d="M30.31,26.84c-.11,0-.21.03-.31.08.04-.11.06-.23.06-.36,0-.62-.51-1.13-1.13-1.13-.14,0-.26.03-.38.07-.1-.63-.63-1.11-1.28-1.15v-8.74l1.44.98c.23.16.54.1.69-.13.16-.23.1-.54-.13-.69l-4.48-3.05v-4.78h-4.2v1.91l-3.88-2.66s-.07-.03-.1-.04l-.43-.3L3.11,15.77c-.23.16-.29.47-.13.69.1.14.25.22.41.22.1,0,.19-.03.28-.09l1.44-.98v8.37c-.55.07-.99.48-1.08,1.02-.11-.04-.22-.06-.34-.06-.56,0-1.02.46-1.02,1.02,0,.11.02.22.06.32-.08-.04-.18-.08-.28-.08-.34,0-.61.27-.61.61,0,.18.08.33.2.44-.16.08-.27.24-.27.43,0,.28.22.5.5.5h27.93s.09,0,.11,0c.37,0,.68-.3.68-.68s-.3-.68-.68-.68ZM21.6,8.95h2.2v3.1l-2.2-1.51v-1.59ZM16.19,8.07l5.41,3.69h0s4.68,3.2,4.68,3.2v12.24H6.11v-2.21s0-10.04,0-10.04l10.08-6.87Z"/>
</svg>