<?xml version="1.0" encoding="UTF-8"?>
<svg id="Layer_1" data-name="Layer 1" xmlns="http://www.w3.org/2000/svg" viewBox="0 0 32 32">
  <defs>
    <style>
      .cls-1 {
        fill: none;
      }

      .cls-2 {
        fill: #0328d1;
      }
    </style>
  </defs>
  <path class="cls-1" d="M18.84,17.94l-.22.04-.14-.18c-.51-.64-1.25-1-2.05-1-.05,0-.09.02-.14.02-.01.34-.04.68-.04,1.04,0,.21-.17.38-.38.38s-.38-.17-.38-.38c0-.3.02-.59.03-.88-.58.22-1.08.62-1.39,1.18l-.13.23-.26-.04c-.67-.12-1.4.15-1.83.72l-.2.26-.29-.17c-.76-.46-1.7-.15-2.13.52h12.93c-.56-1.25-1.89-2.03-3.38-1.74Z"/>
  <polygon class="cls-1" points="9.7 23.7 11.06 29.76 20.47 29.76 21.83 23.7 9.7 23.7"/>
  <rect class="cls-1" x="8.32" y="20.68" width="14.9" height="2.02"/>
  <path class="cls-1" d="M23.36,1.42c-3.07,0-5.93,2.01-7.16,4.2-1.18,2.38-1.26,5.11-.25,7.53,1.24-6.15,4.61-8.99,4.78-9.14.16-.13.4-.11.53.05.13.16.11.4-.05.53-.03.02-1.45,1.24-2.76,3.75.72-.38,1.36-.47,1.4-.48.2-.03.39.12.42.32.03.2-.12.39-.32.42-.01,0-1.23.17-2.07,1.1-.03.03-.07.05-.1.07-.47,1.15-.89,2.5-1.16,4.04,2.71-.39,5.05-2.06,6.28-4.51.63-1.26.94-2.67.89-4.07-.01-.27-.03-.53-.05-.79-.08-1.01-.14-1.88.41-2.89l.05-.1h-.11c-.24-.04-.47-.05-.71-.05Z"/>
  <path class="cls-1" d="M14.51,9.65c-.67-2.32-2.55-3.58-2.56-3.59-.17-.11-.22-.35-.11-.52.11-.17.34-.22.52-.11.07.05,1.38.94,2.29,2.62.14-.83.38-1.64.73-2.42-1.03-.83-2.48-1.3-4.07-1.3-.33,0-.67.02-1.01.06h-.11s.05.11.05.11c.42.76.37,1.43.31,2.19-.01.19-.03.39-.04.6-.04,1.07.19,2.15.68,3.12.85,1.69,2.39,2.9,4.21,3.34-.6-1.31-.9-2.7-.9-4.1Z"/>
  <path d="M9.28,19.68h-1.97v4.02h1.36l1.59,7.06h11.01l1.59-7.06h1.36v-4.02h-14.93ZM20.47,29.76h-9.41l-1.36-6.06h12.13l-1.36,6.06ZM23.22,22.7h-14.9v-2.02h14.9v2.02Z"/>
  <path class="cls-2" d="M24.26.72h-.11c-.26-.04-.52-.05-.79-.05-3.33,0-6.24,2.06-7.65,4.26-1.15-.87-2.7-1.35-4.41-1.35-.36,0-.73.02-1.1.07h-.11s-1.1.15-1.1.15l.54.97.05.1c.31.57.28,1.05.22,1.78v.05c-.02.19-.03.38-.04.57-.05,1.2.21,2.4.76,3.48,1.03,2.04,2.95,3.44,5.19,3.82-.07.51-.12,1.05-.16,1.6-.78.21-1.48.71-1.94,1.4-.77-.07-1.54.23-2.09.79-.29-.12-.6-.19-.91-.19-.98,0-1.83.61-2.17,1.5h.84c.43-.68,1.37-.98,2.13-.52l.29.17.2-.26c.44-.57,1.16-.83,1.83-.72l.26.04.13-.23c.31-.56.82-.96,1.39-1.18-.01.29-.03.58-.03.88,0,.21.17.38.38.38s.38-.17.38-.38c0-.36.02-.7.04-1.04.05,0,.09-.02.14-.02.8,0,1.54.37,2.05,1l.14.18.22-.04c1.49-.29,2.82.49,3.38,1.74h.79c-.59-1.67-2.24-2.78-4.1-2.51-.64-.71-1.54-1.12-2.49-1.12-.04,0-.07.01-.1.01.04-.5.09-.99.15-1.46,3.06-.36,5.7-2.21,7.08-4.95.69-1.38,1.02-2.91.96-4.44-.01-.28-.03-.55-.05-.81-.07-.97-.13-1.67.32-2.48l.05-.1.55-.99-1.13-.12ZM11.19,10.41c-.49-.97-.72-2.04-.68-3.12,0-.21.02-.41.04-.6.06-.77.11-1.43-.31-2.19l-.05-.1h.11c.34-.05.68-.07,1.01-.07,1.59,0,3.04.47,4.07,1.3-.35.78-.6,1.59-.73,2.42-.91-1.68-2.22-2.57-2.29-2.62-.17-.11-.41-.06-.52.11-.11.17-.06.41.11.52.02.01,1.9,1.27,2.56,3.59,0,1.4.3,2.8.9,4.1-1.82-.44-3.36-1.65-4.21-3.34ZM24.13,1.57c-.56,1.01-.49,1.88-.41,2.89.02.25.04.51.05.79.06,1.4-.25,2.81-.89,4.07-1.23,2.45-3.57,4.11-6.28,4.51.28-1.55.69-2.9,1.16-4.04.04-.02.07-.04.1-.07.84-.93,2.06-1.1,2.07-1.1.2-.03.35-.22.32-.42-.03-.21-.22-.35-.42-.32-.04,0-.67.1-1.4.48,1.31-2.51,2.74-3.72,2.76-3.75.16-.13.18-.37.05-.53-.13-.16-.37-.18-.53-.05-.17.14-3.54,2.98-4.78,9.14-1.01-2.42-.93-5.15.25-7.53,1.24-2.19,4.09-4.2,7.16-4.2.24,0,.47.01.71.04h.11s-.05.11-.05.11Z"/>
</svg>