<?xml version="1.0" encoding="UTF-8"?>
<svg id="Layer_1" data-name="Layer 1" xmlns="http://www.w3.org/2000/svg" viewBox="0 0 32 32">
  <defs>
    <style>
      .cls-1 {
        fill: none;
      }
    </style>
  </defs>
  <path class="cls-1" d="M8.97,15.91s0-.03,0-.05c.76-4.04-1.24-7-1.26-7.03-.16-.23-.1-.54.13-.7.23-.16.54-.1.69.13.08.11,1.67,2.48,1.6,5.96.87-1.09,1.91-2.1,3.13-3.03-1.04-2.63-3.58-4.94-6.91-6.18l-.18-.07v.19c.05,1.5-.55,2.47-1.25,3.6-.17.28-.35.58-.53.89-.91,1.61-1.4,3.44-1.42,5.29-.03,3.34,1.45,6.47,4,8.57-.01-2.8.65-5.33,1.97-7.58Z"/>
  <path class="cls-1" d="M22.34,9.29c-2.99,0-5.89.87-7.98,2.26-.03.07-.08.13-.15.18-4.01,2.92-6.03,6.57-6.19,11.11,7.13-9.27,14.31-10.03,14.67-10.06.28-.03.52.18.54.45.02.27-.18.52-.45.54-.06,0-3.54.39-8.01,3.74,1.81-.24,2.94.37,3,.41.24.14.33.44.19.68-.13.24-.44.33-.68.19-.08-.04-1.84-.96-4.54.4-1.47,1.34-3.01,3.01-4.53,5.08,1.65.62,3.36.92,5.06.92,2.99,0,5.95-.94,8.45-2.75,1.96-1.43,3.54-3.34,4.56-5.53.2-.42.37-.84.54-1.24.68-1.61,1.26-2.99,2.9-4.09l.16-.11-.16-.11c-2.22-1.45-4.83-2.08-7.38-2.08Z"/>
  <path d="M30.43,10.64l-.16-.11c-2.24-1.46-4.98-2.24-7.92-2.24s-5.97.81-8.26,2.23c-1.22-2.77-3.93-5.16-7.37-6.44l-.18-.07-1.39-.52.04,1.49v.19c.04,1.2-.44,1.97-1.1,3.04h0s-.03.04-.03.04c-.17.28-.35.57-.52.88-.99,1.75-1.53,3.75-1.55,5.78-.04,3.82,1.75,7.37,4.77,9.66-.86,1.25-1.72,2.63-2.56,4.17-.13.24-.04.55.2.68.08.04.16.06.24.06.18,0,.35-.09.44-.26.82-1.51,1.67-2.86,2.52-4.09.04.01.08.04.12.04l.08.03c1.76.66,3.6,1,5.46,1,3.26,0,6.39-1.02,9.03-2.95,2.1-1.53,3.78-3.57,4.88-5.91.2-.43.38-.85.55-1.25.65-1.54,1.16-2.74,2.55-3.67l.16-.11,1.25-.84-1.26-.83ZM3,14.92c.02-1.86.51-3.69,1.42-5.29.18-.31.36-.6.53-.89.69-1.13,1.29-2.1,1.25-3.6v-.19s.17.07.17.07c3.33,1.24,5.87,3.55,6.91,6.18-1.22.93-2.27,1.94-3.13,3.03.07-3.49-1.52-5.85-1.6-5.96-.16-.23-.47-.28-.69-.13-.23.16-.28.47-.13.7.02.03,2.01,2.99,1.26,7.03,0,.02,0,.03,0,.05-1.32,2.25-1.98,4.78-1.97,7.58-2.55-2.11-4.04-5.23-4-8.57ZM29.72,11.58c-1.64,1.1-2.23,2.49-2.9,4.09-.17.4-.34.82-.54,1.24-1.02,2.19-2.6,4.1-4.56,5.53-2.5,1.82-5.45,2.75-8.45,2.75-1.7,0-3.42-.3-5.06-.92,1.52-2.08,3.06-3.74,4.53-5.08,2.7-1.35,4.46-.44,4.54-.4.24.13.54.05.68-.19.14-.24.05-.55-.19-.68-.07-.04-1.2-.65-3-.41,4.47-3.35,7.96-3.73,8.01-3.74.27-.03.48-.27.45-.54-.03-.27-.26-.49-.54-.45-.35.03-7.54.79-14.67,10.06.15-4.54,2.18-8.19,6.19-11.11.07-.05.11-.11.15-.18,2.1-1.39,4.99-2.26,7.98-2.26,2.54,0,5.15.62,7.38,2.08l.16.11-.16.11Z"/>
</svg>