<?xml version="1.0" encoding="UTF-8"?>
<svg id="Layer_1" data-name="Layer 1" xmlns="http://www.w3.org/2000/svg" viewBox="0 0 32 32">
  <defs>
    <style>
      .cls-1 {
        fill: none;
      }

      .cls-2 {
        fill: #0328d1;
      }
    </style>
  </defs>
  <g>
    <path class="cls-1" d="M8.17,6.66c-.24.07-.48.15-.7.27.22-.12.46-.2.7-.27,0,0,0,0,0,0Z"/>
    <path class="cls-1" d="M6.59,7.58c-.38.39-.67.87-.84,1.41h0c.17-.54.46-1.02.84-1.41Z"/>
    <path class="cls-1" d="M11.57,5.37c-.26.13-.49.31-.67.54h0c.18-.23.41-.41.67-.54Z"/>
    <path class="cls-1" d="M14.74,6.82h0c-.12,0-.24.01-.35.04h0c.11-.03.23-.04.35-.04Z"/>
    <path class="cls-1" d="M3.73,9.46c-.32.21-.61.47-.83.78.23-.31.51-.57.83-.78Z"/>
    <path class="cls-1" d="M9.29,16.79c-1.53,0-2.82,2.04-2.82,4.44,0,2.14,1.02,3.98,2.32,4.36v-2.02l-1.23-1.06c-.21-.18-.23-.5-.05-.71s.5-.23.71-.05l.57.5v-1.44c0-.28.22-.5.5-.5s.5.22.5.5v4.79c1.3-.39,2.32-2.22,2.32-4.36,0-2.41-1.29-4.44-2.82-4.44Z"/>
    <path class="cls-1" d="M5.5,21.9c-.16-.04-.32-.07-.49-.07-1.1,0-1.99.96-1.99,2.14,0,1.02.66,1.86,1.54,2.08v-1.02c0-.28.22-.5.5-.5s.5.22.5.5v.99c.44-.14.82-.45,1.09-.86-.62-.85-1.04-1.99-1.15-3.27Z"/>
    <path class="cls-1" d="M28.33,13.97c-.77-.74-1.23-1.78-1.35-2.91-.02-.22-.06-.45-.12-.67-.41-1.68-1.67-2.96-3.19-3.23-.21-.04-.42-.06-.63-.06-2.19,0-3.97,2.01-3.97,4.49,0,.14,0,.29.02.43.09,1.06-.29,2.08-1,2.79-1.24,1.23-1.98,3.1-1.82,5.16.23,2.93,2.36,5.29,4.94,5.51.14.01.27.02.41.02.34,0,.66-.04.98-.11v-3.11l-1.71-1.72c-.19-.2-.19-.51,0-.71.2-.19.51-.19.71,0l1,1.01v-4.93c0-.28.22-.5.5-.5s.5.22.5.5v1.27l.11-.11c.19-.2.51-.2.71,0,.2.19.2.51,0,.71l-.82.82v3.45h0v2.99c.75-.34,1.42-.85,1.96-1.51.4-.49.89-.86,1.44-1.09,1.69-.7,2.89-2.53,2.89-4.68,0-1.53-.61-2.9-1.56-3.81Z"/>
    <path class="cls-1" d="M13.37,5.37c.14.07.27.16.38.26-.12-.1-.25-.19-.38-.26Z"/>
    <path d="M9.29,15.79c-2.02,0-3.67,2.24-3.81,5.07-.15-.03-.31-.04-.47-.04-1.65,0-2.99,1.41-2.99,3.14,0,1.57,1.11,2.87,2.54,3.1v2.25c0,.28.22.5.5.5s.5-.22.5-.5v-2.26c.71-.14,1.34-.54,1.79-1.13.43.36.92.61,1.44.71v2.68c0,.28.22.5.5.5s.5-.22.5-.5v-2.68c1.87-.35,3.32-2.63,3.32-5.39,0-3-1.71-5.44-3.82-5.44ZM5.57,26.03v-.99c0-.28-.22-.5-.5-.5s-.5.22-.5.5v1.02c-.88-.22-1.54-1.07-1.54-2.08,0-1.18.89-2.14,1.99-2.14.17,0,.33.03.49.07.11,1.28.53,2.42,1.15,3.27-.26.42-.64.72-1.09.86ZM9.79,25.6v-4.79c0-.28-.22-.5-.5-.5s-.5.22-.5.5v1.44l-.57-.5c-.21-.18-.52-.16-.71.05s-.16.52.05.71l1.23,1.06v2.02c-1.3-.39-2.32-2.22-2.32-4.36,0-2.41,1.29-4.44,2.82-4.44s2.82,2.04,2.82,4.44c0,2.14-1.02,3.98-2.32,4.36Z"/>
    <path class="cls-2" d="M11.57,5.37c.27-.14.56-.24.88-.24s.65.09.92.24c.14.07.27.16.38.26.35.31.58.74.63,1.23h0c.11-.03.23-.04.35-.04h0c.19,0,.38.03.55.1.17.06.33.16.47.27.27.23.47.55.54.92h-3.12c-.46-.99-1.27-1.77-2.27-2.21h0c.18-.23.41-.41.67-.54ZM2.89,10.24c.23-.31.51-.57.83-.78.16-.1.33-.19.51-.27.36-.15.75-.23,1.17-.23.12,0,.23,0,.34.02h0c.17-.54.46-1.02.84-1.41.13-.13.26-.25.41-.36.15-.11.3-.21.46-.29.22-.12.46-.2.7-.27,0,0,0,0,0,0,.3-.08.61-.14.94-.14.25,0,.49.03.72.08,0,0,0,0,0,0,1.46.31,2.59,1.52,2.76,3.03.2-.04.41-.07.62-.07,1.39,0,2.54,1,2.79,2.32H2.29c.04-.61.26-1.17.6-1.63Z"/>
    <path d="M29.02,13.24c-.58-.55-.95-1.37-1.05-2.3-.03-.27-.08-.54-.14-.8-.51-2.08-2.07-3.64-3.99-3.98-.27-.05-.54-.07-.8-.07-2.74,0-4.97,2.46-4.97,5.49,0,.17,0,.34.02.51.06.76-.19,1.48-.71,1.99-1.52,1.51-2.29,3.67-2.11,5.95.27,3.41,2.79,6.17,5.86,6.43.17.01.33.02.49.02.33,0,.66-.04.98-.09v2.71c0,.28.22.5.5.5s.5-.22.5-.5v-2.97c1.04-.38,1.98-1.05,2.73-1.96.3-.37.65-.63,1.04-.8,2.1-.87,3.51-3.12,3.51-5.6,0-1.74-.68-3.4-1.87-4.53ZM27,22.46c-.55.23-1.04.6-1.44,1.09-.54.66-1.21,1.17-1.96,1.51v-2.99h0v-3.45l.82-.82c.19-.2.19-.51,0-.71-.2-.19-.51-.19-.71,0l-.11.11v-1.27c0-.28-.22-.5-.5-.5s-.5.22-.5.5v4.93l-1-1.01c-.19-.2-.51-.2-.71,0-.2.19-.2.51,0,.71l1.71,1.72v3.11c-.32.07-.64.11-.98.11-.14,0-.27,0-.41-.02-2.59-.22-4.71-2.58-4.94-5.51-.16-2.06.57-3.92,1.82-5.16.71-.7,1.09-1.72,1-2.79-.01-.14-.02-.28-.02-.43,0-2.48,1.78-4.49,3.97-4.49.21,0,.42.02.63.06,1.52.27,2.78,1.55,3.19,3.23.06.23.09.45.12.67.12,1.13.58,2.18,1.35,2.91.96.91,1.56,2.28,1.56,3.81,0,2.15-1.2,3.98-2.89,4.68Z"/>
  </g>
  <path d="M30.06,30.14H2.13c-.28,0-.5-.22-.5-.5s.22-.5.5-.5h27.93c.28,0,.5.22.5.5s-.22.5-.5.5Z"/>
</svg>