<?xml version="1.0" encoding="UTF-8"?>
<svg id="Layer_1" data-name="Layer 1" xmlns="http://www.w3.org/2000/svg" viewBox="0 0 32 32">
  <defs>
    <style>
      .cls-1 {
        fill: none;
      }

      .cls-2 {
        fill: #0328d1;
      }
    </style>
  </defs>
  <polygon class="cls-1" points="19.29 12.04 11.5 10.81 16.08 15.38 19.29 12.04"/>
  <polygon class="cls-1" points="19.97 12.77 16.79 16.09 21.19 20.5 19.97 12.77"/>
  <polygon class="cls-1" points="9.91 9.21 11.85 3.77 4.47 3.77 9.91 9.21"/>
  <polygon class="cls-1" points="22.37 21.52 22.4 21.7 22.45 21.75 22.37 21.52"/>
  <polygon class="cls-1" points="22.84 22.14 28.23 27.53 28.23 20.22 22.84 22.14"/>
  <polygon class="cls-1" points="10.8 9.68 19.41 11.04 12.71 4.34 10.8 9.68"/>
  <polygon class="cls-1" points="20.96 12.59 22.33 21.26 27.71 19.35 20.96 12.59"/>
  <polygon class="cls-2" points="9.84 12.64 5.89 25.46 14.33 17.13 9.85 12.65 9.84 12.64"/>
  <polygon class="cls-2" points="6.74 26.03 19.41 22.21 15.04 17.84 6.74 26.03"/>
  <polygon class="cls-2" points="5.07 24.75 9.04 11.84 5.07 7.87 5.07 24.75"/>
  <polygon class="cls-2" points="24.28 27.08 20.21 23.01 6.71 27.08 24.28 27.08"/>
  <path d="M12.55,2.77H2.77v26.45h26.46v-9.78L12.55,2.77ZM21.01,21.72l.34.34,6.16,6.16H3.77V4.49l5.97,5.97.59.59,5.05,5.05M11.5,10.81l7.79,1.23-3.21,3.35-4.58-4.58ZM19.97,12.77l1.22,7.72-4.4-4.4,3.18-3.32ZM22.4,21.7l-.03-.18.08.24-.06-.06ZM20.96,12.59l6.76,6.76-5.38,1.92-1.37-8.68ZM10.8,9.68l1.9-5.34,6.7,6.7-8.61-1.36ZM9.91,9.21L4.47,3.77h7.38l-1.94,5.44ZM22.84,22.14l5.39-1.92v7.31l-5.39-5.39Z"/>
</svg>