<?xml version="1.0" encoding="UTF-8"?>
<svg id="Layer_1" data-name="Layer 1" xmlns="http://www.w3.org/2000/svg" viewBox="0 0 32 32">
  <defs>
    <style>
      .cls-1 {
        fill: #0328d1;
      }
    </style>
  </defs>
  <path d="M15.65,19.68c0-3.57,2.68-6.47,5.99-6.47h-2.4c-3.31,0-5.99,2.9-5.99,6.47s2.68,6.47,5.99,6.47h2.4c-3.31,0-5.99-2.9-5.99-6.47Z"/>
  <path d="M21.52,26.65h-2.4c-3.58,0-6.49-3.13-6.49-6.97s2.91-6.97,6.49-6.97h2.4v1h-2.4c-3.03,0-5.49,2.68-5.49,5.97s2.46,5.97,5.49,5.97h2.4v1Z"/>
  <path d="M21.52,26.65c-3.58,0-6.49-3.13-6.49-6.97s2.91-6.97,6.49-6.97,6.49,3.13,6.49,6.97-2.91,6.97-6.49,6.97ZM21.52,13.71c-3.03,0-5.49,2.68-5.49,5.97s2.46,5.97,5.49,5.97,5.49-2.68,5.49-5.97-2.46-5.97-5.49-5.97Z"/>
  <path d="M8.04,10.36c0-3.57,2.68-6.47,5.99-6.47h-2.4c-3.31,0-5.99,2.9-5.99,6.47s2.68,6.47,5.99,6.47h2.4c-3.31,0-5.99-2.9-5.99-6.47Z"/>
  <path d="M14.03,17.43h-2.4c-3.58,0-6.49-3.13-6.49-6.97s2.91-6.97,6.49-6.97h2.4v1h-2.4c-3.03,0-5.49,2.68-5.49,5.97s2.46,5.97,5.49,5.97h2.4v1Z"/>
  <path d="M14.03,17.43c-3.58,0-6.49-3.13-6.49-6.97s2.91-6.97,6.49-6.97,6.49,3.13,6.49,6.97c0,.99-.19,1.95-.56,2.85l-.92-.39c.32-.77.49-1.6.49-2.46,0-3.29-2.46-5.97-5.49-5.97s-5.49,2.68-5.49,5.97,2.46,5.97,5.49,5.97v1Z"/>
  <path class="cls-1" d="M14.12,13.48c-1.4,0-2.54-1.5-2.54-3.35s1.14-3.35,2.54-3.35c1.05,0,1.98.82,2.36,2.1.08.26-.07.54-.33.62-.26.08-.54-.07-.62-.33-.25-.83-.82-1.39-1.4-1.39-.84,0-1.54,1.08-1.54,2.35s.71,2.35,1.54,2.35c.52,0,1.02-.43,1.31-1.12.11-.26.4-.38.65-.27.25.11.38.4.27.65-.44,1.07-1.3,1.73-2.23,1.73Z"/>
  <path class="cls-1" d="M13.3,9.99h-2.19c-.28,0-.5-.22-.5-.5s.22-.5.5-.5h2.19c.28,0,.5.22.5.5s-.22.5-.5.5Z"/>
  <path class="cls-1" d="M13.3,11.74h-2.19c-.28,0-.5-.22-.5-.5s.22-.5.5-.5h2.19c.28,0,.5.22.5.5s-.22.5-.5.5Z"/>
  <path class="cls-1" d="M28.62,12.14l-2.85-.95c.16-.48.22-.98.18-1.49-.16-2.08-1.99-3.64-4.07-3.48-.28.02-.55.07-.82.15l-.88-2.87c.47-.14.96-.24,1.46-.28,3.73-.29,7,2.51,7.29,6.24.07.91-.04,1.81-.33,2.67Z"/>
  <polygon class="cls-1" points="27.27 13.86 24.04 10.13 30.99 10.63 27.27 13.86"/>
  <path class="cls-1" d="M10.69,27.25c-1.42,0-2.8-.45-3.97-1.29-1.47-1.06-2.43-2.64-2.72-4.43-.14-.9-.11-1.81.11-2.69l2.91.72c-.12.49-.14,1-.06,1.5.16,1,.7,1.88,1.52,2.47s1.82.83,2.82.67c.28-.04.55-.12.8-.22l1.1,2.79c-.46.18-.94.31-1.43.39-.36.06-.72.09-1.08.09Z"/>
  <polygon class="cls-1" points="5.34 17.01 8.85 20.47 1.88 20.52 5.34 17.01"/>
  <path class="cls-1" d="M24.3,21.01c0,1.03-.84,1.87-1.87,1.87h-.27v.53c0,.29-.24.53-.53.53s-.53-.24-.53-.53v-.53h-1.07c-.29,0-.53-.24-.53-.53s.24-.53.53-.53h2.4c.44,0,.8-.36.8-.8s-.36-.8-.8-.8h-1.6c-1.03,0-1.87-.84-1.87-1.87s.84-1.87,1.87-1.87h.27v-.53c0-.29.24-.53.53-.53s.53.24.53.53v.53h1.07c.29,0,.53.24.53.53s-.24.53-.53.53h-2.4c-.44,0-.8.36-.8.8s.36.8.8.8h1.6c1.03,0,1.87.84,1.87,1.87Z"/>
</svg>