<?xml version="1.0" encoding="UTF-8"?>
<svg id="Layer_1" data-name="Layer 1" xmlns="http://www.w3.org/2000/svg" viewBox="0 0 32 32">
  <defs>
    <style>
      .cls-1 {
        fill: none;
      }

      .cls-2 {
        fill: #0328d1;
      }
    </style>
  </defs>
  <path class="cls-1" d="M25.09,16.66c0,5.3-4.31,9.62-9.62,9.62s-9.61-4.31-9.61-9.62S10.17,7.05,15.47,7.05c2.25,0,4.31.78,5.95,2.08l.81-.92c-1.86-1.49-4.21-2.38-6.77-2.38-5.98,0-10.84,4.86-10.84,10.84s4.86,10.84,10.84,10.84,10.84-4.86,10.84-10.84c0-2.72-1.01-5.2-2.68-7.11l-.82.92c1.41,1.67,2.27,3.83,2.27,6.19Z"/>
  <path class="cls-1" d="M22.96,16.66c0,4.13-3.36,7.49-7.49,7.49s-7.49-3.36-7.49-7.49,3.36-7.49,7.49-7.49c1.71,0,3.28.58,4.54,1.54l.75-.84c-1.46-1.14-3.29-1.83-5.29-1.83-4.75,0-8.61,3.86-8.61,8.62s3.86,8.62,8.61,8.62,8.62-3.87,8.62-8.62c0-2.06-.73-3.95-1.94-5.43l-.76.86c.98,1.27,1.58,2.85,1.58,4.58Z"/>
  <path class="cls-1" d="M18.7,14.86c-.12,0-.24-.04-.33-.13-.15-.13-.19-.32-.15-.5l-.29.33c.49.57.79,1.3.79,2.1,0,1.8-1.46,3.25-3.25,3.25s-3.25-1.46-3.25-3.25,1.46-3.25,3.25-3.25c.63,0,1.21.19,1.7.49l.76-.85c-.7-.48-1.55-.76-2.46-.76-2.41,0-4.37,1.96-4.37,4.37s1.96,4.37,4.37,4.37,4.37-1.96,4.37-4.37c0-.79-.23-1.52-.6-2.17l-.17.19c-.1.11-.24.17-.37.17Z"/>
  <path class="cls-1" d="M20.84,16.66c0,2.96-2.41,5.37-5.37,5.37s-5.37-2.41-5.37-5.37,2.41-5.37,5.37-5.37c1.17,0,2.24.38,3.12,1.02l.75-.85c-1.08-.81-2.42-1.29-3.87-1.29-3.58,0-6.49,2.91-6.49,6.49s2.91,6.49,6.49,6.49,6.49-2.91,6.49-6.49c0-1.43-.47-2.74-1.25-3.82l-.76.86c.56.85.89,1.86.89,2.96Z"/>
  <polygon points="24.59 8.58 26.58 9.04 28.78 6.52 26.79 6.05 24.59 8.58"/>
  <path d="M23.64,9.56c1.66,1.91,2.68,4.39,2.68,7.11,0,5.98-4.86,10.84-10.84,10.84s-10.84-4.86-10.84-10.84S9.5,5.83,15.47,5.83c2.56,0,4.91.9,6.77,2.38l-.81.92c-1.64-1.3-3.7-2.08-5.95-2.08-5.3,0-9.61,4.31-9.61,9.62s4.31,9.62,9.61,9.62,9.62-4.31,9.62-9.62c0-2.36-.86-4.52-2.27-6.19l-.67.75c1.21,1.48,1.94,3.38,1.94,5.43,0,4.75-3.86,8.62-8.62,8.62s-8.61-3.87-8.61-8.62,3.86-8.62,8.61-8.62c1.99,0,3.82.69,5.29,1.83l-.75.84c-1.26-.96-2.83-1.54-4.54-1.54-4.13,0-7.49,3.36-7.49,7.49s3.36,7.49,7.49,7.49,7.49-3.36,7.49-7.49c0-1.73-.59-3.31-1.58-4.58l-.68.76c.78,1.07,1.25,2.39,1.25,3.82,0,3.58-2.91,6.49-6.49,6.49s-6.49-2.91-6.49-6.49,2.91-6.49,6.49-6.49c1.45,0,2.79.49,3.87,1.29l-.75.85c-.88-.63-1.95-1.02-3.12-1.02-2.96,0-5.37,2.41-5.37,5.37s2.41,5.37,5.37,5.37,5.37-2.41,5.37-5.37c0-1.09-.33-2.11-.89-2.96l-.7.79c.37.64.6,1.37.6,2.17,0,2.41-1.96,4.37-4.37,4.37s-4.37-1.96-4.37-4.37,1.96-4.37,4.37-4.37c.91,0,1.76.28,2.46.76l-.76.85-2.08,2.34c-.18.21-.17.52.04.71.1.08.21.13.33.13.14,0,.27-.06.37-.17l2.09-2.35.29-.33,7.93-8.93c.05-.06.09-.13.1-.21.05-.18,0-.37-.15-.5-.21-.18-.52-.17-.71.04l-.28.32-.79-2.13-2.25,2.48.79,2.13c-2.03-1.63-4.6-2.61-7.4-2.61-6.53,0-11.84,5.31-11.84,11.84s5.31,11.84,11.84,11.84,11.84-5.31,11.84-11.84c0-3.02-1.14-5.77-3.01-7.86l-.67.75Z"/>
  <path class="cls-2" d="M12.22,16.66c0,1.8,1.46,3.25,3.25,3.25s3.25-1.46,3.25-3.25c0-.81-.3-1.54-.79-2.1l-2.09,2.35c-.1.11-.24.17-.37.17-.12,0-.24-.04-.33-.13-.21-.18-.23-.5-.04-.71l2.08-2.34c-.5-.31-1.08-.49-1.7-.49-1.8,0-3.25,1.46-3.25,3.25Z"/>
</svg>