<?xml version="1.0" encoding="UTF-8"?>
<svg id="Layer_1" data-name="Layer 1" xmlns="http://www.w3.org/2000/svg" viewBox="0 0 32 32">
  <defs>
    <style>
      .cls-1 {
        fill: #0328d1;
      }
    </style>
  </defs>
  <g>
    <path d="M28.99,30.01H3.71c-.87,0-1.58-.71-1.58-1.58v-14.29c0-.51.25-.99.66-1.28l6.9-4.94c.23-.16.54-.11.7.11.16.22.11.54-.11.7l-6.9,4.94c-.15.11-.24.28-.24.47v14.29c0,.32.26.58.58.58h25.28c.32,0,.58-.26.58-.58v-14.29c0-.19-.09-.36-.24-.47l-7.15-5.13c-.22-.16-.28-.47-.11-.7.16-.22.47-.28.7-.11l7.15,5.13c.41.3.66.77.66,1.28v14.29c0,.87-.71,1.58-1.58,1.58Z"/>
    <path d="M3.47,29.5c-.17,0-.34-.09-.43-.25-.14-.24-.06-.54.18-.68l26.45-15.24c.24-.14.54-.06.68.18.14.24.06.54-.18.68L3.72,29.43c-.08.05-.16.07-.25.07Z"/>
    <path d="M16.27,22.08c-.08,0-.17-.02-.25-.07L2.44,14.19c-.24-.14-.32-.44-.18-.68.14-.24.44-.32.68-.18l13.58,7.82c.24.14.32.44.18.68-.09.16-.26.25-.43.25Z"/>
  </g>
  <polygon points="22.71 18.36 21.71 18.36 21.71 3.44 10.82 3.44 10.82 18.15 9.82 18.15 9.82 2.44 22.71 2.44 22.71 18.36"/>
  <ellipse class="cls-1" cx="16.23" cy="14.67" rx="2.8" ry="4.63"/>
  <circle cx="16.23" cy="7.74" r=".84"/>
  <g>
    <path d="M9.89,4.15c0,1.18.96,2.14,2.14,2.14s2.14-.96,2.14-2.14c0-.45-.14-.87-.38-1.21h-3.54c-.24.34-.38.76-.38,1.21Z"/>
    <path d="M18.28,4.15c0,1.18.96,2.14,2.14,2.14s2.14-.96,2.14-2.14c0-.45-.14-.87-.38-1.21h-3.54c-.24.34-.38.76-.38,1.21Z"/>
  </g>
</svg>