<?xml version="1.0" encoding="UTF-8"?>
<svg id="Layer_1" data-name="Layer 1" xmlns="http://www.w3.org/2000/svg" viewBox="0 0 32 32">
  <defs>
    <style>
      .cls-1 {
        fill: none;
      }

      .cls-2 {
        fill: #0328d1;
      }
    </style>
  </defs>
  <path class="cls-1" d="M29.16,11.1l-13.14-6.75L2.84,11.1h26.33ZM16,6c1.2,0,2.18.97,2.18,2.16s-.98,2.16-2.18,2.16-2.18-.97-2.18-2.16.98-2.16,2.18-2.16Z"/>
  <polygon class="cls-1" points="23.96 16.41 22.84 16.41 22.84 14.42 18.85 14.42 18.85 16.41 17.73 16.41 17.73 24.2 23.96 24.2 23.96 16.41"/>
  <polygon class="cls-1" points="13.15 13.42 18.85 13.42 22.84 13.42 28.55 13.42 29.76 13.42 29.76 12.1 2.24 12.1 2.24 13.42 3.45 13.42 9.16 13.42 13.15 13.42"/>
  <polygon class="cls-1" points="14.27 24.2 14.27 16.41 13.15 16.41 13.15 14.42 9.16 14.42 9.16 16.41 8.04 16.41 8.04 24.2 14.27 24.2"/>
  <rect class="cls-1" x="15.27" y="16.41" width="1.47" height="7.79"/>
  <rect class="cls-1" x="24.96" y="16.41" width="1.47" height="7.79"/>
  <polygon class="cls-1" points="17.73 25.2 14.27 25.2 8.04 25.2 4.57 25.2 3.6 25.2 3.6 26.55 28.4 26.55 28.4 25.2 27.43 25.2 23.96 25.2 17.73 25.2"/>
  <rect class="cls-1" x="5.57" y="16.41" width="1.47" height="7.79"/>
  <ellipse class="cls-2" cx="16" cy="8.16" rx="2.18" ry="2.16"/>
  <path d="M28.55,16.41v-1.99h2.21v-2.82h0v-.8l-14.74-7.57L1.24,10.8v.8h0v2.82h2.21v1.99h1.12v7.79h-1.97v2.34h-1.37v2.56h1v-1.56h27.53v1.56h1v-2.56h-1.36v-2.34h-1.97v-7.79h1.12ZM9.16,16.41v-1.99h3.99v1.99h1.12v7.79h-6.23v-7.79h1.12ZM15.27,16.41h1.47v7.79h-1.47v-7.79ZM17.73,16.41h1.12v-1.99h3.99v1.99h1.12v7.79h-6.23v-7.79ZM29.16,11.1H2.84l13.19-6.75,13.14,6.75ZM2.24,13.42v-1.32h27.53v1.32H2.24ZM5.57,16.41h1.47v7.79h-1.47v-7.79ZM28.4,25.2v1.34H3.6v-1.34h24.8ZM26.43,24.2h-1.47v-7.79h1.47v7.79Z"/>
</svg>