<?xml version="1.0" encoding="UTF-8"?>
<svg id="Layer_1" data-name="Layer 1" xmlns="http://www.w3.org/2000/svg" viewBox="0 0 32 32">
  <defs>
    <style>
      .cls-1 {
        fill: #0328d1;
      }
    </style>
  </defs>
  <rect x="7.37" y="27.52" width="1" height="2.18"/>
  <polygon points="8.37 26.01 7.37 26.01 7.37 9.05 3.04 9.05 11.01 1.75 18.97 9.05 14.65 9.05 14.65 15.32 13.65 15.32 13.65 8.05 16.4 8.05 11.01 3.11 5.61 8.05 8.37 8.05 8.37 26.01"/>
  <rect x="19.83" y="26.74" width="1" height="1.76"/>
  <polygon points="20.83 25.52 19.83 25.52 19.83 15.13 16.4 15.13 22.68 9.38 28.96 15.13 25.53 15.13 25.53 18.06 24.53 18.06 24.53 14.13 26.38 14.13 22.68 10.74 18.97 14.13 20.83 14.13 20.83 25.52"/>
  <rect x="24.53" y="19.42" width="1" height="2.11"/>
  <rect x="24.53" y="22.31" width="1" height=".82"/>
  <path class="cls-1" d="M17.68,24.51c0,1.39-1.12,2.51-2.51,2.51h-.36v.72c0,.4-.32.72-.72.72s-.72-.32-.72-.72v-.72h-1.44c-.4,0-.72-.32-.72-.72s.32-.72.72-.72h3.23c.59,0,1.08-.48,1.08-1.08s-.48-1.08-1.08-1.08h-2.15c-1.39,0-2.51-1.12-2.51-2.51s1.12-2.51,2.51-2.51h.36v-.72c0-.4.32-.72.72-.72s.72.32.72.72v.72h1.44c.4,0,.72.32.72.72s-.32.72-.72.72h-3.23c-.59,0-1.08.48-1.08,1.08s.48,1.08,1.08,1.08h2.15c1.39,0,2.51,1.12,2.51,2.51Z"/>
</svg>