<?xml version="1.0" encoding="UTF-8"?>
<svg id="Layer_1" data-name="Layer 1" xmlns="http://www.w3.org/2000/svg" viewBox="0 0 32 32">
  <defs>
    <style>
      .cls-1 {
        fill: none;
      }

      .cls-2 {
        fill: #0328d1;
      }
    </style>
  </defs>
  <g>
    <path class="cls-1" d="M15.55,5.98c-5.28,0-9.58,3.96-9.58,8.83s4.3,8.83,9.58,8.83,9.58-3.96,9.58-8.83-4.3-8.83-9.58-8.83Z"/>
    <path d="M15.55,4.02c-6.28,0-11.38,4.76-11.38,10.6v2.63c0,3.34,1.67,6.31,4.26,8.26,1.95,1.46,4.43,2.35,7.12,2.35,3.18,0,6.06-1.23,8.13-3.19,2.01-1.91,3.25-4.53,3.25-7.41v-2.63c0-5.85-5.11-10.6-11.38-10.6ZM15.55,23.64c-5.28,0-9.58-3.96-9.58-8.83S10.27,5.98,15.55,5.98s9.58,3.96,9.58,8.83-4.3,8.83-9.58,8.83Z"/>
  </g>
  <path class="cls-2" d="M18.13,18.84c-.23-.34-.69-.43-1.04-.2-.31.21-.67.32-1.05.32-1.04,0-1.88-.84-1.88-1.88v-.86h1.78v-.91h-1.78v-1h1.78v-.92h-1.78v-.76c0-1.04.84-1.88,1.88-1.88.38,0,.74.11,1.05.32.34.23.8.14,1.04-.2.23-.34.14-.8-.2-1.04-.56-.38-1.21-.58-1.89-.58-1.86,0-3.37,1.51-3.37,3.37v.76h-1.44v.92h1.44v1h-1.44v.91h1.44v.86c0,1.86,1.51,3.37,3.37,3.37.68,0,1.33-.2,1.89-.58.34-.23.43-.69.2-1.04Z"/>
</svg>