<?xml version="1.0" encoding="UTF-8"?>
<svg id="Layer_1" data-name="Layer 1" xmlns="http://www.w3.org/2000/svg" viewBox="0 0 32 32">
  <defs>
    <style>
      .cls-1 {
        fill: none;
      }

      .cls-2 {
        fill: #0328d1;
      }
    </style>
  </defs>
  <path class="cls-1" d="M1.85,10.87v-1h28.43v-1.14c0-1.14-.93-2.07-2.07-2.07H3.91c-1.14,0-2.07.93-2.07,2.07v14.03c0,1.14.93,2.07,2.07,2.07h24.3c1.14,0,2.07-.93,2.07-2.07v-11.89H1.85ZM7.59,24.01l-1.21-1.21-3.65-3.65h4.87v4.87ZM22.1,22.46h-6.01c-.28,0-.5-.22-.5-.5s.22-.5.5-.5h6.01c.28,0,.5.22.5.5s-.22.5-.5.5ZM27.38,22.46h-2.76c-.28,0-.5-.22-.5-.5s.22-.5.5-.5h2.76c.28,0,.5.22.5.5s-.22.5-.5.5Z"/>
  <polygon class="cls-2" points="6.38 22.8 7.59 24.01 7.59 19.15 2.73 19.15 6.38 22.8"/>
  <path d="M28.21,5.66H3.91c-1.69,0-3.07,1.38-3.07,3.07v14.03c0,1.69,1.38,3.07,3.07,3.07h24.3c1.69,0,3.07-1.38,3.07-3.07v-14.03c0-1.69-1.38-3.07-3.07-3.07ZM28.21,24.83H3.91c-1.14,0-2.07-.93-2.07-2.07v-14.03c0-1.14.93-2.07,2.07-2.07h24.3c1.14,0,2.07.93,2.07,2.07v1.14H1.85v1h28.43v11.89c0,1.14-.93,2.07-2.07,2.07Z"/>
  <path d="M22.1,21.46h-6.01c-.28,0-.5.22-.5.5s.22.5.5.5h6.01c.28,0,.5-.22.5-.5s-.22-.5-.5-.5Z"/>
  <path d="M27.38,21.46h-2.76c-.28,0-.5.22-.5.5s.22.5.5.5h2.76c.28,0,.5-.22.5-.5s-.22-.5-.5-.5Z"/>
</svg>