<?xml version="1.0" encoding="UTF-8"?>
<svg id="Layer_1" data-name="Layer 1" xmlns="http://www.w3.org/2000/svg" viewBox="0 0 32 32">
  <defs>
    <style>
      .cls-1 {
        fill: #0328d1;
      }
    </style>
  </defs>
  <polygon class="cls-1" points="28.11 23.74 28.11 16.67 22.22 16.67 22.22 23.74 18.76 23.74 25.17 30.15 31.58 23.74 28.11 23.74"/>
  <path d="M20.11,10.33h-6.23v11.09h6.23v-11.09ZM19.11,20.43h-4.23v-9.09h4.23v9.09Z"/>
  <path d="M11.95,2.83h-6.23v18.59h6.23V2.83ZM10.95,20.43h-4.23V3.83h4.23v16.59Z"/>
  <path d="M16.99,23.81H3.51V4.18c0-.28-.22-.5-.5-.5s-.5.22-.5.5v20.13c0,.28.22.5.5.5h13.98c.28,0,.5-.22.5-.5s-.22-.5-.5-.5Z"/>
</svg>