<?xml version="1.0" encoding="UTF-8"?>
<svg id="Layer_1" data-name="Layer 1" xmlns="http://www.w3.org/2000/svg" viewBox="0 0 32 32">
  <defs>
    <style>
      .cls-1 {
        fill: none;
      }

      .cls-2 {
        fill: #0328d1;
      }
    </style>
  </defs>
  <g>
    <path class="cls-1" d="M15.55,5.98c-5.28,0-9.58,3.96-9.58,8.83s4.3,8.83,9.58,8.83,9.58-3.96,9.58-8.83-4.3-8.83-9.58-8.83Z"/>
    <path d="M15.55,4.02c-6.28,0-11.38,4.76-11.38,10.6v2.63c0,3.34,1.67,6.31,4.26,8.26,1.95,1.46,4.43,2.35,7.12,2.35,3.18,0,6.06-1.23,8.13-3.19,2.01-1.91,3.25-4.53,3.25-7.41v-2.63c0-5.85-5.11-10.6-11.38-10.6ZM15.55,23.64c-5.28,0-9.58-3.96-9.58-8.83S10.27,5.98,15.55,5.98s9.58,3.96,9.58,8.83-4.3,8.83-9.58,8.83Z"/>
  </g>
  <path class="cls-2" d="M18.08,18.97h-4.16c.09-.16.17-.33.23-.54.12-.42.19-.88.19-1.36l-.05-1.72h1.37c.34,0,.61-.27.61-.61s-.27-.61-.61-.61h-1.41l-.06-2.01c0-.47.06-.86.19-1.18.13-.32.3-.57.52-.74.22-.17.46-.25.72-.25s.48.06.7.18c.22.12.4.31.54.57.07.13.12.29.15.46.07.33.34.59.68.59h.05c.43,0,.76-.4.67-.82-.05-.27-.14-.53-.25-.76-.22-.45-.53-.81-.94-1.06-.41-.25-.9-.38-1.48-.38s-1.07.13-1.53.4-.81.66-1.07,1.16c-.26.5-.39,1.11-.39,1.83l.06,2.01h-.38c-.34,0-.61.27-.61.61s.27.61.61.61h.41l.05,1.72c0,.23-.02.48-.05.76-.04.28-.1.53-.19.74-.09.22-.21.35-.36.39l.06.02c-.29.05-.51.29-.51.59,0,.34.27.61.61.61h5.61c.34,0,.61-.27.61-.61,0-.34-.27-.61-.61-.61Z"/>
</svg>