<?xml version="1.0" encoding="UTF-8"?>
<svg id="Layer_1" data-name="Layer 1" xmlns="http://www.w3.org/2000/svg" viewBox="0 0 32 32">
  <defs>
    <style>
      .cls-1 {
        fill: #0328d1;
      }
    </style>
  </defs>
  <path class="cls-1" d="M22.26,11.2c0,1.39-1.12,2.51-2.51,2.51h-.36v.72c0,.4-.32.72-.72.72s-.72-.32-.72-.72v-.72h-1.44c-.4,0-.72-.32-.72-.72s.32-.72.72-.72h3.23c.59,0,1.08-.48,1.08-1.08s-.48-1.08-1.08-1.08h-2.15c-1.39,0-2.51-1.12-2.51-2.51s1.12-2.51,2.51-2.51h.36v-.72c0-.4.32-.72.72-.72s.72.32.72.72v.72h1.44c.4,0,.72.32.72.72s-.32.72-.72.72h-3.23c-.59,0-1.08.48-1.08,1.08s.48,1.08,1.08,1.08h2.15c1.39,0,2.51,1.12,2.51,2.51Z"/>
  <rect x="24.4" y="2.43" width="1" height="2.18"/>
  <polygon points="21.76 30.38 13.8 23.08 18.12 23.08 18.12 16.81 19.12 16.81 19.12 24.08 16.37 24.08 21.76 29.02 27.15 24.08 24.4 24.08 24.4 6.12 25.4 6.12 25.4 23.08 29.72 23.08 21.76 30.38"/>
  <rect x="11.94" y="3.62" width="1" height="1.76"/>
  <polygon points="10.09 22.75 3.81 17 7.24 17 7.24 14.06 8.24 14.06 8.24 18 6.38 18 10.09 21.39 13.8 18 11.94 18 11.94 6.61 12.94 6.61 12.94 17 16.37 17 10.09 22.75"/>
  <rect x="7.24" y="10.59" width="1" height="2.11"/>
  <rect x="7.24" y="9" width="1" height=".82"/>
</svg>