<?xml version="1.0" encoding="UTF-8"?>
<svg id="Layer_1" data-name="Layer 1" xmlns="http://www.w3.org/2000/svg" viewBox="0 0 32 32">
  <defs>
    <style>
      .cls-1 {
        fill: #0328d1;
      }
    </style>
  </defs>
  <g>
    <g>
      <path d="M9.88,10.08c-3.34,0-6.9-1.08-6.9-3.09s3.56-3.09,6.9-3.09,6.9,1.08,6.9,3.09-3.56,3.09-6.9,3.09ZM9.88,4.9c-3.38,0-5.9,1.1-5.9,2.09s2.52,2.09,5.9,2.09,5.9-1.1,5.9-2.09-2.52-2.09-5.9-2.09Z"/>
      <path d="M9.88,13c-3.34,0-6.9-1.08-6.9-3.09,0-.28.22-.5.5-.5s.5.22.5.5c0,.99,2.52,2.09,5.9,2.09s5.9-1.1,5.9-2.09c0-.28.22-.5.5-.5s.5.22.5.5c0,2.01-3.56,3.09-6.9,3.09Z"/>
      <path d="M9.88,16.17c-3.34,0-6.9-1.08-6.9-3.09,0-.28.22-.5.5-.5s.5.22.5.5c0,.99,2.52,2.09,5.9,2.09s5.9-1.1,5.9-2.09c0-.28.22-.5.5-.5s.5.22.5.5c0,2.01-3.56,3.09-6.9,3.09Z"/>
      <path d="M9.88,19.33c-3.34,0-6.9-1.08-6.9-3.09,0-.28.22-.5.5-.5s.5.22.5.5c0,.99,2.52,2.09,5.9,2.09s5.9-1.1,5.9-2.09c0-.28.22-.5.5-.5s.5.22.5.5c0,2.01-3.56,3.09-6.9,3.09Z"/>
      <path d="M9.88,22.5c-3.34,0-6.9-1.08-6.9-3.09,0-.28.22-.5.5-.5s.5.22.5.5c0,.99,2.52,2.09,5.9,2.09s5.9-1.1,5.9-2.09c0-.28.22-.5.5-.5s.5.22.5.5c0,2.01-3.56,3.09-6.9,3.09Z"/>
      <path d="M9.88,25.67c-3.34,0-6.9-1.08-6.9-3.09V7.34c0-.28.22-.5.5-.5s.5.22.5.5v15.24c0,.99,2.52,2.09,5.9,2.09s5.9-1.1,5.9-2.09V7.34c0-.28.22-.5.5-.5s.5.22.5.5v15.24c0,2.01-3.56,3.09-6.9,3.09Z"/>
    </g>
    <g>
      <path d="M25.06,25.55c-3.45,0-6.26-2.81-6.26-6.26s2.81-6.26,6.26-6.26,6.26,2.81,6.26,6.26-2.81,6.26-6.26,6.26ZM25.06,14.02c-2.9,0-5.26,2.36-5.26,5.26s2.36,5.26,5.26,5.26,5.26-2.36,5.26-5.26-2.36-5.26-5.26-5.26Z"/>
      <path d="M24.98,25.61h-2.8c-3.5,0-6.35-2.85-6.35-6.34s2.85-6.34,6.35-6.34h2.8c3.5,0,6.35,2.85,6.35,6.34s-2.85,6.34-6.35,6.34ZM22.18,13.92c-2.95,0-5.35,2.4-5.35,5.34s2.4,5.34,5.35,5.34h2.8c2.95,0,5.35-2.4,5.35-5.34s-2.4-5.34-5.35-5.34h-2.8Z"/>
    </g>
  </g>
  <path class="cls-1" d="M25.43,22.12v.76h-.68v-.76c-.88-.07-1.53-.42-1.98-.89l.55-.76c.33.35.81.66,1.43.76v-1.64c-.87-.22-1.8-.54-1.8-1.65,0-.87.7-1.55,1.8-1.65v-.78h.68v.8c.7.07,1.26.34,1.71.76l-.57.74c-.31-.31-.71-.51-1.14-.59v1.46c.88.24,1.83.57,1.83,1.71,0,.87-.56,1.61-1.83,1.73ZM24.75,18.5v-1.32c-.48.05-.78.31-.78.7,0,.33.33.5.78.63ZM25.43,21.22c.59-.08.82-.42.82-.75,0-.39-.35-.57-.82-.71v1.46Z"/>
  <path class="cls-1" d="M12.36,6.7h.65v.31h-.64c-.06.4-.35.7-.76.9l-.65-.25c.3-.15.56-.37.64-.65h-1.39c-.19.4-.46.82-1.4.82-.74,0-1.32-.32-1.4-.82h-.66v-.31h.68c.06-.32.29-.58.65-.78l.63.26c-.27.14-.43.32-.51.52h1.24c.2-.4.48-.84,1.45-.84.74,0,1.37.26,1.47.84ZM9.28,7.01h-1.13c.04.22.27.36.59.36.28,0,.43-.15.53-.36ZM11.6,6.7c-.07-.27-.36-.38-.64-.38-.33,0-.48.16-.61.38h1.24Z"/>
</svg>