<?xml version="1.0" encoding="UTF-8"?>
<svg id="Layer_1" data-name="Layer 1" xmlns="http://www.w3.org/2000/svg" viewBox="0 0 32 32">
  <defs>
    <style>
      .cls-1 {
        fill: none;
      }

      .cls-2 {
        fill: #0328d1;
      }
    </style>
  </defs>
  <path class="cls-1" d="M22.7,2.92h-13.4c-1.08,0-1.95.87-1.95,1.95v22.26c0,1.08.87,1.95,1.95,1.95h13.4c1.08,0,1.95-.87,1.95-1.95V4.87c0-1.08-.87-1.95-1.95-1.95ZM12.7,24.57c0,.71-.57,1.28-1.28,1.28h-.32c-.71,0-1.28-.57-1.28-1.28v-.32c0-.71.57-1.28,1.28-1.28h.32c.71,0,1.28.57,1.28,1.28v.32ZM12.7,19.66c0,.71-.57,1.28-1.28,1.28h-.32c-.71,0-1.28-.57-1.28-1.28v-.32c0-.71.57-1.28,1.28-1.28h.32c.71,0,1.28.57,1.28,1.28v.32ZM12.7,14.74c0,.71-.57,1.28-1.28,1.28h-.32c-.71,0-1.28-.57-1.28-1.28v-.32c0-.71.57-1.28,1.28-1.28h.32c.71,0,1.28.57,1.28,1.28v.32ZM17.56,24.57c0,.71-.57,1.28-1.28,1.28h-.32c-.71,0-1.28-.57-1.28-1.28v-.32c0-.71.57-1.28,1.28-1.28h.32c.71,0,1.28.57,1.28,1.28v.32ZM17.56,19.66c0,.71-.57,1.28-1.28,1.28h-.32c-.71,0-1.28-.57-1.28-1.28v-.32c0-.71.57-1.28,1.28-1.28h.32c.71,0,1.28.57,1.28,1.28v.32ZM17.56,14.74c0,.71-.57,1.28-1.28,1.28h-.32c-.71,0-1.28-.57-1.28-1.28v-.32c0-.71.57-1.28,1.28-1.28h.32c.71,0,1.28.57,1.28,1.28v.32ZM22.42,24.57c0,.71-.57,1.28-1.28,1.28h-.32c-.71,0-1.28-.57-1.28-1.28v-.32c0-.71.57-1.28,1.28-1.28h.32c.71,0,1.28.57,1.28,1.28v.32ZM22.42,19.66c0,.71-.57,1.28-1.28,1.28h-.32c-.71,0-1.28-.57-1.28-1.28v-.32c0-.71.57-1.28,1.28-1.28h.32c.71,0,1.28.57,1.28,1.28v.32ZM22.42,14.74c0,.71-.57,1.28-1.28,1.28h-.32c-.71,0-1.28-.57-1.28-1.28v-.32c0-.71.57-1.28,1.28-1.28h.32c.71,0,1.28.57,1.28,1.28v.32ZM22.92,10.82h-13.6v-5.82h13.6v5.82Z"/>
  <path d="M22.7,1.92h-13.4c-1.63,0-2.95,1.32-2.95,2.95v22.26c0,1.63,1.32,2.95,2.95,2.95h13.4c1.63,0,2.95-1.32,2.95-2.95V4.87c0-1.63-1.32-2.95-2.95-2.95ZM24.65,27.13c0,1.08-.87,1.95-1.95,1.95h-13.4c-1.08,0-1.95-.87-1.95-1.95V4.87c0-1.08.87-1.95,1.95-1.95h13.4c1.08,0,1.95.87,1.95,1.95v22.26Z"/>
  <rect x="9.82" y="13.14" width="2.88" height="2.88" rx="1.28" ry="1.28"/>
  <rect x="14.67" y="13.14" width="2.88" height="2.88" rx="1.28" ry="1.28"/>
  <rect x="19.53" y="13.14" width="2.88" height="2.88" rx="1.28" ry="1.28"/>
  <path d="M11.1,18.05h.32c.71,0,1.28.57,1.28,1.28v.32c0,.71-.57,1.28-1.28,1.28h-.32c-.71,0-1.28-.57-1.28-1.28v-.32c0-.71.57-1.28,1.28-1.28Z"/>
  <path d="M15.96,18.05h.32c.71,0,1.28.57,1.28,1.28v.32c0,.71-.57,1.28-1.28,1.28h-.32c-.71,0-1.28-.57-1.28-1.28v-.32c0-.71.57-1.28,1.28-1.28Z"/>
  <path d="M20.81,18.05h.32c.71,0,1.28.57,1.28,1.28v.32c0,.71-.57,1.28-1.28,1.28h-.32c-.71,0-1.28-.57-1.28-1.28v-.32c0-.71.57-1.28,1.28-1.28Z"/>
  <rect x="9.82" y="22.97" width="2.88" height="2.88" rx="1.28" ry="1.28"/>
  <rect x="14.67" y="22.97" width="2.88" height="2.88" rx="1.28" ry="1.28"/>
  <rect x="19.53" y="22.97" width="2.88" height="2.88" rx="1.28" ry="1.28"/>
  <path class="cls-2" d="M9.32,10.82h13.6v-5.82h-13.6v5.82ZM21.63,6h.29v3.82h-10.74l10.45-3.82Z"/>
</svg>