<?xml version="1.0" encoding="UTF-8"?>
<svg id="Layer_1" data-name="Layer 1" xmlns="http://www.w3.org/2000/svg" viewBox="0 0 32 32">
  <defs>
    <style>
      .cls-1 {
        fill: #0328d1;
      }
    </style>
  </defs>
  <path d="M15.83,12.16c-.03-.19-.16-.34-.34-.4-.18-.06-.37,0-.51.12l-5.57,5.57c-.2.2-.2.51,0,.71.1.1.23.15.35.15s.26-.05.35-.15l4.88-4.88.44,2.73c.03.19.16.34.34.4.18.06.37.01.51-.12l6.08-6.08v.96c0,.28.22.5.5.5s.5-.22.5-.5v-2.19c0-.28-.22-.5-.5-.5h-2.19c-.28,0-.5.22-.5.5s.22.5.5.5h1l-5.41,5.41-.44-2.73Z"/>
  <rect class="cls-1" x="14.85" y="20.56" width="3.26" height="7.31"/>
  <rect class="cls-1" x="19.95" y="15.55" width="3.26" height="12.32"/>
  <rect class="cls-1" x="9.77" y="24.21" width="3.26" height="3.66"/>
  <polygon points="13.22 1.67 13.22 2.67 25.59 2.67 25.59 29.83 6.89 29.83 6.89 8.98 5.89 8.98 5.89 30.83 26.59 30.83 26.59 1.67 13.22 1.67"/>
  <polygon class="cls-1" points="13.22 1.67 5.91 8.98 13.22 8.98 13.22 1.67"/>
</svg>