<?xml version="1.0" encoding="UTF-8"?>
<svg id="Layer_1" data-name="Layer 1" xmlns="http://www.w3.org/2000/svg" viewBox="0 0 32 32">
  <defs>
    <style>
      .cls-1 {
        fill: none;
      }

      .cls-2 {
        fill: #0328d1;
      }
    </style>
  </defs>
  <path class="cls-1" d="M16,8.38c-4.2,0-7.62,3.42-7.62,7.62s3.42,7.62,7.62,7.62,7.62-3.42,7.62-7.62-3.42-7.62-7.62-7.62ZM16,19.45c-1.91,0-3.45-1.55-3.45-3.45s1.55-3.45,3.45-3.45,3.45,1.55,3.45,3.45-1.55,3.45-3.45,3.45Z"/>
  <path class="cls-1" d="M16,7.38c1.09,0,2.13.21,3.09.58l-1.12-3.9h-3.93l-1.12,3.9c.96-.37,2-.58,3.09-.58Z"/>
  <path class="cls-1" d="M7.38,16c0-1.09.21-2.13.58-3.09l-3.9,1.12v3.93l3.9,1.12c-.37-.96-.58-2-.58-3.09Z"/>
  <path class="cls-1" d="M23.87,12.5l1.97-3.55-2.78-2.78-3.55,1.97c1.94.87,3.5,2.43,4.36,4.36Z"/>
  <path class="cls-1" d="M12.49,8.13l-3.55-1.97-2.78,2.78,1.97,3.55c.87-1.94,2.43-3.5,4.36-4.36Z"/>
  <path class="cls-1" d="M24.62,16c0,1.09-.21,2.13-.58,3.09l3.9-1.12v-3.93l-3.9-1.12c.37.96.58,2,.58,3.09Z"/>
  <path class="cls-1" d="M19.5,23.87l3.55,1.97,2.78-2.78-1.97-3.55c-.87,1.94-2.43,3.5-4.36,4.36Z"/>
  <path class="cls-1" d="M8.13,19.5l-1.97,3.55,2.78,2.78,3.55-1.97c-1.94-.87-3.5-2.43-4.36-4.36Z"/>
  <path class="cls-1" d="M16,24.62c-1.09,0-2.13-.21-3.09-.58l1.12,3.9h3.93l1.12-3.9c-.96.37-2,.58-3.09.58Z"/>
  <path class="cls-2" d="M16,12.55c-1.91,0-3.45,1.55-3.45,3.45s1.55,3.45,3.45,3.45,3.45-1.55,3.45-3.45-1.55-3.45-3.45-3.45Z"/>
  <path d="M28.94,13.28l-3.76-1.08,1.9-3.43-3.85-3.85-3.43,1.9-1.08-3.76h-5.44l-1.08,3.76-3.43-1.9-3.85,3.85,1.9,3.43-3.76,1.08v5.44l3.76,1.08-1.9,3.43,3.85,3.85,3.43-1.9,1.08,3.76h5.44l1.08-3.76,3.43,1.9,3.85-3.85-1.9-3.43,3.76-1.08v-5.44ZM23.05,6.17l2.78,2.78-1.97,3.55c-.87-1.94-2.43-3.5-4.36-4.36l3.55-1.97ZM23.62,16c0,4.2-3.42,7.62-7.62,7.62s-7.62-3.42-7.62-7.62,3.42-7.62,7.62-7.62,7.62,3.42,7.62,7.62ZM14.03,4.06h3.93l1.12,3.9c-.96-.37-2-.58-3.09-.58s-2.13.21-3.09.58l1.12-3.9ZM6.17,8.95l2.78-2.78,3.55,1.97c-1.94.87-3.5,2.43-4.36,4.36l-1.97-3.55ZM4.06,17.97v-3.93l3.9-1.12c-.37.96-.58,2-.58,3.09s.21,2.13.58,3.09l-3.9-1.12ZM8.95,25.83l-2.78-2.78,1.97-3.55c.87,1.94,2.43,3.5,4.36,4.36l-3.55,1.97ZM17.97,27.94h-3.93l-1.12-3.9c.96.37,2,.58,3.09.58s2.13-.21,3.09-.58l-1.12,3.9ZM25.83,23.05l-2.78,2.78-3.55-1.97c1.94-.87,3.5-2.43,4.36-4.36l1.97,3.55ZM27.94,17.97l-3.9,1.12c.37-.96.58-2,.58-3.09s-.21-2.13-.58-3.09l3.9,1.12v3.93Z"/>
</svg>