<?xml version="1.0" encoding="UTF-8"?>
<svg id="Layer_1" data-name="Layer 1" xmlns="http://www.w3.org/2000/svg" viewBox="0 0 32 32">
  <defs>
    <style>
      .cls-1 {
        fill: none;
      }

      .cls-2 {
        fill: #0328d1;
      }
    </style>
  </defs>
  <path class="cls-1" d="M8.71,11.76h4.83c.51-.7,1.33-1.18,2.26-1.18s1.75.47,2.27,1.18h2.32v1.46l2.31-1.41s1.19-.68,1.19-1.83v-4.78c0-.55-.45-1-1-1h-14.18c-.55,0-1,.45-1,1v5.56c0,.55.45,1,1,1ZM20,6.52c.67,0,1.21.54,1.21,1.21s-.54,1.21-1.21,1.21-1.21-.54-1.21-1.21.54-1.21,1.21-1.21ZM15.61,6.52c.67,0,1.21.54,1.21,1.21s-.54,1.21-1.21,1.21-1.21-.54-1.21-1.21.54-1.21,1.21-1.21ZM11.23,6.52c.67,0,1.21.54,1.21,1.21s-.54,1.21-1.21,1.21-1.21-.54-1.21-1.21.54-1.21,1.21-1.21Z"/>
  <path class="cls-1" d="M15.77,18.11c-2.12,0-3.29,1.82-3.29,3.07v.91h6.58v-.91c0-1.26-1.17-3.07-3.29-3.07Z"/>
  <path class="cls-1" d="M15.8,11.33c-1.15,0-2.08.93-2.08,2.08s.93,2.08,2.08,2.08,2.08-.93,2.08-2.08-.93-2.08-2.08-2.08Z"/>
  <path class="cls-1" d="M5.99,22.09h5.74v-.91c0-1.56,1.44-3.82,4.04-3.82s4.04,2.26,4.04,3.82v.91h5.74v-12.27h-.9v.17c0,1.6-1.5,2.44-1.56,2.48l-3.44,2.09v-2.05h-1.17c.1.28.16.58.16.9,0,1.56-1.27,2.83-2.83,2.83s-2.83-1.27-2.83-2.83c0-.32.06-.62.16-.9h-4.42c-.96,0-1.75-.78-1.75-1.75v-.95h-.98v12.27Z"/>
  <path class="cls-1" d="M1.36,25.6c0,.4.32.72.72.72h27.69c.4,0,.72-.32.72-.72v-.51H1.36v.51Z"/>
  <path class="cls-2" d="M15.77,17.36c-2.6,0-4.04,2.26-4.04,3.82v.91h.75v-.91c0-1.26,1.17-3.07,3.29-3.07s3.29,1.82,3.29,3.07v.91h.75v-.91c0-1.56-1.44-3.82-4.04-3.82Z"/>
  <path d="M26.74,7.82c.38,0,.7.31.7.7v15.56h1v-15.56c0-.93-.76-1.7-1.7-1.7h-2.1v1h2.1Z"/>
  <path d="M4.26,8.52c0-.38.31-.7.7-.7h2.01v-1h-2.01c-.94,0-1.7.76-1.7,1.7v15.56h1v-15.56Z"/>
  <path d="M25.54,9.82v12.27H5.99v-12.27h.98v-1h-1.48c-.28,0-.5.22-.5.5v13.27c0,.28.22.5.5.5h20.56c.28,0,.5-.22.5-.5v-13.27c0-.28-.22-.5-.5-.5h-1.4v1h.9Z"/>
  <path d="M.36,24.09v1.51c0,.95.77,1.72,1.72,1.72h27.69c.95,0,1.72-.77,1.72-1.72v-1.51H.36ZM30.49,25.6c0,.4-.32.72-.72.72H2.08c-.4,0-.72-.32-.72-.72v-.51h29.13v.51Z"/>
  <path class="cls-2" d="M6.96,8.82v1.95c0,.96.78,1.75,1.75,1.75h4.42c-.1.28-.16.58-.16.9,0,1.56,1.27,2.83,2.83,2.83s2.83-1.27,2.83-2.83c0-.32-.06-.62-.16-.9h1.17v2.05l3.44-2.09c.06-.04,1.56-.88,1.56-2.48v-4.78c0-.96-.78-1.75-1.75-1.75h-14.18c-.96,0-1.75.78-1.75,1.75v3.62ZM15.8,15.49c-1.15,0-2.08-.93-2.08-2.08s.93-2.08,2.08-2.08,2.08.93,2.08,2.08-.93,2.08-2.08,2.08ZM7.71,5.2c0-.55.45-1,1-1h14.18c.55,0,1,.45,1,1v4.78c0,1.15-1.17,1.82-1.19,1.83l-2.31,1.41v-1.46h-2.32c-.51-.71-1.33-1.18-2.27-1.18s-1.75.47-2.26,1.18h-4.83c-.55,0-1-.45-1-1v-5.56Z"/>
  <path class="cls-2" d="M11.23,8.95c.67,0,1.21-.54,1.21-1.21s-.54-1.21-1.21-1.21-1.21.54-1.21,1.21.54,1.21,1.21,1.21Z"/>
  <path class="cls-2" d="M15.61,8.95c.67,0,1.21-.54,1.21-1.21s-.54-1.21-1.21-1.21-1.21.54-1.21,1.21.54,1.21,1.21,1.21Z"/>
  <path class="cls-2" d="M20,8.95c.67,0,1.21-.54,1.21-1.21s-.54-1.21-1.21-1.21-1.21.54-1.21,1.21.54,1.21,1.21,1.21Z"/>
</svg>