<?xml version="1.0" encoding="UTF-8"?>
<svg id="Layer_1" xmlns="http://www.w3.org/2000/svg" version="1.1" viewBox="0 0 32 32">
  <!-- Generator: Adobe Illustrator 30.0.0, SVG Export Plug-In . SVG Version: 2.1.1 Build 123)  -->
  <defs>
    <style>
      .st0 {
        fill: none;
      }

      .st1 {
        fill: #0328d1;
      }
    </style>
  </defs>
  <polygon class="st0" points="4.3 9.1 4.2 9.1 4.2 9.3 4.3 9.1"/>
  <polygon class="st0" points="16.7 7.8 23.2 10.2 26.8 8.9 15.9 4.9 4.9 8.9 15.9 12.9 18.7 11.8 12.3 9.5 16.7 7.8"/>
  <polygon class="st0" points="27.5 9.3 27.5 9.1 27.4 9.1 27.5 9.3"/>
  <polygon class="st0" points="24.2 10.9 24.2 20.9 19.8 22.6 19.8 12.5 16.4 13.7 16.4 27.7 15.4 27.7 15.4 13.7 4.2 9.7 4.2 23.8 15.9 28 27.5 23.8 27.5 9.7 24.2 10.9"/>
  <path d="M15.9,3.8L3.2,8.4v16s12.6,4.6,12.6,4.6l12.6-4.6V8.4S15.9,3.8,15.9,3.8ZM27.5,9.3v-.2c0,0,0,0,0,0v.2h0ZM4.3,9.1v.2c0,0,0-.2,0-.2h0s0,0,0,0ZM15.9,28l-11.6-4.2v-14.1s11.1,4.1,11.1,4.1v14.5h1v-14.5l3.5-1.3v-.3l-1.1-.4-2.9,1.1-10.9-4,10.9-4,10.9,4-3.6,1.3,1.1.4h0v.3l3.2-1.2v14.1s-11.6,4.2-11.6,4.2h0Z"/>
  <polygon class="st1" points="24.2 20.9 24.2 10.9 24.2 10.6 24.3 10.6 23.2 10.2 16.7 7.8 12.3 9.5 18.7 11.8 19.8 12.2 19.8 12.5 19.8 22.6 24.2 20.9"/>
</svg>