<?xml version="1.0" encoding="UTF-8"?>
<svg id="Layer_1" data-name="Layer 1" xmlns="http://www.w3.org/2000/svg" viewBox="0 0 32 32">
  <defs>
    <style>
      .cls-1 {
        fill: #0328d1;
      }
    </style>
  </defs>
  <path class="cls-1" d="M11.77,22.91c0-1.53,1.42-3.73,3.99-3.73s3.99,2.21,3.99,3.73v1.18h.75v-1.18c0-1.83-1.69-4.48-4.74-4.48s-4.74,2.65-4.74,4.48v1.18h.75v-1.18Z"/>
  <path d="M26.74,7.82c.38,0,.7.31.7.7v15.56h1v-15.56c0-.93-.76-1.7-1.7-1.7h-1.2v1h1.2Z"/>
  <path d="M4.26,8.52c0-.38.31-.7.7-.7h1.11v-1h-1.11c-.94,0-1.7.76-1.7,1.7v15.56h1v-15.56Z"/>
  <path d="M20.5,24.09H.36v1.51c0,.95.77,1.72,1.72,1.72h27.7c.95,0,1.72-.77,1.72-1.72v-1.51h-10.99ZM30.49,25.6c0,.4-.32.72-.72.72H2.08c-.4,0-.72-.32-.72-.72v-.51h29.13v.51Z"/>
  <path class="cls-1" d="M6.06,11.5c0,1.04.85,1.89,1.89,1.89h4.95c-.12.33-.19.67-.19,1.04,0,1.71,1.39,3.09,3.09,3.09s3.09-1.39,3.09-3.09c0-.37-.08-.71-.19-1.04h1.39v2.24l3.74-2.28c.07-.04,1.71-.97,1.71-2.71v-5.3c0-1.04-.85-1.89-1.89-1.89H7.95c-1.04,0-1.89.85-1.89,1.89v6.16ZM15.8,16.78c-1.29,0-2.34-1.05-2.34-2.34s1.05-2.34,2.34-2.34,2.34,1.05,2.34,2.34-1.05,2.34-2.34,2.34ZM6.81,5.34c0-.63.51-1.14,1.14-1.14h15.7c.63,0,1.14.51,1.14,1.14v5.3c0,1.29-1.31,2.04-1.34,2.06l-2.61,1.59v-1.65h-2.52c-.56-.79-1.48-1.3-2.51-1.3s-1.95.52-2.51,1.3h-5.34c-.63,0-1.14-.51-1.14-1.14v-6.16Z"/>
</svg>