<?xml version="1.0" encoding="UTF-8"?>
<svg id="Layer_1" data-name="Layer 1" xmlns="http://www.w3.org/2000/svg" viewBox="0 0 32 32">
  <defs>
    <style>
      .cls-1 {
        fill: none;
      }

      .cls-2 {
        fill: #0328d1;
      }
    </style>
  </defs>
  <polygon class="cls-1" points="10.66 23.1 13.1 20.82 11.72 19.27 10.66 23.1"/>
  <path class="cls-2" d="M24.56,8.33l-14.31,7.09.08.09v.54s0,0,0,0l-.11,4.87,1.02-3.69.06.07,13.44-8.67c.18-.13.02-.41-.18-.31Z"/>
  <path d="M30.54,4.9c-.19-.26-.5-.39-.82-.34l-25.19,3.93c-.31.05-.56.26-.67.55-.11.29-.04.62.16.86l5.31,5.99-.17,8.09-.04,1.93.96-.89.06.03.03-.11,3.61-3.37,4.93,5.51c.16.18.39.28.64.28.04,0,.08,0,.11,0,.28-.04.52-.21.65-.46L30.61,5.78c.14-.29.11-.62-.07-.88ZM10.66,23.1l1.05-3.83,1.39,1.55-2.44,2.28ZM19.3,26.25l-8-8.94-.06-.07-1.02,3.69.11-4.87h0v-.54s-.07-.09-.07-.09l-5.3-5.98,24.64-3.85-10.29,20.66Z"/>
</svg>