<?xml version="1.0" encoding="UTF-8"?>
<svg id="Layer_1" data-name="Layer 1" xmlns="http://www.w3.org/2000/svg" viewBox="0 0 32 32">
  <defs>
    <style>
      .cls-1 {
        fill: none;
      }

      .cls-2 {
        fill: #0328d1;
      }
    </style>
  </defs>
  <path class="cls-1" d="M6.24,25.65l5.58-5.58h11.34c.85,0,1.54-.69,1.54-1.54V6.97c0-.85-.69-1.54-1.54-1.54H3.5c-.85,0-1.54.69-1.54,1.54v11.55c0,.85.69,1.54,1.54,1.54h2.74v5.58ZM19.55,11c.88,0,1.59.71,1.59,1.59s-.71,1.59-1.59,1.59-1.59-.71-1.59-1.59.71-1.59,1.59-1.59ZM13.33,11c.88,0,1.59.71,1.59,1.59s-.71,1.59-1.59,1.59-1.59-.71-1.59-1.59.71-1.59,1.59-1.59ZM5.51,12.59c0-.88.71-1.59,1.59-1.59s1.59.71,1.59,1.59-.71,1.59-1.59,1.59-1.59-.71-1.59-1.59Z"/>
  <path d="M12.23,21.07h10.92c1.4,0,2.54-1.14,2.54-2.54V6.97c0-1.4-1.14-2.54-2.54-2.54H3.5c-1.4,0-2.54,1.14-2.54,2.54v11.55c0,1.4,1.14,2.54,2.54,2.54h1.74v6.99l6.99-6.99ZM3.5,20.07c-.85,0-1.54-.69-1.54-1.54V6.97c0-.85.69-1.54,1.54-1.54h19.66c.85,0,1.54.69,1.54,1.54v11.55c0,.85-.69,1.54-1.54,1.54h-11.34l-5.58,5.58v-5.58h-2.74Z"/>
  <path d="M28.44,7.99h-1.23v1h1.23c.82,0,1.49.67,1.49,1.49v11.28c0,.82-.67,1.49-1.49,1.49h-2.69v5.43l-5.43-5.43h-9.36v1h8.94l6.84,6.84v-6.84h1.69c1.37,0,2.49-1.12,2.49-2.49v-11.28c0-1.37-1.12-2.49-2.49-2.49Z"/>
  <path class="cls-2" d="M8.68,12.59c0-.88-.71-1.59-1.59-1.59s-1.59.71-1.59,1.59.71,1.59,1.59,1.59,1.59-.71,1.59-1.59Z"/>
  <path class="cls-2" d="M13.33,14.17c.88,0,1.59-.71,1.59-1.59s-.71-1.59-1.59-1.59-1.59.71-1.59,1.59.71,1.59,1.59,1.59Z"/>
  <path class="cls-2" d="M19.55,14.17c.88,0,1.59-.71,1.59-1.59s-.71-1.59-1.59-1.59-1.59.71-1.59,1.59.71,1.59,1.59,1.59Z"/>
</svg>