<?xml version="1.0" encoding="UTF-8"?>
<svg id="Layer_1" data-name="Layer 1" xmlns="http://www.w3.org/2000/svg" viewBox="0 0 32 32">
  <defs>
    <style>
      .cls-1 {
        fill: #0328d1;
      }
    </style>
  </defs>
  <path class="cls-1" d="M3.7,26.27c-.67.83-.8,1.91-.34,2.87.46.97,1.38,1.54,2.45,1.54h16.67c1.07,0,1.98-.58,2.45-1.54.46-.97.34-2.04-.34-2.87l-1.23-1.53H4.93l-1.23,1.53Z"/>
  <path class="cls-1" d="M24.12,16.8v7.29l1.25,1.55c.51.63.78,1.38.82,2.15.69-.19,1.2-.82,1.2-1.57v-9.42h-3.27Z"/>
  <path class="cls-1" d="M24.39,3.42c.81,0,1.48-.66,1.48-1.48s-.66-1.48-1.48-1.48-1.48.66-1.48,1.48.66,1.48,1.48,1.48ZM24.39,1.47c.26,0,.48.21.48.48s-.21.48-.48.48-.48-.21-.48-.48.21-.48.48-.48Z"/>
  <path class="cls-1" d="M14.8,19.69c.81,0,1.48-.66,1.48-1.48s-.66-1.48-1.48-1.48-1.48.66-1.48,1.48.66,1.48,1.48,1.48ZM14.8,17.74c.26,0,.48.21.48.48s-.21.48-.48.48-.48-.21-.48-.48.21-.48.48-.48Z"/>
  <path class="cls-1" d="M23.89,6.06c0,1.08.88,1.96,1.96,1.96s1.96-.88,1.96-1.96-.88-1.96-1.96-1.96-1.96.88-1.96,1.96ZM26.8,6.06c0,.53-.43.96-.96.96s-.96-.43-.96-.96.43-.96.96-.96.96.43.96.96Z"/>
  <path class="cls-1" d="M11.71,23.71c1.08,0,1.96-.88,1.96-1.96s-.88-1.96-1.96-1.96-1.96.88-1.96,1.96.88,1.96,1.96,1.96ZM11.71,20.8c.53,0,.96.43.96.96s-.43.96-.96.96-.96-.43-.96-.96.43-.96.96-.96Z"/>
  <path d="M29.4,8.77h-7.41c-.28,0-.5.22-.5.5s.22.5.5.5h1.13v13.08l-6.34-7.86V6.8h1.02c.28,0,.5-.22.5-.5s-.22-.5-.5-.5h-7.41c-.28,0-.5.22-.5.5s.22.5.5.5h1.13v8.2L2.92,25.64c-.91,1.12-1.08,2.63-.46,3.93.62,1.3,1.91,2.11,3.35,2.11h16.67c1.44,0,2.73-.81,3.35-2.11.12-.24.2-.49.26-.75,1.29-.17,2.3-1.26,2.3-2.6V9.77h1.02c.28,0,.5-.22.5-.5s-.22-.5-.5-.5ZM26.19,27.79c-.04-.77-.31-1.52-.82-2.15l-1.25-1.55v-11.18h3.27v13.31c0,.75-.51,1.38-1.2,1.57ZM15.78,6.8v2.14h-3.27v-2.14h3.27ZM12.4,15.49c.07-.09.11-.2.11-.31v-5.23h3.27v5.23c0,.11.04.23.11.31l7.47,9.26,1.23,1.53c.67.83.8,1.91.34,2.87-.46.97-1.38,1.54-2.45,1.54H5.81c-1.07,0-1.98-.58-2.45-1.54-.46-.97-.34-2.04.34-2.87l1.23-1.53,7.47-9.26ZM27.39,11.92h-3.27v-2.14h3.27v2.14Z"/>
</svg>