<?xml version="1.0" encoding="UTF-8"?>
<svg id="Layer_1" data-name="Layer 1" xmlns="http://www.w3.org/2000/svg" viewBox="0 0 32 32">
  <defs>
    <style>
      .cls-1 {
        fill: none;
      }

      .cls-2 {
        fill: #0328d1;
      }
    </style>
  </defs>
  <path class="cls-1" d="M25.05,12.31c0-.62.23-1.19.59-1.65h-2.19c-.1,0-.2-.03-.28-.09-1.74-1.2-3.77-1.84-5.89-1.84h-1.64c-1.1,0-2.13.55-2.75,1.46l-2.88,4.27c-.16.24-.17.53-.04.78.13.25.38.4.67.4h.35c1.08,0,2.13-.44,2.88-1.22l.93-.96c1-1.03,2.63-1.16,3.78-.3l3.48,2.6c.22.17.27.48.1.7-.1.13-.25.2-.4.2-.1,0-.21-.03-.3-.1l-3.48-2.6c-.75-.56-1.81-.48-2.47.19l-.93.96c-.94.97-2.25,1.52-3.6,1.52h-.35c-.65,0-1.24-.36-1.55-.93-.3-.57-.27-1.27.1-1.81l2.39-3.53c-1.07.43-2.36.86-3.27.86h-1.56c.15.33.23.69.23,1.08v7.71c0,.23-.04.45-.09.66h2.19c.11,0,.21.03.3.1l3.46,2.54c1.92,1.41,4.59,1.28,6.36-.31l3.24-2.92c.09-.08.21-.13.33-.13h2.29v-7.65Z"/>
  <path class="cls-2" d="M26.05,12.31v7.71c0,.91.74,1.65,1.65,1.65h2.49v-11h-2.49c-.91,0-1.65.74-1.65,1.65ZM28.66,12.05c.24.49.03,1.09-.46,1.33-.49.24-1.09.03-1.33-.46s-.03-1.09.46-1.33,1.09-.03,1.33.46Z"/>
  <path d="M27.7,9.66c-.08,0-.16.02-.24.02-.04,0-.08-.02-.12-.02h-3.73c-1.88-1.26-4.06-1.93-6.33-1.93h-1.64c-.95,0-1.85.31-2.59.87-.91.46-3.47,1.63-4.76,1.63h-2.35c-.45-.35-1.01-.57-1.62-.57H.84v13h3.49c.83,0,1.56-.39,2.04-.99h2.54l3.33,2.45c1.06.78,2.32,1.17,3.58,1.17,1.46,0,2.91-.52,4.05-1.54l3.1-2.79h2.28c.38.99,1.34,1.71,2.46,1.71h3.49v-13h-3.49ZM30.19,21.66h-2.49c-.91,0-1.65-.74-1.65-1.65v-7.71c0-.91.74-1.65,1.65-1.65h2.49v11ZM4.32,21.66H1.84v-11h2.49c.91,0,1.65.74,1.65,1.65v7.71c0,.91-.74,1.65-1.65,1.65ZM22.76,19.96c-.12,0-.24.05-.33.13l-3.24,2.92c-1.77,1.59-4.44,1.72-6.36.31l-3.46-2.54c-.09-.06-.19-.1-.3-.1h-2.19c.05-.21.09-.43.09-.66v-7.71c0-.38-.09-.75-.23-1.08h1.56c.91,0,2.2-.43,3.27-.86l-2.39,3.53c-.36.54-.4,1.23-.1,1.81.31.57.9.93,1.55.93h.35c1.35,0,2.66-.55,3.6-1.52l.93-.96c.65-.67,1.71-.76,2.47-.19l3.48,2.6c.09.07.19.1.3.1.15,0,.3-.07.4-.2.17-.22.12-.53-.1-.7l-3.48-2.6c-1.15-.86-2.78-.73-3.78.3l-.93.96c-.75.77-1.8,1.22-2.88,1.22h-.35c-.28,0-.53-.15-.67-.4-.13-.25-.12-.54.04-.78l2.88-4.27c.62-.91,1.64-1.46,2.75-1.46h1.64c2.11,0,4.15.64,5.89,1.84.08.06.18.09.28.09h2.19c-.36.45-.59,1.02-.59,1.65v7.65h-2.29Z"/>
  <path class="cls-2" d="M5.97,20.02v-7.71c0-.91-.74-1.65-1.65-1.65H1.84v11h2.49c.91,0,1.65-.74,1.65-1.65ZM3.83,13.38c-.49-.24-.7-.83-.46-1.33s.83-.7,1.33-.46.7.83.46,1.33-.83.7-1.33.46Z"/>
</svg>