<?xml version="1.0" encoding="UTF-8"?>
<svg id="Layer_1" data-name="Layer 1" xmlns="http://www.w3.org/2000/svg" viewBox="0 0 32 32">
  <defs>
    <style>
      .cls-1 {
        fill: none;
      }

      .cls-2 {
        fill: #0328d1;
      }
    </style>
  </defs>
  <path class="cls-1" d="M11.97,20.45c-.22-.49-.74-1.32-1.67-1.32-1.38,0-1.89,1.82-1.89,2.96l.08,2.48.38.25-.06-2.1,1-.03.19,7.15h1.24l.99-7.17c.07-.46.08-.9,0-1.31-.05-.32-.14-.63-.27-.92Z"/>
  <path class="cls-1" d="M10.57,17.08c.71,0,1.28-.57,1.28-1.28s-.57-1.28-1.28-1.28-1.28.57-1.28,1.28.57,1.28,1.28,1.28Z"/>
  <path class="cls-1" d="M24.86,17.08c.71,0,1.28-.57,1.28-1.28s-.57-1.28-1.28-1.28-1.28.57-1.28,1.28.57,1.28,1.28,1.28Z"/>
  <path class="cls-1" d="M18.56,18.75l-.22.42c.14.39.56,1.38,1.48,1.9.65.37,1.45.44,2.37.22,0-.03,0-.06,0-.09.05-.35.15-.68.28-1-.44.11-.94.19-1.46.14-1.15-.1-1.98-.94-2.46-1.61Z"/>
  <path class="cls-1" d="M25.13,19.13c-.93,0-1.45.83-1.67,1.32-.13.28-.22.59-.27.92-.07.42-.06.86,0,1.3l.99,7.18h1.24l.19-7.15,1,.03-.06,2.1.38-.25.08-2.5c0-1.13-.51-2.95-1.89-2.95Z"/>
  <path d="M22.58,15.8c0,1.26,1.02,2.28,2.28,2.28s2.28-1.02,2.28-2.28-1.02-2.28-2.28-2.28-2.28,1.02-2.28,2.28ZM24.86,14.52c.71,0,1.28.57,1.28,1.28s-.57,1.28-1.28,1.28-1.28-.57-1.28-1.28.57-1.28,1.28-1.28Z"/>
  <path d="M25.13,18.13c-.6,0-1.15.22-1.62.61h0s-1.19.72-2.39.63c-1.31-.11-2.13-1.83-2.14-1.85l-.44-.93-1.26,2.48.05.18c.02.07.47,1.81,1.99,2.69.57.33,1.2.49,1.9.49.31,0,.63-.04.96-.11.01.16.01.33.04.49l1.11,8.03h3.09l.13-4.8,1.39-.92.09-3.03c0-1.92-1.01-3.96-2.89-3.96ZM22.2,21.21s0,.06,0,.09c-.92.22-1.72.16-2.37-.22-.91-.52-1.34-1.51-1.48-1.9l.22-.42c.48.66,1.31,1.51,2.46,1.61.52.04,1.02-.03,1.46-.14-.13.32-.23.65-.28,1ZM26.94,24.58l-.38.25.06-2.1-1-.03-.19,7.15h-1.24l-.99-7.18c-.07-.45-.07-.88,0-1.3.05-.32.14-.63.27-.92.22-.49.74-1.32,1.67-1.32,1.38,0,1.89,1.82,1.89,2.95l-.08,2.5Z"/>
  <path d="M8.29,15.8c0,1.26,1.02,2.28,2.28,2.28s2.28-1.02,2.28-2.28-1.02-2.28-2.28-2.28-2.28,1.02-2.28,2.28ZM10.57,14.52c.71,0,1.28.57,1.28,1.28s-.57,1.28-1.28,1.28-1.28-.57-1.28-1.28.57-1.28,1.28-1.28Z"/>
  <path d="M12.88,20.03c-.55-1.21-1.49-1.9-2.58-1.9-1.88,0-2.89,2.04-2.89,3.98l.09,3.02,1.39.92.13,4.8h3.09l1.1-8.02c.09-.55.09-1.09,0-1.62-.06-.41-.18-.81-.35-1.18ZM12.23,22.68l-.99,7.17h-1.24l-.19-7.15-1,.03.06,2.1-.38-.25-.08-2.48c0-1.15.51-2.96,1.89-2.96.93,0,1.45.83,1.67,1.32.13.29.22.59.27.92.07.42.06.86,0,1.31Z"/>
  <path class="cls-2" d="M9.94,10.03h8.1c.77,0,1.39-.62,1.39-1.39V2.75c0-.77-.62-1.39-1.39-1.39H4.71c-.77,0-1.39.62-1.39,1.39v5.9c0,.77.62,1.39,1.39,1.39h2.37l2.87,2.41v-2.41Z"/>
  <path d="M21.19,12.23h.99c1.02,0,1.85-.83,1.85-1.85v-4.8c0-1.02-.83-1.85-1.85-1.85h-1.93v1h1.93c.47,0,.85.38.85.85v4.8c0,.47-.38.85-.85.85h-1.99v2.58l-2.69-2.58h-5.88v1h5.48l4.09,3.92v-3.92Z"/>
</svg>