<?xml version="1.0" encoding="UTF-8"?>
<svg id="Layer_1" data-name="Layer 1" xmlns="http://www.w3.org/2000/svg" viewBox="0 0 32 32">
  <defs>
    <style>
      .cls-1 {
        fill: #0328d1;
      }
    </style>
  </defs>
  <path d="M29.18,21.58c.05-1.73-.58-3.37-1.78-4.61s-2.82-1.93-4.55-1.93h-1.47c.69-.97,1.1-2.15,1.1-3.43v-6.21c.61-.51,1.09-1.19,1.34-1.98.26-.82.09-1.71-.45-2.38-.54-.67-1.38-1.02-2.24-.93l-6.44.65c-2.35.24-4.12,2.2-4.12,4.56v.36h-.02v5.92c0,1.28.41,2.46,1.1,3.43h-1.5c-1.73,0-3.35.68-4.55,1.93-1.2,1.24-1.84,2.88-1.78,4.63l.5,8.08h1l-.51-8.12c-.05-1.46.49-2.84,1.5-3.88,1.01-1.05,2.38-1.62,3.83-1.62h2.4c1.05.95,2.44,1.53,3.97,1.53s2.91-.58,3.97-1.53h2.36c1.46,0,2.82.58,3.83,1.62,1.01,1.05,1.55,2.43,1.5,3.87l-.51,8.14h1l.5-8.09ZM11.57,5.33c0-1.85,1.39-3.38,3.22-3.57l6.44-.65c.53-.06,1.02.15,1.36.56.33.41.43.94.27,1.45-.34,1.08-1.23,1.91-2.3,2.16-.31.07-.52.09-.53.09-.03,0-2.99.16-4.8-1.93-.18-.21-.5-.23-.71-.05-.21.18-.23.5-.05.71,2.14,2.47,5.48,2.28,5.63,2.27,0,0,.28-.02.68-.12.24-.05.46-.14.68-.23v2.48h-.02c-.1,1.76-1.13,3.31-2.67,4.11l-.32-2.19h-3.91l-.32,2.19c-1.54-.8-2.57-2.35-2.67-4.11h-.01s0-1.58,0-1.58c0-.03.02-.05.02-.08v-1.52ZM16.51,16.57c-2.73,0-4.96-2.22-4.96-4.96v-.14c.69,1.04,1.69,1.87,2.91,2.32l.58.21.38-2.59h2.18l.38,2.59.58-.21c1.22-.45,2.23-1.28,2.91-2.32v.14c0,2.73-2.22,4.96-4.96,4.96Z"/>
  <path d="M9.96,24.57v-2.84c0-.28-.22-.5-.5-.5s-.5.22-.5.5v7.94h1v-5.11Z"/>
  <path d="M24.03,24.57v-2.84c0-.28-.22-.5-.5-.5s-.5.22-.5.5v7.94h1v-5.11Z"/>
  <polygon class="cls-1" points="14.23 18.43 15.73 19.93 14.55 29.44 16.51 31.4 18.47 29.44 17.3 20.01 18.88 18.43 14.23 18.43"/>
</svg>