<?xml version="1.0" encoding="UTF-8"?>
<svg id="Layer_1" data-name="Layer 1" xmlns="http://www.w3.org/2000/svg" viewBox="0 0 32 32">
  <defs>
    <style>
      .cls-1 {
        fill: none;
      }

      .cls-2 {
        fill: #0328d1;
      }
    </style>
  </defs>
  <path class="cls-1" d="M18.12,15.61c.95,2.74,2.06,4.79,2.67,5.39l.71.7c2.29.06,4.26.28,5.6.49-.3-.38-.61-.84-.95-1.39-1.05-1.76-2.14-4.2-3.05-6.86-.9-2.6-1.96-6.5-1.94-8.96-.94,1-2.37,2.41-4.17,3.88l-.09.91c-.09.85.26,3.05,1.22,5.85Z"/>
  <path class="cls-1" d="M9.93,18.46s.06.08.08.13c.57,1.66,1.58,3.41,2,4.11,1.89-.5,3.8-.78,5.63-.91-.8-1.28-1.64-3.09-2.36-5.2-.71-2.07-1.17-3.99-1.33-5.49-1.52,1.02-3.2,1.98-4.99,2.74.1.81.38,2.8.95,4.47.02.05.02.1.02.15Z"/>
  <path class="cls-1" d="M24.79,11l-1.64-.26c.24.89.54,1.84.89,2.86.28.8.56,1.55.83,2.24l1.15-1.28-1.23-3.56Z"/>
  <path class="cls-1" d="M22.39,3.65c-.38.24-.41,2.42.48,6.03l2.67.43,1.61,4.68-1.86,2.07c1.62,3.76,3.11,5.64,3.58,5.58.51-.32.4-4.02-1.64-9.95-2.02-5.87-4.19-8.85-4.82-8.85,0,0-.01,0-.02,0Z"/>
  <path class="cls-1" d="M11.03,23.01c-.49-.82-1.41-2.46-1.97-4.09-.02-.06-.03-.12-.02-.18-.02-.03-.06-.06-.07-.1-.56-1.63-.85-3.5-.97-4.44l-2.07.71c-1.18.41-2.13,1.25-2.67,2.36-.55,1.12-.62,2.38-.22,3.56.41,1.18,1.25,2.13,2.36,2.67,1.12.54,2.38.62,3.56.22l2.07-.71Z"/>
  <path class="cls-1" d="M13.61,29.94s.04-.05.04-.07c.02-.05.04-.14-.02-.24l-3.25-5.34-1.09.38c-.21.07-.43.12-.65.17l1.25,2.1c.53.9.75,1.82.63,2.67-.02.15,0,.29.04.43.16.46.65.73,1.13.61l1.8-.61c.05-.02.09-.05.12-.08v-.02Z"/>
  <path class="cls-2" d="M17.64,21.78c1.34-.1,2.64-.12,3.85-.09l-.71-.7c-.61-.6-1.72-2.65-2.67-5.39-.97-2.8-1.31-5-1.22-5.85l.09-.91c-.92.75-1.94,1.52-3.03,2.25.16,1.49.61,3.41,1.33,5.49.73,2.11,1.56,3.92,2.36,5.2Z"/>
  <path d="M30,19.46c-.25-2.03-.9-4.62-1.82-7.29-1.32-3.84-4.1-10.16-6.11-9.47,0,0,0,0,0,0-.15,0-.3.05-.4.18-.06.07-5.83,7.07-13.44,10.18-.02,0-.03.03-.04.04-.05,0-.1,0-.15.02l-2.45.84c-1.43.49-2.58,1.51-3.24,2.87s-.76,2.9-.26,4.33c.49,1.43,1.51,2.58,2.87,3.25.78.38,1.63.58,2.48.58.04,0,.08,0,.12-.01l1.47,2.47c.29.49.61,1.24.5,2.02-.04.31-.01.61.09.9.27.8,1.01,1.31,1.85,1.31.16,0,.33-.02.5-.06l1.84-.62c.22-.08.41-.21.55-.38,0,0,.02-.01.03-.02l.07-.09s.01-.02.02-.03l.98-1.34c.5-.69.56-1.62.15-2.36l-1.9-3.43c7.4-1.52,14.99.15,15.08.17.16.04.31-.01.42-.11h0c.84-.29,1.1-1.57.8-3.93ZM27.24,12.5c2.04,5.93,2.15,9.63,1.64,9.95-.47.06-1.96-1.82-3.58-5.58l1.86-2.07-1.61-4.68-2.67-.43c-.89-3.61-.86-5.79-.48-6.03,0,0,.01,0,.02,0,.63,0,2.8,2.98,4.82,8.85ZM24.04,13.6c-.35-1.02-.64-1.98-.89-2.86l1.64.26,1.23,3.56-1.15,1.28c-.28-.69-.56-1.44-.83-2.24ZM13.95,11.1c1.1-.74,2.11-1.5,3.03-2.25,1.8-1.47,3.22-2.88,4.17-3.88-.02,2.47,1.04,6.36,1.94,8.96.92,2.67,2,5.11,3.05,6.86.33.56.65,1.01.95,1.39-1.35-.21-3.31-.43-5.6-.49-1.21-.03-2.5,0-3.85.09-1.83.13-3.74.41-5.63.91-.42-.7-1.43-2.44-2-4.11-.02-.05-.05-.09-.08-.13,0-.05,0-.1-.02-.15-.57-1.66-.86-3.66-.95-4.47,1.79-.77,3.47-1.72,4.99-2.74ZM5.4,23.5c-1.12-.55-1.96-1.5-2.36-2.67-.41-1.18-.33-2.44.22-3.56.55-1.12,1.49-1.96,2.67-2.36l2.07-.71c.12.95.41,2.81.97,4.44.01.04.05.06.07.1,0,.06,0,.12.02.18.56,1.63,1.48,3.27,1.97,4.09l-2.07.71c-1.18.41-2.44.33-3.56-.22ZM11.68,30.65c-.48.12-.97-.15-1.13-.61-.05-.14-.06-.29-.04-.43.12-.85-.1-1.78-.63-2.67l-1.25-2.1c.22-.05.43-.09.65-.17l1.09-.38,3.25,5.34c.06.1.04.19.02.24,0,.02-.02.05-.04.07v.02s-.08.06-.13.08l-1.8.61Z"/>
</svg>