<?xml version="1.0" encoding="UTF-8"?>
<svg id="Layer_1" data-name="Layer 1" xmlns="http://www.w3.org/2000/svg" viewBox="0 0 32 32">
  <defs>
    <style>
      .cls-1 {
        fill: none;
      }

      .cls-2 {
        fill: #0328d1;
      }
    </style>
  </defs>
  <path class="cls-1" d="M1.36,25.6c0,.4.32.72.72.72h27.69c.4,0,.72-.32.72-.72v-.51H1.36v.51Z"/>
  <path class="cls-1" d="M17.39,12.03c-.8-.79-1.86-1.22-2.99-1.22h-.04c-1.14,0-2.2.46-3,1.27s-1.23,1.88-1.22,3.02.46,2.2,1.27,3c.8.79,1.86,1.22,2.99,1.22.01,0,.02,0,.04,0,1.14,0,2.2-.46,3-1.27s1.23-1.88,1.22-3.02-.46-2.2-1.27-3Z"/>
  <path class="cls-2" d="M20.84,22.45c.35.35.92.34,1.26-.01.35-.35.34-.92-.01-1.26l-2.67-2.62-.27.27-.59-.58c.71-.92,1.1-2.04,1.09-3.22-.01-1.4-.57-2.72-1.57-3.71-.99-.98-2.3-1.51-3.69-1.51h-.04c-1.4.01-2.72.57-3.71,1.57s-1.52,2.33-1.51,3.73c.01,1.4.57,2.72,1.57,3.71.99.98,2.3,1.51,3.69,1.51.01,0,.03,0,.04,0,1.29-.01,2.49-.5,3.44-1.35l.57.56-.28.29,2.67,2.62ZM17.44,18.05c-.8.81-1.86,1.26-3,1.27-.01,0-.02,0-.04,0-1.12,0-2.18-.43-2.99-1.22-.81-.8-1.26-1.86-1.27-3s.43-2.21,1.22-3.02,1.86-1.26,3-1.27h.04c1.12,0,2.18.43,2.99,1.22.81.8,1.26,1.86,1.27,3s-.43,2.21-1.22,3.02Z"/>
  <path d="M4.26,8.52c0-.38.31-.7.7-.7h21.79c.38,0,.7.31.7.7v15.56h1v-15.56c0-.94-.76-1.7-1.7-1.7H4.95c-.94,0-1.7.76-1.7,1.7v15.56h1v-15.56Z"/>
  <path d="M.36,24.09v1.51c0,.95.77,1.72,1.72,1.72h27.69c.95,0,1.72-.77,1.72-1.72v-1.51H.36ZM30.49,25.6c0,.4-.32.72-.72.72H2.08c-.4,0-.72-.32-.72-.72v-.51h29.13v.51Z"/>
</svg>