<?xml version="1.0" encoding="UTF-8"?>
<svg id="Layer_1" data-name="Layer 1" xmlns="http://www.w3.org/2000/svg" viewBox="0 0 32 32">
  <defs>
    <style>
      .cls-1 {
        fill: #0328d1;
      }
    </style>
  </defs>
  <path d="M29.08,18.89c-.28,0-.5-.22-.5-.5V5.55c0-.28.22-.5.5-.5s.5.22.5.5v12.84c0,.28-.22.5-.5.5Z"/>
  <path d="M29.58,30.2H7.55L29.58,13.29v16.91ZM10.5,29.2h18.08v-13.89l-18.08,13.89Z"/>
  <path d="M7.62,13.97c-1.15,0-2.09-.94-2.09-2.09s.94-2.09,2.09-2.09,2.09.94,2.09,2.09-.94,2.09-2.09,2.09ZM7.62,10.8c-.6,0-1.09.49-1.09,1.09s.49,1.09,1.09,1.09,1.09-.49,1.09-1.09-.49-1.09-1.09-1.09Z"/>
  <path d="M5.05,30.28h-2.48l2.2-7.47,4.06.32.87,5.54-.99.16-.74-4.74-2.92,6.19ZM3.91,29.28h.51l2.5-5.3-1.41-.11-1.59,5.41Z"/>
  <polygon points="10.95 28.28 9.95 28.25 10.16 22.24 5.07 21.25 4.59 17.18 5.58 17.06 5.97 20.41 11.19 21.42 10.95 28.28"/>
  <path d="M8.59,21.73c-.05,0-.11,0-.16-.03-.26-.09-.4-.38-.31-.64l.96-2.74c.09-.63.12-1.51-.09-1.87-.45-.78-.92-1.12-1.56-1.12h0l-1.89.06c-2.54.25-2.93,2.43-2.99,3.13l.28.25c.39-1.07,1.32-2.32,3.11-2.39.25,0,.51.2.52.48s-.2.51-.48.52c-2.05.09-2.36,2.3-2.38,2.39l-.12.95-1.94-1.77v-.22c0-1.36.8-4.03,3.93-4.34l1.94-.06h0c1.35,0,2.04.92,2.44,1.62.42.72.3,1.95.19,2.61l-.98,2.83c-.07.21-.27.34-.47.34Z"/>
  <path d="M10.84,20.28c-.59,0-1.23-.13-1.85-.5l.51-.86c1.15.69,2.5.19,2.99-.03l.04-.17c-.73.15-1.76.17-2.48-.63-.88-.97-1.04-1.56-1.07-1.67l.98-.22-.49.11.48-.12s.13.46.84,1.23c.71.79,2.2.11,2.21.11l.93-.43-.56,2.45-.19.11c-.06.04-1.08.61-2.34.61Z"/>
  <polygon points="5.14 23.34 7.63 23.64 4.73 29.78 3.24 29.78 5.14 23.34"/>
  <path d="M13.22,17.98l-.29,1.25s-2.25,1.05-3.68.12l.39-2.51s1.57,2.42,3.58,1.14Z"/>
  <path class="cls-1" d="M29.54,8.93s-2.86-.83-4.85,1.28c-1.58,1.68-4.09.78-4.09.78v-6.37s2.51.9,4.09-.78c1.99-2.11,4.85-1.28,4.85-1.28v6.37Z"/>
</svg>