<?xml version="1.0" encoding="UTF-8"?>
<svg id="Layer_1" data-name="Layer 1" xmlns="http://www.w3.org/2000/svg" viewBox="0 0 32 32">
  <defs>
    <style>
      .cls-1 {
        fill: none;
      }

      .cls-2 {
        fill: #0328d1;
      }
    </style>
  </defs>
  <path class="cls-1" d="M3.84,23.97h17.67c-.04-.06-.08-.12-.11-.19-.24-.48-.38-.99-.46-1.5H1.65c.26.97,1.14,1.69,2.19,1.69Z"/>
  <path class="cls-1" d="M25.89,7.15H3.84c-1.25,0-2.28,1.02-2.28,2.28v11.85h19.33c.03-.41.08-.82.22-1.22.41-1.24,1.27-2.24,2.43-2.83,1.52-.77,3.25-.66,4.63.13v-7.92c0-1.25-1.02-2.28-2.28-2.28ZM11.64,20.07h-2.5v-.71l2.5-2.55v3.26ZM15.55,20.07h-2.5v-4.59l2.5-2.53v7.13ZM16.28,11.63c0,.28-.22.5-.5.5s-.5-.22-.5-.5v-1.05l-9.32,9.32c-.1.1-.23.15-.35.15s-.26-.05-.35-.15c-.2-.2-.2-.51,0-.71l9.19-9.19h-.79c-.28,0-.5-.22-.5-.5s.22-.5.5-.5h2.63v2.63ZM19.48,20.07h-2.5v-8.57l2.5-2.53v11.1Z"/>
  <path class="cls-1" d="M29.2,19.83c-.68-1.35-2.05-2.13-3.46-2.13-.59,0-1.18.13-1.74.42-.92.47-1.61,1.27-1.93,2.25-.32.98-.24,2.03.22,2.96.96,1.91,3.3,2.67,5.21,1.71,1.91-.96,2.67-3.3,1.71-5.21Z"/>
  <path class="cls-2" d="M13.65,9c-.28,0-.5.22-.5.5s.22.5.5.5h.79l-9.19,9.19c-.2.2-.2.51,0,.71.1.1.23.15.35.15s.26-.05.35-.15l9.32-9.32v1.05c0,.28.22.5.5.5s.5-.22.5-.5v-2.63h-2.63Z"/>
  <polygon class="cls-2" points="13.05 20.07 15.55 20.07 15.55 12.95 13.05 15.48 13.05 20.07"/>
  <polygon class="cls-2" points="16.97 20.07 19.48 20.07 19.48 8.97 16.97 11.51 16.97 20.07"/>
  <polygon class="cls-2" points="9.14 20.07 11.64 20.07 11.64 16.81 9.14 19.36 9.14 20.07"/>
  <path d="M21.51,23.97H3.84c-1.05,0-1.93-.72-2.19-1.69h19.29c-.05-.33-.06-.66-.04-1H1.56v-11.85c0-1.25,1.02-2.28,2.28-2.28h22.05c1.25,0,2.28,1.02,2.28,2.28v7.92c.37.21.7.48,1,.78v-8.71c0-1.81-1.47-3.28-3.28-3.28H3.84c-1.81,0-3.28,1.47-3.28,3.28v12.26s0,.04,0,.06c0,0,0,.02,0,.03,0,.03.01.06.02.09.09,1.73,1.51,3.11,3.26,3.11h7.47c-.14,1.82-1.54,3.29-3.35,3.5-.25.03-.44.23-.44.48,0,.27.22.48.48.48h13.71c.27,0,.48-.22.48-.48,0-.25-.19-.45-.44-.48-1.8-.21-3.21-1.67-3.35-3.5h3.82c-.28-.29-.53-.63-.74-1Z"/>
  <path class="cls-2" d="M31.17,29.27l-1.88-3.72-.4.2-.16-.32c1.81-1.4,2.45-3.94,1.37-6.06-.24-.48-.57-.88-.93-1.24-.3-.3-.63-.57-1-.78-1.38-.79-3.11-.9-4.63-.13-1.16.59-2.03,1.59-2.43,2.83-.13.4-.19.81-.22,1.22-.02.34,0,.67.04,1,.08.52.21,1.02.46,1.5.03.07.08.12.11.19.21.37.45.71.74,1,.93.95,2.2,1.49,3.51,1.49.43,0,.86-.06,1.28-.18l.17.33-.36.18,1.88,3.72c.24.47.71.74,1.21.74.21,0,.43-.05.64-.15.32-.16.56-.44.68-.79s.08-.71-.08-1.04ZM22.29,23.33c-.47-.92-.55-1.97-.22-2.96.32-.98,1.01-1.78,1.93-2.25.56-.28,1.16-.42,1.74-.42,1.42,0,2.78.78,3.46,2.13.97,1.91.2,4.24-1.71,5.21-1.91.97-4.24.2-5.21-1.71Z"/>
</svg>