<?xml version="1.0" encoding="UTF-8"?>
<svg id="Layer_1" data-name="Layer 1" xmlns="http://www.w3.org/2000/svg" viewBox="0 0 32 32">
  <defs>
    <style>
      .cls-1 {
        fill: none;
      }

      .cls-2 {
        fill: #0328d1;
      }
    </style>
  </defs>
  <path class="cls-1" d="M19.84,5.16c-2.03-1.99-4.67-2.99-7.31-2.99s-5.4,1.04-7.44,3.11c-4.03,4.1-3.98,10.72.12,14.75s10.72,3.98,14.75-.12c4.03-4.1,3.98-10.72-.12-14.75ZM12.67,21.62c-2.39,0-4.56-.97-6.13-2.54l1.52-1.52,10.74-10.74c1.57,1.57,2.54,3.74,2.54,6.13,0,4.79-3.88,8.67-8.67,8.67Z"/>
  <path class="cls-1" d="M21.03,20.21c-.12.13-.23.27-.36.4-.16.16-.33.3-.49.45l1.13,1.11.85-.86-1.12-1.11Z"/>
  <path class="cls-1" d="M23.59,21.28l-2.3,2.33,6.42,6.32c.64.63,1.66.62,2.29-.02.65-.66.64-1.69,0-2.32l-6.42-6.32Z"/>
  <path d="M30.72,26.89l-7.14-7.02-.72.74-1.16-1.14-.19.19c3.55-4.51,3.22-11.09-.97-15.2C16.05.03,8.8.09,4.38,4.58c-2.14,2.18-3.31,5.06-3.28,8.11.03,3.05,1.24,5.91,3.41,8.05,2.22,2.19,5.12,3.28,8.01,3.28,2.43,0,4.85-.78,6.88-2.31l1.2,1.18-.72.74,7.14,7.02c.51.5,1.16.75,1.83.75s1.38-.27,1.9-.81c1.01-1.03,1-2.69-.03-3.7ZM5.21,20.03c-4.1-4.03-4.15-10.65-.12-14.75,2.04-2.07,4.74-3.11,7.44-3.11s5.29,1,7.31,2.99c4.1,4.03,4.15,10.65.12,14.75-4.03,4.1-10.65,4.15-14.75.12ZM20.18,21.06c.17-.15.34-.29.49-.45.13-.13.24-.27.36-.4l1.12,1.11-.85.86-1.13-1.11ZM30.01,29.91c-.63.64-1.65.64-2.29.02l-6.42-6.32,2.3-2.33,6.42,6.32c.64.63.64,1.65,0,2.32Z"/>
  <path class="cls-2" d="M18.81,6.82l-10.74,10.74-1.52,1.52c1.57,1.57,3.74,2.54,6.13,2.54,4.79,0,8.67-3.88,8.67-8.67,0-2.39-.97-4.56-2.54-6.13Z"/>
</svg>