<?xml version="1.0" encoding="UTF-8"?>
<svg id="Layer_1" data-name="Layer 1" xmlns="http://www.w3.org/2000/svg" viewBox="0 0 32 32">
  <defs>
    <style>
      .cls-1 {
        fill: #0328d1;
      }
    </style>
  </defs>
  <path class="cls-1" d="M15.86,24.57c2.96,0,5.39-2.28,5.65-5.17h-1.03c-.25,2.34-2.22,4.17-4.62,4.17s-4.37-1.83-4.62-4.17h-1.03c.25,2.89,2.69,5.17,5.65,5.17Z"/>
  <path d="M3.49,25c-.05-1.43.49-2.8,1.51-3.85,1.08-1.11,2.6-1.75,4.19-1.75h3.16c.36,1.61,1.79,2.82,3.51,2.82s3.15-1.21,3.51-2.82h3.29c1.59,0,3.11.64,4.19,1.75,1.02,1.05,1.55,2.42,1.51,3.83l-.41,6.23h1l.4-6.18c.06-1.7-.58-3.33-1.79-4.58-1.26-1.31-3.05-2.05-4.91-2.05h-3.2v-1.41s0-.03,0-.04c2.04-1.23,3.42-3.46,3.42-6.01v-3.48c.73-.6,1.3-1.4,1.6-2.34.3-.95.11-1.97-.52-2.75s-1.59-1.18-2.58-1.07l-7.67.78c-2.75.28-4.83,2.58-4.83,5.34v.43h-.02v3.08c0,2.55,1.37,4.78,3.42,6.01,0,.01,0,.03,0,.04v1.41h-3.07c-1.86,0-3.64.75-4.91,2.05-1.21,1.25-1.84,2.88-1.79,4.6l.4,6.16h1l-.41-6.21ZM9.85,10.94v-1.61s.02-.06.02-.09v-1.81c0-2.25,1.69-4.12,3.93-4.35l7.67-.78c.67-.07,1.28.19,1.7.71.42.52.54,1.18.34,1.81-.28.89-.87,1.63-1.61,2.12h-.04v.02c-.35.23-.74.4-1.16.5-.38.09-.64.11-.65.11-.04,0-3.61.2-5.8-2.33-.18-.21-.5-.23-.71-.05-.21.18-.23.5-.05.71,2.52,2.91,6.46,2.68,6.63,2.68,0,0,.33-.03.8-.14.32-.08.63-.19.93-.33v2.84c0,3.31-2.69,6.01-6.01,6.01s-6.01-2.69-6.01-6.01ZM15.86,17.94c.92,0,1.79-.18,2.6-.5v1.19c0,1.43-1.17,2.6-2.6,2.6s-2.6-1.17-2.6-2.6v-1.19c.8.32,1.68.5,2.6.5Z"/>
  <path d="M8.95,25.85v-.67c0-.28-.22-.5-.5-.5s-.5.22-.5.5v6.03h1v-5.36Z"/>
  <path d="M23.89,25.85v-.67c0-.28-.22-.5-.5-.5s-.5.22-.5.5v6.03h1v-5.36Z"/>
</svg>