<?xml version="1.0" encoding="UTF-8"?>
<svg id="Layer_1" data-name="Layer 1" xmlns="http://www.w3.org/2000/svg" viewBox="0 0 32 32">
  <defs>
    <style>
      .cls-1 {
        fill: none;
      }

      .cls-2 {
        fill: #0328d1;
      }
    </style>
  </defs>
  <polygon class="cls-1" points="7.8 14.71 11.68 10.83 15.77 14.99 23.71 7.05 5.67 7.05 5.67 26.34 25.92 26.34 25.92 12.59 15.77 22.74 7.8 14.71"/>
  <polygon points="25.92 12.59 25.92 26.34 5.67 26.34 5.67 7.05 23.71 7.05 24.71 6.05 4.67 6.05 4.67 27.34 26.92 27.34 26.92 11.59 25.92 12.59"/>
  <polygon class="cls-2" points="15.77 14.99 11.68 10.83 7.8 14.71 15.77 22.74 25.92 12.59 26.92 11.59 30.99 7.53 27.11 3.65 24.71 6.05 23.71 7.05 15.77 14.99"/>
</svg>