<?xml version="1.0" encoding="UTF-8"?>
<svg id="Layer_1" data-name="Layer 1" xmlns="http://www.w3.org/2000/svg" viewBox="0 0 32 32">
  <defs>
    <style>
      .cls-1 {
        fill: none;
      }

      .cls-2 {
        fill: #0328d1;
      }
    </style>
  </defs>
  <path class="cls-1" d="M23.73,13.86c-.76,0-1.37.62-1.37,1.37s.62,1.37,1.37,1.37,1.37-.62,1.37-1.37-.62-1.37-1.37-1.37Z"/>
  <path class="cls-1" d="M20.96,21.3c.06-.38.17-.74.31-1.09-.47.13-1.02.21-1.58.16-1.22-.11-2.1-1.01-2.6-1.71l-.25.49c.14.41.59,1.47,1.57,2.03.7.4,1.55.47,2.54.23,0-.04,0-.07,0-.11Z"/>
  <path class="cls-1" d="M24.01,19.09c-.99,0-1.54.88-1.78,1.4-.14.3-.23.63-.29.97-.07.44-.07.91,0,1.38l1.04,7.57h1.36l.2-7.54,1,.03-.06,2.32.68-.38.08-2.62c0-1.27-.8-3.13-2.24-3.13Z"/>
  <path d="M23.73,12.86c-1.31,0-2.37,1.06-2.37,2.37s1.06,2.37,2.37,2.37,2.37-1.06,2.37-2.37-1.06-2.37-2.37-2.37ZM23.73,16.6c-.76,0-1.37-.62-1.37-1.37s.62-1.37,1.37-1.37,1.37.62,1.37,1.37-.62,1.37-1.37,1.37Z"/>
  <path d="M24.01,18.09c-.63,0-1.2.23-1.69.63h0s-1.27.77-2.53.66c-1.39-.12-2.26-1.94-2.27-1.96l-.44-.93-1.3,2.56.05.18c.02.08.49,1.89,2.08,2.81.59.34,1.26.52,1.98.52.33,0,.68-.05,1.03-.12.01.18.02.36.04.54l1.16,8.43h3.2l.13-5.03,1.7-.95.1-3.2c0-1.74-1.13-4.14-3.24-4.14ZM18.41,21.18c-.98-.56-1.43-1.62-1.57-2.03l.25-.49c.5.7,1.38,1.61,2.6,1.71.56.05,1.1-.04,1.58-.16-.14.35-.25.71-.31,1.09,0,.04,0,.07,0,.11-.98.24-1.84.17-2.54-.23ZM26.17,24.83l-.68.38.06-2.32-1-.03-.2,7.54h-1.36l-1.04-7.57c-.07-.47-.08-.94,0-1.38.05-.34.15-.67.29-.97.24-.52.79-1.4,1.78-1.4,1.44,0,2.24,1.86,2.24,3.13l-.08,2.62Z"/>
  <path class="cls-2" d="M19.91,14.64v-3.12h4.16c.82,0,1.48-.66,1.48-1.49V2.66c0-.82-.66-1.48-1.48-1.48H6.73c-.82,0-1.48.66-1.48,1.48v7.38c0,.82.66,1.49,1.48,1.49h9.58l3.61,3.12Z"/>
</svg>