<?xml version="1.0" encoding="UTF-8"?>
<svg id="Layer_1" data-name="Layer 1" xmlns="http://www.w3.org/2000/svg" viewBox="0 0 32 32">
  <defs>
    <style>
      .cls-1 {
        fill: none;
      }

      .cls-2 {
        fill: #d0d9ef;
      }

      .cls-3 {
        fill: #0328d1;
      }
    </style>
  </defs>
  <path class="cls-1" d="M8.51,19.14c-.38.8-.72,1.61-1.02,2.45l3.46,3.46c.84-.3,1.65-.65,2.45-1.02l-4.88-4.88Z"/>
  <path class="cls-1" d="M25.05,7.28h.15v6.07l-.15-.15v.15l-5.99-5.99c-1.82,1.13-3.53,2.48-5.07,4.02-2.04,2.04-3.71,4.33-5,6.82l5.33,5.33s.01.02.02.03c2.5-1.3,4.79-2.97,6.83-5.01,4.12-4.12,6.85-9.39,7.73-14.91-3.4.55-6.7,1.8-9.7,3.63h5.85Z"/>
  <path class="cls-2" d="M25.05,13.2l-5.9-5.9s-.06.03-.09.05l5.99,5.99v-.15Z"/>
  <path class="cls-3" d="M25.2,13.35v-6.07h-6s-.03.02-.04.03l5.9,5.9.15.15Z"/>
  <path d="M29.42,2.56c-5.98.8-11.71,3.68-16.14,8.11-.73.73-1.42,1.5-2.06,2.29l-8.29.39L.45,15.83l6.91,3.42c-.34.75-.65,1.52-.92,2.3l-.1.3.55.55-2.04,2.04c-.2.2-.2.51,0,.71.1.1.23.15.35.15s.26-.05.35-.15l2.04-2.04,1.81,1.81-2.04,2.04c-.2.2-.2.51,0,.71.1.1.23.15.35.15s.26-.05.35-.15l2.04-2.04.56.56.3-.1c.77-.27,1.53-.58,2.27-.91l3.37,6.81,2.48-2.48.39-8.13c.83-.66,1.62-1.38,2.39-2.14,4.43-4.43,7.31-10.17,8.11-16.14l.09-.65-.65.09ZM10.95,25.05l-3.46-3.46c.3-.84.65-1.65,1.02-2.45l4.88,4.88c-.8.38-1.61.72-2.45,1.02ZM21.16,18.55c-2.04,2.04-4.33,3.71-6.83,5.01,0-.01-.01-.02-.02-.03l-5.33-5.33c1.3-2.5,2.97-4.78,5-6.82,1.54-1.54,3.25-2.89,5.07-4.02.03-.02.06-.03.09-.05.01,0,.03-.02.04-.03,3-1.84,6.3-3.09,9.7-3.63-.89,5.52-3.62,10.79-7.73,14.91Z"/>
  <path d="M5.49,26.2l-2.33,2.33c-.2.2-.2.51,0,.71.1.1.23.15.35.15s.26-.05.35-.15l2.33-2.33c.2-.2.2-.51,0-.71s-.51-.2-.71,0Z"/>
</svg>