<?xml version="1.0" encoding="UTF-8"?>
<svg id="Layer_1" data-name="Layer 1" xmlns="http://www.w3.org/2000/svg" xmlns:xlink="http://www.w3.org/1999/xlink" viewBox="0 0 32 32">
  <defs>
    <style>
      .cls-1 {
        fill: none;
      }

      .cls-2 {
        clip-path: url(#clippath-1);
      }

      .cls-3 {
        fill: #0328d1;
      }

      .cls-4 {
        clip-path: url(#clippath);
      }
    </style>
    <clipPath id="clippath">
      <polygon class="cls-1" points="18.57 16.68 14.07 15.59 14.07 14.05 18.57 15.12 18.57 16.68"/>
    </clipPath>
    <clipPath id="clippath-1">
      <polygon class="cls-1" points="18.93 17.31 13.57 16.01 13.54 18.36 18.57 19.48 18.93 17.31"/>
    </clipPath>
  </defs>
  <path d="M2.38,30.07l-.69-.72c2.1-2,4.91-3.11,7.93-3.11,2.84,0,5.54,1,7.6,2.81l-.66.75c-1.88-1.65-4.34-2.56-6.94-2.56-2.76,0-5.33,1.01-7.24,2.83Z"/>
  <path d="M15.69,30.07l-.69-.72c2.1-2,4.91-3.11,7.93-3.11,2.84,0,5.54,1,7.6,2.81l-.66.75c-1.88-1.65-4.34-2.56-6.94-2.56-2.76,0-5.33,1.01-7.24,2.83Z"/>
  <path d="M30.97,30.21H1.17V9.93l.15-.15c2.17-2.07,5.08-3.21,8.19-3.21v1c-2.78,0-5.38.99-7.35,2.79v18.85h27.8V10.08c-1.92-1.62-4.41-2.51-7.03-2.51v-1c2.94,0,5.73,1.03,7.86,2.91l.17.15v20.58Z"/>
  <rect x="15.77" y="19.71" width="1" height="10"/>
  <path class="cls-3" d="M21.6,6.63c0-3.12-2.7-5.61-5.89-5.25-2.35.26-4.29,2.13-4.63,4.48-.29,2.02.57,3.86,2.02,4.97.66.5,1.01,1.31,1.01,2.13v.64l4.4.99v-1.72c0-.78.34-1.54.96-2.01,1.29-.96,2.12-2.5,2.12-4.23Z"/>
  <g class="cls-4">
    <path class="cls-3" d="M19.22,16.59s-.08,0-.12-.01l-6.11-1.49c-.27-.07-.43-.34-.37-.6.07-.27.34-.43.6-.37l6.11,1.49c.27.07.43.34.37.6-.06.23-.26.38-.49.38Z"/>
  </g>
  <g class="cls-2">
    <path class="cls-3" d="M16.41,18.48c-1.24,0-2.19-.98-2.19-2.18v-.43h1v.43c0,.65.5,1.18,1.11,1.18.69,0,1.19-.53,1.19-1.18v-.48h1v.48c0,1.2-.95,2.18-2.11,2.18Z"/>
  </g>
</svg>