<?xml version="1.0" encoding="UTF-8"?>
<svg id="Layer_1" data-name="Layer 1" xmlns="http://www.w3.org/2000/svg" viewBox="0 0 32 32">
  <defs>
    <style>
      .cls-1 {
        fill: #fff;
      }

      .cls-2 {
        fill: #0328d1;
      }
    </style>
  </defs>
  <polygon points="16 20.9 2.31 14.1 16 7.31 29.69 14.1 25.1 16.39 25.1 17.5 31.94 14.1 16 6.19 .06 14.1 6.98 17.54 6.98 21.96 16 26.44 22.71 23.11 22.71 17.57 16 20.9"/>
  <path class="cls-1" d="M23.4,22.69v-5.45l-.69-.34v7.15h.56c-.16-.16-.26-.39-.26-.63,0-.31.16-.56.39-.73Z"/>
  <path class="cls-2" d="M24.56,24.05c.16-.16.26-.39.26-.63,0-.32-.18-.59-.43-.75v-6.05l-1.69-.84-5.3-2.63c-.34-.4-.84-.66-1.41-.66-.75,0-1.4.45-1.68,1.1h1.72l6.67,3.32.69.34v5.45c-.23.16-.39.42-.39.73,0,.25.1.47.26.63.11.11.26.19.42.23l-1.16,6.24h2.78l-1.16-6.24c.16-.04.3-.12.42-.23Z"/>
</svg>