<?xml version="1.0" encoding="UTF-8"?>
<svg id="Layer_1" data-name="Layer 1" xmlns="http://www.w3.org/2000/svg" viewBox="0 0 32 32">
  <defs>
    <style>
      .cls-1 {
        fill: none;
      }

      .cls-2 {
        fill: #0328d1;
      }
    </style>
  </defs>
  <path class="cls-1" d="M21.03,20.21c-.12.13-.23.27-.36.4-.16.16-.33.3-.49.45l1.13,1.11.85-.86-1.12-1.1Z"/>
  <path class="cls-1" d="M7.2,19.72c0-2.64,2.14-4.78,4.78-4.78h1.08c2.64,0,4.78,2.14,4.78,4.78v1.83c.76-.45,1.47-.99,2.12-1.64,4.03-4.1,3.98-10.72-.12-14.75-1.96-1.93-4.56-2.99-7.31-2.99-.03,0-.06,0-.09,0-2.79.02-5.4,1.13-7.35,3.11-4.03,4.1-3.98,10.72.12,14.75.61.6,1.29,1.1,1.99,1.52v-1.83ZM12.52,7.16c1.74,0,3.15,1.41,3.15,3.15s-1.41,3.15-3.15,3.15-3.15-1.41-3.15-3.15,1.41-3.15,3.15-3.15Z"/>
  <path class="cls-1" d="M23.59,21.28l-2.3,2.33,6.43,6.32c.31.3.73.45,1.15.46.43,0,.84-.18,1.14-.48.33-.34.5-.74.49-1.18,0-.43-.18-.84-.48-1.14l-6.43-6.32Z"/>
  <path class="cls-2" d="M12.52,13.46c1.74,0,3.15-1.41,3.15-3.15s-1.41-3.15-3.15-3.15-3.15,1.41-3.15,3.15,1.41,3.15,3.15,3.15Z"/>
  <path class="cls-2" d="M13.06,14.94h-1.08c-2.64,0-4.78,2.14-4.78,4.78v1.83c3.27,1.94,7.37,1.94,10.64,0v-1.83c0-2.64-2.14-4.78-4.78-4.78Z"/>
  <path d="M30.72,26.89l-7.14-7.02-.72.74-1.16-1.14-.19.19c1.6-2.03,2.46-4.52,2.44-7.15-.03-3.05-1.24-5.91-3.41-8.05-2.15-2.12-5-3.28-8.01-3.28-.03,0-.06,0-.1,0-3.05.03-5.91,1.24-8.05,3.41-2.14,2.18-3.31,5.06-3.28,8.11.03,3.05,1.24,5.91,3.41,8.05,2.22,2.19,5.12,3.28,8.01,3.28,2.43,0,4.85-.78,6.88-2.31l1.2,1.18-.72.74,7.14,7.02c.49.49,1.14.75,1.83.75h.02c.7,0,1.35-.28,1.87-.81.49-.5.76-1.16.75-1.86,0-.7-.28-1.35-.78-1.84ZM5.09,5.28c1.95-1.99,4.56-3.09,7.35-3.11.03,0,.06,0,.09,0,2.75,0,5.35,1.06,7.31,2.99,4.1,4.03,4.15,10.65.12,14.75-.64.66-1.36,1.2-2.12,1.64-3.27,1.94-7.37,1.94-10.64,0-.71-.42-1.38-.92-1.99-1.52-4.1-4.03-4.15-10.65-.12-14.75ZM20.18,21.06c.17-.15.34-.29.49-.45.13-.13.24-.27.36-.4l1.12,1.1-.85.86-1.13-1.11ZM30.01,29.91c-.3.31-.71.48-1.14.48-.42,0-.84-.16-1.15-.46l-6.43-6.32,2.3-2.33,6.43,6.32c.31.3.48.71.48,1.14,0,.43-.16.84-.49,1.18Z"/>
</svg>