<?xml version="1.0" encoding="UTF-8"?>
<svg id="Layer_1" data-name="Layer 1" xmlns="http://www.w3.org/2000/svg" viewBox="0 0 32 32">
  <defs>
    <style>
      .cls-1 {
        fill: none;
      }

      .cls-2 {
        fill: #0328d1;
      }
    </style>
  </defs>
  <path class="cls-1" d="M1.36,25.6c0,.4.32.72.72.72h27.69c.4,0,.72-.32.72-.72v-.51H1.36v.51Z"/>
  <path d="M4.26,8.52c0-.38.31-.7.7-.7h21.79c.38,0,.7.31.7.7v15.56h1v-15.56c0-.94-.76-1.7-1.7-1.7H4.95c-.94,0-1.7.76-1.7,1.7v15.56h1v-15.56Z"/>
  <path d="M.36,24.09v1.51c0,.95.77,1.72,1.72,1.72h27.69c.95,0,1.72-.77,1.72-1.72v-1.51H.36ZM30.49,25.6c0,.4-.32.72-.72.72H2.08c-.4,0-.72-.32-.72-.72v-.51h29.13v.51Z"/>
  <path class="cls-2" d="M18.68,13.35v-2.63h-2.63c-.28,0-.5.22-.5.5s.22.5.5.5h.79l-9.19,9.19c-.2.2-.2.51,0,.71.1.1.23.15.35.15s.26-.05.35-.15l9.32-9.32v1.05c0,.28.22.5.5.5s.5-.22.5-.5Z"/>
  <polygon class="cls-2" points="15.45 21.79 17.96 21.79 17.96 14.67 15.45 17.2 15.45 21.79"/>
  <polygon class="cls-2" points="21.88 21.79 21.88 10.69 19.38 13.22 19.38 21.79 21.88 21.79"/>
  <polygon class="cls-2" points="14.05 21.79 14.05 18.53 11.55 21.08 11.55 21.79 14.05 21.79"/>
</svg>