<?xml version="1.0" encoding="UTF-8"?>
<svg id="Layer_1" data-name="Layer 1" xmlns="http://www.w3.org/2000/svg" viewBox="0 0 32 32">
  <defs>
    <style>
      .cls-1 {
        fill: #0328d1;
      }
    </style>
  </defs>
  <g>
    <path d="M10.88,7.8c-1.58,0-2.86-1.28-2.86-2.86s1.28-2.86,2.86-2.86,2.86,1.28,2.86,2.86-1.28,2.86-2.86,2.86ZM10.88,3.08c-1.03,0-1.86.83-1.86,1.86s.83,1.86,1.86,1.86,1.86-.83,1.86-1.86-.83-1.86-1.86-1.86Z"/>
    <path d="M20.97,7.8c-1.58,0-2.86-1.28-2.86-2.86s1.28-2.86,2.86-2.86,2.86,1.28,2.86,2.86-1.28,2.86-2.86,2.86ZM20.97,3.08c-1.03,0-1.86.83-1.86,1.86s.83,1.86,1.86,1.86,1.86-.83,1.86-1.86-.83-1.86-1.86-1.86Z"/>
  </g>
  <rect x="3.3" y="17.24" width="1" height="13.13" transform="translate(-1.43 .27) rotate(-3.46)"/>
  <path d="M3.62,23.77l-2.33-.79-.86-4.21c-.3-1.69-.04-3.02.76-3.96,1.38-1.64,4.03-1.64,4.9-1.64v1c-.76,0-3.06,0-4.14,1.28-.6.71-.78,1.77-.54,3.13l.74,3.63,1.79.6-.32.95Z"/>
  <rect x="1.36" y="23.3" width="13.13" height="1" transform="translate(-16.32 30.28) rotate(-86.56)"/>
  <path d="M8.1,23.77l-.33-.94,1.72-.6.81-3.65c.24-1.35.05-2.4-.54-3.11-1.08-1.28-3.38-1.28-4.14-1.28v-1c.87,0,3.53,0,4.9,1.64.8.95,1.05,2.28.76,3.95l-.94,4.22-2.25.79Z"/>
  <rect x="23.48" y="17.24" width="1" height="13.13" transform="translate(-1.39 1.49) rotate(-3.45)"/>
  <path d="M23.8,23.77l-2.33-.79-.86-4.21c-.3-1.69-.04-3.02.76-3.96,1.38-1.64,4.03-1.64,4.9-1.64v1c-.76,0-3.06,0-4.14,1.28-.6.71-.78,1.77-.54,3.13l.74,3.63,1.79.6-.32.95Z"/>
  <rect x="21.54" y="23.3" width="13.13" height="1" transform="translate(2.65 50.42) rotate(-86.56)"/>
  <path d="M28.28,23.77l-.33-.94,1.72-.6.81-3.65c.24-1.35.05-2.4-.54-3.11-1.08-1.28-3.38-1.28-4.14-1.28v-1c.87,0,3.53,0,4.9,1.64.8.95,1.05,2.28.76,3.95l-.94,4.22-2.25.79Z"/>
  <g>
    <path d="M5.84,12.52c-1.58,0-2.86-1.28-2.86-2.86s1.28-2.86,2.86-2.86,2.86,1.28,2.86,2.86-1.28,2.86-2.86,2.86ZM5.84,7.8c-1.03,0-1.86.83-1.86,1.86s.83,1.86,1.86,1.86,1.86-.83,1.86-1.86-.83-1.86-1.86-1.86Z"/>
    <path d="M26.02,12.52c-1.58,0-2.86-1.28-2.86-2.86s1.28-2.86,2.86-2.86,2.86,1.28,2.86,2.86-1.28,2.86-2.86,2.86ZM26.02,7.8c-1.03,0-1.86.83-1.86,1.86s.83,1.86,1.86,1.86,1.86-.83,1.86-1.86-.83-1.86-1.86-1.86Z"/>
    <path class="cls-1" d="M15.93,12.53c-1.58,0-2.86-1.28-2.86-2.86s1.28-2.86,2.86-2.86,2.86,1.28,2.86,2.86-1.28,2.86-2.86,2.86ZM15.93,7.81c-1.03,0-1.86.83-1.86,1.86s.83,1.86,1.86,1.86,1.86-.83,1.86-1.86-.83-1.86-1.86-1.86Z"/>
  </g>
  <rect class="cls-1" x="13.39" y="17.25" width="1" height="13.13" transform="translate(-1.41 .88) rotate(-3.46)"/>
  <path class="cls-1" d="M13.71,23.78l-2.33-.79-.86-4.21c-.3-1.69-.04-3.02.76-3.96,1.38-1.64,4.03-1.64,4.9-1.64v1c-.76,0-3.06,0-4.14,1.28-.6.71-.78,1.77-.54,3.13l.74,3.63,1.78.6-.32.95Z"/>
  <rect class="cls-1" x="11.45" y="23.32" width="13.13" height="1" transform="translate(-6.84 40.36) rotate(-86.56)"/>
  <path class="cls-1" d="M18.19,23.78l-.33-.94,1.72-.6.81-3.65c.24-1.35.05-2.4-.54-3.11-1.08-1.28-3.38-1.28-4.14-1.28v-1c.87,0,3.53,0,4.9,1.64.8.95,1.05,2.28.76,3.95l-.94,4.22-2.25.79Z"/>
</svg>