<?xml version="1.0" encoding="UTF-8"?>
<svg id="Layer_1" data-name="Layer 1" xmlns="http://www.w3.org/2000/svg" viewBox="0 0 32 32">
  <defs>
    <style>
      .cls-1 {
        fill: none;
      }

      .cls-2 {
        fill: #0328d1;
      }
    </style>
  </defs>
  <path class="cls-1" d="M16.11,8.73c-4.42,0-8.02,3.6-8.02,8.02s3.6,8.02,8.02,8.02,8.02-3.6,8.02-8.02-3.6-8.02-8.02-8.02ZM19.72,19.86c-.1.13-.25.2-.4.2-.1,0-.21-.03-.3-.1l-2.71-2.02c-.07.01-.13.04-.21.04-.11,0-.21-.04-.3-.06l-3.38,3.03c-.07.06-.16.1-.25.1-.1,0-.21-.04-.28-.12-.14-.15-.12-.39.03-.53l3.23-2.9c-.16-.21-.27-.46-.27-.74,0-.5.3-.92.73-1.12v-4.85c0-.28.22-.5.5-.5s.5.22.5.5v4.85c.43.19.73.62.73,1.12,0,.21-.07.4-.16.58l2.45,1.83c.22.17.27.48.1.7Z"/>
  <path class="cls-1" d="M26.81,7.41c.33-.66.44-1.4.31-2.14-.16-.91-.67-1.69-1.42-2.22-1.42-.99-3.33-.76-4.48.47l3.65,2.54,1.94,1.36Z"/>
  <path class="cls-1" d="M8.49,2.43c-.68,0-1.36.2-1.96.62-.75.53-1.26,1.31-1.42,2.22-.13.74-.02,1.48.31,2.14l1.94-1.36,3.65-2.54c-.67-.71-1.58-1.08-2.51-1.08Z"/>
  <path class="cls-1" d="M26.61,16.75c0-5.79-4.71-10.5-10.5-10.5s-10.5,4.71-10.5,10.5,4.71,10.5,10.5,10.5,10.5-4.71,10.5-10.5ZM16.11,25.78c-4.97,0-9.02-4.05-9.02-9.02s4.05-9.02,9.02-9.02,9.02,4.05,9.02,9.02-4.05,9.02-9.02,9.02Z"/>
  <path d="M27.61,16.75c0-3.82-1.88-7.19-4.75-9.29l.82-1.02,3,2.09c.09.06.19.09.29.09.16,0,.31-.07.41-.21.68-.97.94-2.15.73-3.32s-.86-2.19-1.83-2.86c-2.01-1.4-4.78-.9-6.19,1.1-.08.11-.11.24-.08.37.02.13.1.25.21.32l2.65,1.85-.83,1.04c-1.6-.96-3.44-1.55-5.42-1.63v-1.55h.84c.28,0,.5-.22.5-.5s-.22-.5-.5-.5h-2.67c-.28,0-.5.22-.5.5s.22.5.5.5h.83v1.55c-1.98.09-3.82.67-5.41,1.63l-.83-1.04,2.65-1.85c.11-.08.18-.19.21-.32.02-.13,0-.26-.08-.37-1.4-2.01-4.17-2.51-6.19-1.1-.97.68-1.62,1.7-1.83,2.86s.05,2.35.73,3.32c.1.14.25.21.41.21.1,0,.2-.03.29-.09l3-2.09.82,1.02c-2.87,2.09-4.75,5.47-4.75,9.29,0,3.19,1.31,6.08,3.41,8.16l-1.02,5.43h1.38l2.17-3.53c1.65.91,3.54,1.44,5.56,1.44s3.91-.53,5.56-1.44l2.17,3.53h1.38l-1.02-5.44c2.1-2.08,3.4-4.97,3.4-8.16ZM25.7,3.04c.75.53,1.26,1.31,1.42,2.22.13.74.02,1.48-.31,2.14l-1.94-1.36-3.65-2.54c1.15-1.23,3.06-1.46,4.48-.47ZM5.41,7.41c-.33-.66-.44-1.4-.31-2.14.16-.91.67-1.69,1.42-2.22.6-.42,1.28-.62,1.96-.62.93,0,1.85.38,2.51,1.08l-3.65,2.54-1.94,1.36ZM5.61,16.75c0-5.79,4.71-10.5,10.5-10.5s10.5,4.71,10.5,10.5-4.71,10.5-10.5,10.5-10.5-4.71-10.5-10.5Z"/>
  <path d="M16.11,7.73c-4.97,0-9.02,4.05-9.02,9.02s4.05,9.02,9.02,9.02,9.02-4.05,9.02-9.02-4.05-9.02-9.02-9.02ZM16.11,24.78c-4.42,0-8.02-3.6-8.02-8.02s3.6-8.02,8.02-8.02,8.02,3.6,8.02,8.02-3.6,8.02-8.02,8.02Z"/>
  <path class="cls-2" d="M17.17,17.33c.09-.17.16-.36.16-.58,0-.5-.3-.92-.73-1.12v-4.85c0-.28-.22-.5-.5-.5s-.5.22-.5.5v4.85c-.43.19-.73.62-.73,1.12,0,.28.11.53.27.74l-3.23,2.9c-.15.14-.17.38-.03.53.07.08.18.12.28.12.09,0,.18-.03.25-.1l3.38-3.03c.1.03.2.06.3.06.07,0,.14-.03.21-.04l2.71,2.02c.09.07.19.1.3.1.15,0,.3-.07.4-.2.17-.22.12-.53-.1-.7l-2.45-1.83Z"/>
</svg>