<?xml version="1.0" encoding="UTF-8"?>
<svg id="Layer_1" data-name="Layer 1" xmlns="http://www.w3.org/2000/svg" viewBox="0 0 32 32">
  <defs>
    <style>
      .cls-1 {
        fill: none;
      }

      .cls-2 {
        fill: #0328d1;
      }

      .cls-3 {
        fill: #0f0f0f;
      }
    </style>
  </defs>
  <path class="cls-1" d="M25.67,11.26l-.1-.18c-.09-.16-.24-.27-.41-.32-.06-.02-.12-.02-.18-.02-.12,0-.24.03-.34.09l-1.61.93c-.16.09-.27.24-.32.41-.05.18-.02.36.07.52l.1.17c.09.16.24.27.41.32.15.04.3.02.44-.04l.34-.2s.1-.05.15-.07l1.2-.69c.33-.19.44-.61.25-.93Z"/>
  <path class="cls-1" d="M22.78,20.83c.12-.27.19-.56.2-.87-.38-.13-.71-.39-.91-.74l-.1-.17c-.43-.74-.22-1.67.44-2.17-.16-.12-.3-.27-.41-.44l-1.59,3.19,2.38,1.21Z"/>
  <path class="cls-1" d="M12.28,16.63c.06.17.12.35.19.54.37,1.03.91,2.52.78,4.17l1.68-3.37-2.65-1.34Z"/>
  <path class="cls-1" d="M12.24,15.49l7.27,3.68,2.28-4.57s0,0,0,0l.46-.92c-.09-.09-.17-.19-.24-.31l-.1-.17c-.22-.39-.28-.84-.17-1.28.05-.2.15-.39.27-.56-.26-.15-.48-.35-.63-.62l-.1-.17c-.46-.8-.19-1.83.62-2.3l.15-.08-4.91-2.49-4.88,9.79ZM20.52,11.87c0,2.33-2.48,4.43-2.48,4.43,0,0-2.48-2.04-2.48-4.43,0-1.37,1.11-2.48,2.48-2.48s2.48,1.11,2.48,2.48Z"/>
  <path class="cls-1" d="M19.14,22.14h1.6c.54,0,1.03-.2,1.42-.52l-2.2-1.11-.81,1.63Z"/>
  <path class="cls-1" d="M11.16,8.63v.27c.68.68,1.26,2.04,1.24,4.03l1.47-2.94-2.7-1.37Z"/>
  <polygon class="cls-1" points="15.82 18.42 13.96 22.14 18.02 22.14 19.06 20.06 15.82 18.42"/>
  <path class="cls-1" d="M25.5,14.06c-.13-.22-.36-.34-.59-.34-.1,0-.19.03-.28.08l-.33.19s-.07.03-.11.05l-1.24.71c-.33.19-.44.61-.25.93l.1.17c.09.16.24.27.41.32.13.03.26.02.39-.02l.03-.02c.08-.05.16-.08.25-.11l1.47-.85c.16-.09.27-.24.32-.41.05-.18.02-.36-.07-.52l-.1-.17Z"/>
  <path class="cls-1" d="M22.98,7.55v-3.57c0-1.24-1.01-2.25-2.25-2.25h-1.63l-1.53,3.08,5.42,2.74Z"/>
  <path class="cls-1" d="M24.04,17.05l-.96.56c-.33.19-.44.61-.25.93l.1.17c.09.16.24.27.41.32.18.05.36.02.52-.07l1.06-.61c.16-.09.27-.24.32-.41s.02-.36-.07-.52l-.1-.18c-.13-.22-.36-.34-.59-.34-.08,0-.16.03-.24.06h0c-.06.04-.13.05-.19.08Z"/>
  <path class="cls-1" d="M22.14,10.07l.1.17c.09.16.24.27.41.32.17.05.36.02.52-.07l2.02-1.17c.16-.09.27-.24.32-.41.05-.18.02-.36-.07-.52l-.1-.17c-.09-.16-.24-.27-.41-.32-.06-.02-.12-.02-.18-.02-.12,0-.23.03-.34.09l-2.02,1.17c-.33.19-.44.61-.25.93Z"/>
  <path class="cls-1" d="M17.99,1.73h-4.58c-.44,0-.86.13-1.21.36l4.48,2.27,1.31-2.62Z"/>
  <path class="cls-1" d="M12.82,23.14c-.12.29-.27.59-.45.88-.09.15-.26.24-.43.24-.09,0-.18-.02-.26-.07-.23-.15-.31-.45-.16-.69,1.37-2.23.56-4.49.01-5.99-.2-.56-.37-1.01-.4-1.38-.06-.72.14-1.75.14-1.79.41-2.55-.22-4.17-.87-4.78-.2-.19-.41-.28-.55-.25-.16.04-.2.05-.25,1.08-.01.29-.03.62-.06,1.02-.05.7-.24,2.51-.46,3.64-.62,3.23-2.15,5.08-2.77,5.72l5.16,6.05c.53-.46,1.6-1.29,2.6-1.48.19-.04.43-.07.71-.11,1.43-.19,3.7-.51,4.81-2.09h-6.79Z"/>
  <path class="cls-1" d="M14.31,9.1l1.92-3.85-4.75-2.41c-.2.33-.32.72-.32,1.14v3.53l3.15,1.59Z"/>
  <path class="cls-2" d="M14.31,9.1l-3.15-1.59v1.12l2.7,1.37-1.47,2.94c0,.49-.04,1.01-.13,1.58-.05.27-.17,1.05-.13,1.53.01.14.07.35.15.58l2.65,1.34-1.68,3.37c-.02.27-.06.53-.12.81h.83l1.86-3.72,3.24,1.64-1.04,2.08h1.12l.81-1.63,2.2,1.11c.27-.22.48-.49.63-.8l-2.38-1.21,1.59-3.19s-.04-.05-.05-.07l-.1-.17c-.29-.5-.29-1.09-.06-1.58l-2.28,4.57-7.27-3.68,4.88-9.79,4.91,2.49.95-.55v-.09l-5.42-2.74,1.53-3.08h-1.12l-1.31,2.62-4.48-2.27c-.3.19-.54.45-.72.75l4.75,2.41-1.92,3.85Z"/>
  <path class="cls-2" d="M22.45,13.88h.02c-.08-.07-.16-.13-.23-.2l-.46.92c.14-.29.37-.54.67-.72Z"/>
  <path class="cls-3" d="M26.37,13.56c-.12-.2-.27-.37-.45-.51h0c.8-.47,1.08-1.5.62-2.3l-.1-.18c-.13-.23-.31-.41-.52-.55.27-.22.47-.52.56-.86.12-.43.06-.89-.17-1.28l-.1-.17c-.23-.39-.59-.67-1.02-.78-.41-.11-.83-.06-1.2.13v-3.1c0-1.79-1.46-3.25-3.25-3.25h-7.33c-1.79,0-3.25,1.46-3.25,3.25v4.36c-.18-.03-.36-.04-.53,0-.94.22-.97.97-1.02,2.01-.01.28-.03.61-.06.99-.05.65-.23,2.45-.44,3.52-.55,2.84-1.87,4.52-2.45,5.15l-.02-.03c-.28-.33-.77-.42-1.15-.21l-3.48,1.9c-.24.13-.33.44-.2.68.13.24.44.33.68.2l3.39-1.92,6.67,7.72-2.58,2.34c-.2.19-.22.5-.04.71.1.11.23.16.37.16.12,0,.24-.04.34-.13l2.58-2.34c.37-.34.41-.91.08-1.29l-.18-.21c.51-.44,1.42-1.12,2.15-1.26.17-.03.39-.06.65-.1,1.64-.22,4.62-.64,5.82-3.08,1.75,0,3.17-1.41,3.22-3.15.13-.04.26-.09.39-.16l1.06-.61c.39-.23.67-.59.78-1.02.12-.43.06-.89-.17-1.28l-.1-.18c-.12-.2-.27-.37-.44-.5l.36-.21c.39-.22.67-.59.78-1.02s.06-.89-.17-1.28l-.1-.17ZM24.07,12.95l-.34.2c-.14.06-.29.08-.44.04-.18-.05-.32-.16-.41-.32l-.1-.17c-.09-.16-.12-.34-.07-.52.05-.18.16-.32.32-.41l1.61-.93c.1-.06.22-.09.34-.09.06,0,.12,0,.18.02.18.05.32.16.41.32l.1.18c.19.33.08.74-.25.93l-1.2.69c-.05.02-.1.04-.15.07ZM24.75,7.88c.06,0,.12,0,.18.02.18.05.32.16.41.32l.1.17c.09.16.12.34.07.52-.05.18-.16.32-.32.41l-2.02,1.17c-.16.09-.34.11-.52.07-.18-.05-.32-.16-.41-.32l-.1-.17c-.19-.33-.08-.74.25-.93l2.02-1.17c.1-.06.22-.09.34-.09ZM11.48,2.84c.18-.3.43-.56.72-.75.35-.22.76-.36,1.21-.36h7.33c1.24,0,2.25,1.01,2.25,2.25v3.66l-.95.55-.15.08c-.8.46-1.08,1.49-.62,2.3l.1.17c.15.26.37.47.63.62-.12.17-.22.35-.27.56-.12.43-.06.89.17,1.28l.1.17c.07.12.15.22.24.31.07.07.15.13.23.19h-.02c-.3.18-.53.44-.67.73,0,0,0,0,0,0-.24.49-.23,1.08.06,1.58l.1.17s.04.05.05.07c.11.17.25.32.41.44-.66.51-.87,1.43-.44,2.17l.1.17c.21.36.53.61.91.74,0,.31-.08.6-.2.87-.14.32-.36.59-.63.8-.39.32-.88.52-1.42.52h-7.6c.06-.27.1-.54.12-.81.13-1.64-.4-3.13-.78-4.17-.07-.2-.14-.38-.19-.54-.08-.24-.14-.44-.15-.58-.04-.48.08-1.26.13-1.53.09-.57.12-1.09.13-1.58.03-1.99-.56-3.35-1.24-4.03V3.98c0-.42.12-.8.32-1.14ZM14.8,25.23c-.28.04-.52.07-.71.11-1,.2-2.08,1.03-2.6,1.48l-5.16-6.05c.62-.65,2.15-2.49,2.77-5.72.22-1.13.4-2.94.46-3.64.03-.39.05-.73.06-1.02.05-1.04.08-1.04.25-1.08.14-.03.35.06.55.25.66.61,1.28,2.23.87,4.78,0,.04-.2,1.07-.14,1.79.03.37.19.82.4,1.38.54,1.5,1.36,3.76-.01,5.99-.15.24-.07.54.16.69.08.05.17.07.26.07.17,0,.33-.08.43-.24.18-.29.33-.59.45-.88h6.79c-1.1,1.58-3.38,1.9-4.81,2.09ZM24.48,16.9c.24,0,.47.12.59.34l.1.18c.09.16.12.34.07.52s-.16.32-.32.41l-1.06.61c-.16.09-.34.11-.52.07-.18-.05-.32-.16-.41-.32l-.1-.17c-.19-.33-.08-.74.25-.93l.96-.56c.06-.03.13-.04.19-.08h0c.08-.03.16-.07.24-.07ZM25.67,14.76c-.05.18-.16.32-.32.41l-1.47.85c-.08.03-.17.06-.25.11l-.03.02c-.12.04-.26.06-.39.02-.18-.05-.32-.16-.41-.32l-.1-.17c-.19-.33-.08-.74.25-.93l1.24-.71s.08-.03.11-.05l.33-.19c.09-.04.18-.08.28-.08.24,0,.47.12.59.34l.1.17c.09.16.12.34.07.52Z"/>
  <path class="cls-2" d="M15.56,11.87c0,2.39,2.48,4.43,2.48,4.43,0,0,2.48-2.1,2.48-4.43,0-1.37-1.11-2.48-2.48-2.48s-2.48,1.11-2.48,2.48ZM19.12,11.96c0,.6-.48,1.08-1.08,1.08s-1.08-.49-1.08-1.08.48-1.08,1.08-1.08,1.08.48,1.08,1.08Z"/>
</svg>