<?xml version="1.0" encoding="UTF-8"?>
<svg id="Layer_1" data-name="Layer 1" xmlns="http://www.w3.org/2000/svg" viewBox="0 0 32 32">
  <defs>
    <style>
      .cls-1 {
        fill: none;
      }

      .cls-2 {
        fill: #0328d1;
      }
    </style>
  </defs>
  <path class="cls-1" d="M18.56,16.45s0,0,0,0h2.42l-3.89-10.67c-.31-.84-1.11-1.4-2-1.4H4.12l4.04,11.09.36.99h10.04ZM15.57,5.45l2.99,8.2L7.37,5.45h8.2Z"/>
  <path class="cls-1" d="M25.44,8.02l-6.48-.04,3.28,9c.06.08.11.16.15.25.19.47.09,1.01-.28,1.37l-.42.42,2.15.02c.28,0,.5.22.5.5s-.22.5-.5.5h-2.14c-.41,0-.78-.25-.94-.63-.16-.38-.07-.81.22-1.1l.42-.42c.11-.11.08-.23.06-.28s-.08-.16-.23-.16h-1.87s0,0,0,0h-.78l.57,1.57c.36.98,1.3,1.64,2.35,1.64h8.35,0s.07-.1.07-.1l-4.48-12.55Z"/>
  <polygon class="cls-2" points="15.57 5.45 7.37 5.45 18.55 13.65 15.57 5.45"/>
  <path d="M30.86,20.23l-4.48-12.55c-.15-.42-.56-.71-1.01-.71h-6.78l-.56-1.54c-.45-1.23-1.63-2.06-2.94-2.06H4.53c.09-.21.15-.44.15-.69,0-.93-.76-1.69-1.69-1.69s-1.69.76-1.69,1.69.76,1.69,1.69,1.69c.02,0,.04,0,.06,0l4.76,13.08h0l4.57,12.56h1.06l-4.57-12.56h8.63l.7,1.92c.5,1.38,1.82,2.3,3.29,2.3h8.35c.35,0,.68-.17.88-.46.2-.29.25-.66.13-.98ZM2.99,2c.38,0,.69.31.69.69s-.31.69-.69.69-.69-.31-.69-.69.31-.69.69-.69ZM4.12,4.37h10.97c.89,0,1.7.56,2,1.4l3.89,10.67h-2.42s0,0,0,0h-10.04l-.36-.99L4.12,4.37ZM29.85,20.67h-8.35c-1.05,0-1.99-.66-2.35-1.64l-.57-1.57h.78s0,0,0,0h1.87c.15,0,.22.11.23.16s.05.17-.06.28l-.42.42c-.29.29-.38.72-.22,1.1.16.38.52.63.94.63h2.14c.28,0,.5-.22.5-.5s-.22-.5-.5-.5l-2.15-.02.42-.42c.36-.36.47-.9.28-1.37-.04-.09-.09-.17-.15-.25l-3.28-9,6.48.04,4.48,12.55-.07.1h0Z"/>
</svg>