<?xml version="1.0" encoding="UTF-8"?>
<svg id="Layer_1" data-name="Layer 1" xmlns="http://www.w3.org/2000/svg" viewBox="0 0 32 32">
  <defs>
    <style>
      .cls-1 {
        fill: #fff;
      }

      .cls-2 {
        fill: #0328d1;
      }
    </style>
  </defs>
  <path class="cls-2" d="M11.99,21.17s.01.1.01.15c0,.82-.67,1.49-1.49,1.49s-1.49-.67-1.49-1.49c0-.05.01-.1.01-.15h-1s-.01.1-.01.15c0,1.37,1.12,2.49,2.49,2.49s2.49-1.12,2.49-2.49c0-.05-.01-.1-.01-.15h-1Z"/>
  <path d="M30.04,15.41l-3.16-1.17-2.53-2.71c-.47-.5-1.13-.79-1.81-.79h-1.89v-3.65H4.25l-.12,3.03h-.63l-.04,1h1.63l.12-3.03h14.36v12.07H4.72l.08-1.54h-2.02l-.04,1h1l-.08,1.54h19.84c.02-.36.12-.7.28-1h-3.22v-8.42h1.6l-.53,3.61h5.16s.09-.01.13-.03l2.75,1.02c.54.2.86.73.79,1.3l-.31,2.52h-1.97c.16.3.26.64.28,1h2.58l.42-3.4c.13-1.03-.46-2-1.44-2.36ZM23.16,11.89c.17.08.32.19.45.32l2,2.14h-2.81l.36-2.47Z"/>
  <polygon points=".71 11.13 2.9 11.13 2.94 10.13 .38 10.13 .35 11.13 .71 11.13"/>
  <polygon points="2.23 18.63 1.6 18.63 1.16 18.63 1.16 19.63 2.19 19.63 2.23 18.63"/>
  <polygon points="4.98 14.88 4.48 14.86 3.98 14.86 3.92 16.11 1.3 16.11 .37 16.11 .33 17.11 1.42 17.11 4.87 17.11 4.98 14.88"/>
  <path class="cls-2" d="M28.2,20.17c-.42-.8-1.24-1.35-2.2-1.35s-1.78.55-2.2,1.35c-.16.3-.26.64-.28,1,0,.05-.01.1-.01.15,0,1.37,1.12,2.49,2.49,2.49s2.49-1.12,2.49-2.49c0-.05-.01-.1-.01-.15-.02-.36-.12-.7-.28-1ZM27.49,21.32c0,.82-.67,1.49-1.49,1.49s-1.49-.67-1.49-1.49.67-1.49,1.49-1.49,1.49.67,1.49,1.49Z"/>
  <path class="cls-1" d="M5.34,12.66v.56l-.02.44H1.61l.04-1h3.7Z"/>
  <path d="M22.85,18.16h-1.51c-.28,0-.5.22-.5.5s.22.5.5.5h1.51c.28,0,.5-.22.5-.5s-.22-.5-.5-.5Z"/>
  <polygon points="1.61 13.66 5.33 13.66 5.34 13.22 5.34 12.66 1.65 12.66 1.61 13.66"/>
</svg>