<?xml version="1.0" encoding="UTF-8"?>
<svg id="Layer_1" data-name="Layer 1" xmlns="http://www.w3.org/2000/svg" viewBox="0 0 32 32">
  <defs>
    <style>
      .cls-1 {
        fill: none;
      }

      .cls-2 {
        fill: #0328d1;
      }
    </style>
  </defs>
  <path class="cls-1" d="M15.96,3.25c.44,0,.8.3.92.7h.64c.39,0,.7-.31.7-.7s-.31-.7-.7-.7h-3.12c-.39,0-.7.31-.7.7s.31.7.7.7h.64c.12-.4.48-.7.92-.7Z"/>
  <path class="cls-1" d="M16.09,19.53c-.82,0-1.48-.67-1.48-1.48,0-.38.14-.71.38-.98l-.57-.57h0s-3.72,6.96-3.72,6.96l6.96-3.72h0s-.59-.59-.59-.59c-.26.23-.6.38-.98.38Z"/>
  <path class="cls-1" d="M15.96,6.62c-6.37,0-11.55,5.18-11.55,11.55s5.18,11.55,11.55,11.55,11.55-5.18,11.55-11.55-5.18-11.55-11.55-11.55ZM22.25,13.25l-3.72,6.96-.14.27-.27.14-6.96,3.72-2.91,1.55,1.55-2.91,3.72-6.96.14-.27.27-.14,6.96-3.72,2.91-1.55-1.55,2.91Z"/>
  <path d="M16.94,5.67v-.71h.58c.94,0,1.7-.76,1.7-1.7s-.76-1.7-1.7-1.7h-3.12c-.94,0-1.7.76-1.7,1.7s.76,1.7,1.7,1.7h.58v.71c-6.46.5-11.57,5.91-11.57,12.5,0,6.92,5.63,12.55,12.55,12.55s12.55-5.63,12.55-12.55-5.11-12-11.57-12.5ZM14.4,3.96c-.39,0-.7-.31-.7-.7s.31-.7.7-.7h3.12c.39,0,.7.31.7.7s-.31.7-.7.7h-.64c-.12-.4-.48-.7-.92-.7s-.8.3-.92.7h-.64ZM15.96,29.72c-6.37,0-11.55-5.18-11.55-11.55S9.6,6.62,15.96,6.62s11.55,5.18,11.55,11.55-5.18,11.55-11.55,11.55Z"/>
  <path class="cls-2" d="M20.9,11.9l-6.96,3.72-.27.14-.14.27-3.72,6.96-1.55,2.91,2.91-1.55,6.96-3.72.27-.14.14-.27,3.72-6.96,1.55-2.91-2.91,1.55ZM16.09,17.56c.27,0,.48.22.48.48s-.22.48-.48.48-.48-.22-.48-.48.22-.48.48-.48ZM17.65,19.74l-6.96,3.72,3.72-6.96h0s.57.57.57.57c-.23.26-.38.6-.38.98,0,.82.67,1.48,1.48,1.48.38,0,.71-.14.98-.38l.59.59h0Z"/>
</svg>