<?xml version="1.0" encoding="UTF-8"?>
<svg id="Layer_1" data-name="Layer 1" xmlns="http://www.w3.org/2000/svg" viewBox="0 0 32 32">
  <defs>
    <style>
      .cls-1 {
        fill: none;
      }

      .cls-2 {
        fill: #0328d1;
      }
    </style>
  </defs>
  <path class="cls-1" d="M7.33,16.21c-.19-.55-.35-1.1-.49-1.67.13.57.3,1.12.49,1.67Z"/>
  <path class="cls-1" d="M9.54,20.81c-.29-.47-.57-.96-.83-1.45.26.5.54.98.83,1.45Z"/>
  <path class="cls-1" d="M17.82,27.23c-.23.23-.44.44-.63.62.19-.18.4-.39.63-.62Z"/>
  <path class="cls-1" d="M8.71,19.36c-.26-.5-.52-1.01-.75-1.54.23.52.48,1.04.75,1.54Z"/>
  <path class="cls-1" d="M16.28,28.68s-3.85-3.17-6.74-7.87c2.89,4.7,6.74,7.87,6.74,7.87,0,0,.24-.2.65-.58-.41.38-.65.58-.65.58Z"/>
  <path class="cls-2" d="M16.28,28.68s.24-.2.65-.58c.08-.08.17-.16.26-.25.19-.18.4-.39.63-.62.46-.46,1-1.03,1.58-1.68.29-.33.59-.67.89-1.04.15-.18.3-.37.46-.57.92-1.16,1.86-2.5,2.7-3.95.14-.24.28-.49.41-.74.17-.33.34-.66.5-1,.2-.43.4-.87.58-1.32.21-.53.4-1.07.56-1.63.24-.83.43-1.67.54-2.53.07-.57.11-1.15.11-1.73,0-5.45-4.42-9.86-9.86-9.86S6.42,5.6,6.42,11.05c0,1.19.15,2.36.42,3.49.13.57.3,1.12.49,1.67.19.55.4,1.08.63,1.61.23.52.48,1.04.75,1.54s.54.98.83,1.45c2.89,4.7,6.74,7.87,6.74,7.87ZM11.97,11.4c0-2.38,1.93-4.31,4.31-4.31s4.31,1.93,4.31,4.31-1.93,4.31-4.31,4.31-4.31-1.93-4.31-4.31Z"/>
  <path d="M23.62,29.98h-14.67c-.28,0-.5.22-.5.5s.22.5.5.5h14.67c.28,0,.5-.22.5-.5s-.22-.5-.5-.5Z"/>
</svg>