<?xml version="1.0" encoding="UTF-8"?>
<svg id="Layer_1" data-name="Layer 1" xmlns="http://www.w3.org/2000/svg" viewBox="0 0 32 32">
  <defs>
    <style>
      .cls-1 {
        fill: none;
      }

      .cls-2 {
        fill: #0328d1;
      }

      .cls-3 {
        fill: #0f0f0f;
      }
    </style>
  </defs>
  <path class="cls-1" d="M29.48,19.04c-.24.01-.49.02-.85.05-.05.07-.12.18-.18.28-.57.93-1.76,2.85-5.52,2.89-4.32.05-7.94.06-10.85.06-4.23,0-6.94-.03-8.12-.05l.6,1.18c.08-.05.17-.09.24-.14l.29-.2.29.2c1.12.79,2.91.79,4.03,0l.29-.2.29.2c1.12.79,2.91.79,4.03,0l.29-.2.29.2c1.12.79,2.91.79,4.03,0l.29-.2.29.2c1.12.79,2.91.79,4.03,0l.29-.2.29.2c.58.41,1.33.6,2.08.59,2.08-1.42,3.09-3.31,3.58-4.86Z"/>
  <path class="cls-1" d="M22.91,21.26c3.21-.04,4.16-1.59,4.68-2.42.24-.38.44-.72.84-.74.61-.04.91-.05,1.31-.07.1-.49.15-.91.17-1.21h-2.01c-.96.02-1.96.06-3.01.12-.06.09-.14.23-.21.36-.48.85-1.38,2.43-3.48,2.43H2.66l.79,1.53c.97.02,7.55.13,19.47,0Z"/>
  <polygon class="cls-1" points="11.11 10.33 7.19 10.33 7.18 11.03 11.5 11.03 11.11 10.33"/>
  <path class="cls-1" d="M23.8,16.81c.26-.46.47-.83.88-.85.82-.05,1.61-.09,2.37-.11l-.38-.45h-3.44v-1h2.59l-.78-.91h-1.36l-2.95-4.01h-2.34l1.12,4.01h-6.66l-.8-1.45h-4.89l-.03,1.45h-1.09l-1.5,5.25h16.65c1.52,0,2.15-1.11,2.61-1.92ZM8.82,17.13h-1.51v-1h1.51v1ZM8.82,15.39h-1.51v-1h1.51v1ZM11.47,17.13h-1.51v-1h1.51v1ZM11.47,15.39h-1.51v-1h1.51v1ZM14.13,17.13h-1.51v-1h1.51v1ZM14.13,15.39h-1.51v-1h1.51v1ZM16.78,17.13h-1.51v-1h1.51v1ZM16.78,15.39h-1.51v-1h1.51v1ZM19.43,17.13h-1.51v-1h1.51v1ZM19.43,15.39h-1.51v-1h1.51v1ZM20.58,14.39h1.51v1h-1.51v-1ZM20.58,16.13h1.51v1h-1.51v-1Z"/>
  <polygon class="cls-1" points="19.12 7.29 17.78 7.29 18.11 8.47 19.99 8.47 19.12 7.29"/>
  <path class="cls-2" d="M22.93,22.26c3.76-.04,4.95-1.97,5.52-2.89.06-.1.13-.21.18-.28.37-.02.61-.04.85-.05.11-.36.2-.7.26-1.01-.4.01-.7.03-1.31.07-.39.03-.6.36-.84.74-.51.83-1.47,2.38-4.68,2.42-11.92.13-18.5.02-19.47,0l.52,1.01c1.18.02,3.89.05,8.12.05,2.91,0,6.53-.02,10.85-.06Z"/>
  <rect x="7.32" y="14.39" width="1.51" height="1"/>
  <rect x="9.97" y="14.39" width="1.51" height="1"/>
  <rect x="12.62" y="14.39" width="1.51" height="1"/>
  <rect x="15.27" y="14.39" width="1.51" height="1"/>
  <rect x="17.92" y="14.39" width="1.51" height="1"/>
  <rect x="20.58" y="14.39" width="1.51" height="1"/>
  <rect x="7.32" y="16.13" width="1.51" height="1"/>
  <rect x="9.97" y="16.13" width="1.51" height="1"/>
  <rect x="12.62" y="16.13" width="1.51" height="1"/>
  <rect x="15.27" y="16.13" width="1.51" height="1"/>
  <rect x="17.92" y="16.13" width="1.51" height="1"/>
  <rect x="20.58" y="16.13" width="1.51" height="1"/>
  <path class="cls-3" d="M29.9,15.82s-.01,0-.02,0c-.49,0-1.01,0-1.53,0l-2.85-3.33h-1.31l-4.56-6.2h-3.16l.61,2.19h-1.45c-.28,0-.5.22-.5.5s.22.5.5.5h1.73l.84,3.01h-4.76l-1.74-3.15h-5.49l-.06,3.15h-.86l-1.78,6.25H1.02l2.6,5.09c.33-.08.65-.2.94-.37l-.6-1.18-.52-1.01-.79-1.53h18.53c2.1,0,3-1.58,3.48-2.43.07-.12.15-.27.21-.36,1.05-.07,2.05-.11,3.01-.12h2.01c-.02.3-.07.72-.17,1.21-.06.31-.15.65-.26,1.01-.48,1.54-1.49,3.43-3.58,4.86.71-.01,1.41-.21,1.96-.59l.29-.2.11.07c2.28-2.52,2.62-5.51,2.67-6.54l.09-.82h-1.11ZM18.11,8.47l-.33-1.19h1.34l.88,1.19h-1.88ZM7.19,10.33h3.92l.39.7h-4.32v-.7ZM24.68,15.95c-.41.03-.62.39-.88.85-.46.81-1.09,1.92-2.61,1.92H4.54l1.5-5.25h1.09l.03-1.45h4.89l.8,1.45h6.66l-1.12-4.01h2.34l2.95,4.01h1.36l.78.91h-2.59v1h3.44l.38.45c-.77.02-1.55.06-2.37.11Z"/>
  <path class="cls-3" d="M26.04,24.92s.06-.02.09-.03c-.05,0-.11,0-.16,0,.02,0,.05.02.07.02Z"/>
  <path class="cls-2" d="M30.45,23.92c-.74,0-1.46-.22-2.02-.61l-.18-.13-.11-.07-.29.2c-.55.39-1.25.58-1.96.59-.75.01-1.5-.18-2.08-.59l-.29-.2-.29.2c-1.12.79-2.91.79-4.03,0l-.29-.2-.29.2c-1.12.79-2.91.79-4.03,0l-.29-.2-.29.2c-1.12.79-2.91.79-4.03,0l-.29-.2-.29.2c-1.12.79-2.91.79-4.03,0l-.29-.2-.29.2c-.08.05-.16.1-.24.14-.29.17-.6.29-.94.37-.27.06-.55.11-.84.11s-.5.22-.5.5.22.5.5.5c.82,0,1.63-.22,2.31-.61,1.35.79,3.26.79,4.61,0,1.35.79,3.26.79,4.61,0,1.35.79,3.26.79,4.61,0,1.35.79,3.26.79,4.61,0,.71.42,1.57.61,2.43.59.05,0,.11,0,.16,0,.72-.04,1.42-.23,2.02-.58.68.4,1.48.61,2.31.61.28,0,.5-.22.5-.5s-.22-.5-.5-.5Z"/>
</svg>