<?xml version="1.0" encoding="UTF-8"?>
<svg id="Layer_1" data-name="Layer 1" xmlns="http://www.w3.org/2000/svg" viewBox="0 0 32 32">
  <defs>
    <style>
      .cls-1 {
        fill: none;
      }

      .cls-2 {
        fill: #0328d1;
      }
    </style>
  </defs>
  <path class="cls-1" d="M26.79,8.55v-1.9c0-.64-.52-1.17-1.17-1.17h-12.45v4.6l5.47-1.77,8.15.24Z"/>
  <polygon class="cls-1" points="18.35 9.46 16.06 10.2 16.44 16.41 20.29 16.06 18.35 9.46"/>
  <polygon class="cls-1" points="28.34 9.6 19.35 9.34 21.31 16.06 30.25 16.06 28.34 9.6 28.34 9.6"/>
  <path class="cls-1" d="M24.39,20.73h-1.78c-.28,0-.5-.22-.5-.5s.22-.5.5-.5h1.78c.28,0,.5.22.5.5s-.22.5-.5.5ZM29.16,20.73h-1.78c-.28,0-.5-.22-.5-.5s.22-.5.5-.5h1.78c.28,0,.5.22.5.5s-.22.5-.5.5Z"/>
  <path class="cls-2" d="M26.79,29.01c1.09,0,1.94-1.16,1.98-2.66-.08,0-.15.02-.23.02h-.77c-.04.97-.53,1.64-.98,1.64s-.93-.67-.98-1.64h-1c.05,1.49.9,2.64,1.97,2.64Z"/>
  <path d="M29.07,8.55l-1.29-.03v-1.86c0-1.2-.97-2.17-2.17-2.17h-13.02l-.05.03c-.06.02-.11.04-.16.07L1.05,9.97v16.41h1.81c0-.07-.02-.14-.02-.21,0-.27.02-.54.06-.79h-.85v-14.78l10.12-4.85v19.63h-3.75c.04.26.06.52.06.79,0,.07-.01.14-.02.21h5.72c0-.07-.02-.14-.02-.21,0-.27.02-.54.06-.79h-1.07v-14.24l1.91-.62.43,6.98,4.93-.45v8.33h-.69c.04.26.06.52.06.79,0,.07-.01.14-.02.21h8.73c.08,0,.16-.02.23-.02.3-.02.58-.08.85-.19,1.08-.43,1.85-1.48,1.85-2.72v-6.77l-2.39-8.14ZM30.25,16.06h-8.94l-1.96-6.72,8.98.26s0,0,0,0l1.91,6.46ZM13.17,5.49h12.45c.64,0,1.17.52,1.17,1.17v1.9l-8.15-.24-5.47,1.77v-4.6ZM16.06,10.2l2.29-.74,1.94,6.6-3.85.35-.38-6.21ZM29.61,25.05c-.31.21-.68.33-1.08.33h-7.09v-8.32h9.02v6.4c0,.66-.34,1.25-.85,1.6Z"/>
  <path class="cls-2" d="M7.64,26.25c0-1.55-.87-2.77-1.98-2.77s-1.98,1.22-1.98,2.77.87,2.77,1.98,2.77,1.98-1.22,1.98-2.77ZM4.67,26.25c0-1.04.52-1.77.98-1.77s.98.73.98,1.77-.52,1.77-.98,1.77-.98-.73-.98-1.77Z"/>
  <path class="cls-2" d="M24.39,19.73h-1.78c-.28,0-.5.22-.5.5s.22.5.5.5h1.78c.28,0,.5-.22.5-.5s-.22-.5-.5-.5Z"/>
  <path class="cls-2" d="M29.16,19.73h-1.78c-.28,0-.5.22-.5.5s.22.5.5.5h1.78c.28,0,.5-.22.5-.5s-.22-.5-.5-.5Z"/>
  <path class="cls-2" d="M18.98,26.25c0-1.55-.87-2.77-1.98-2.77s-1.98,1.22-1.98,2.77.87,2.77,1.98,2.77,1.98-1.22,1.98-2.77ZM16.01,26.25c0-1.04.52-1.77.98-1.77s.98.73.98,1.77-.52,1.77-.98,1.77-.98-.73-.98-1.77Z"/>
</svg>