<?xml version="1.0" encoding="UTF-8"?>
<svg id="Layer_1" data-name="Layer 1" xmlns="http://www.w3.org/2000/svg" viewBox="0 0 32 32">
  <defs>
    <style>
      .cls-1 {
        fill: none;
      }

      .cls-2 {
        fill: #0328d1;
      }
    </style>
  </defs>
  <path class="cls-1" d="M21.79,13.84v-.71c-.55-.27-2.8-.68-5.91-.68s-5.36.42-5.91.68v.71c0,.41.6.86,1.45.86h8.92c.86,0,1.45-.46,1.45-.86Z"/>
  <path class="cls-1" d="M9.25,14.71c-.18-.26-.28-.55-.28-.86v-.9c.05-1.45,6.21-1.49,6.91-1.49s6.86.04,6.91,1.47v.02s0,.9,0,.9c0,.32-.11.61-.28.86h2.77v-7.66c0-.59-.48-1.07-1.07-1.07H6.98c-.59,0-1.07.48-1.07,1.07v7.66h3.33Z"/>
  <path class="cls-1" d="M28.04,17.5c0-.99-.8-1.79-1.79-1.79H5.51c-.99,0-1.79.8-1.79,1.79v.98h24.32v-.98Z"/>
  <polygon class="cls-1" points="25.48 23.08 6.06 23.08 4.83 26.24 26.71 26.24 25.48 23.08"/>
  <rect class="cls-1" x="3.71" y="19.48" width="24.32" height="2.61"/>
  <path d="M29.78,26.24h-2.04v-3.16h1.3v-5.58c0-1.53-1.23-2.77-2.76-2.79v-7.66c0-1.14-.93-2.07-2.07-2.07H6.98c-1.14,0-2.07.93-2.07,2.07v7.72c-1.26.27-2.21,1.39-2.21,2.73v5.58h1.09v3.16h-1.83c-.28,0-.5.22-.5.5s.22.5.5.5h27.81c.28,0,.5-.22.5-.5s-.22-.5-.5-.5ZM6.98,5.98h17.22c.59,0,1.07.48,1.07,1.07v7.66h-2.77c.17-.26.28-.55.28-.86v-.9s0-.02,0-.02c-.05-1.43-6.21-1.47-6.91-1.47s-6.86.04-6.91,1.49v.9c0,.32.11.61.28.86h-3.33v-7.66c0-.59.48-1.07,1.07-1.07ZM9.96,13.85v-.71c.55-.27,2.8-.68,5.91-.68s5.36.42,5.91.68v.71c0,.41-.6.86-1.45.86h-8.92c-.86,0-1.45-.46-1.45-.86ZM3.71,19.48v-1.98c0-.99.8-1.79,1.79-1.79h20.74c.99,0,1.79.8,1.79,1.79v4.58H3.71v-2.61ZM6.06,23.08h19.42l1.23,3.16H4.83l1.23-3.16Z"/>
  <rect class="cls-2" x="3.71" y="18.48" width="24.32" height="1"/>
</svg>