<?xml version="1.0" encoding="UTF-8"?>
<svg id="Layer_1" data-name="Layer 1" xmlns="http://www.w3.org/2000/svg" viewBox="0 0 32 32">
  <defs>
    <style>
      .cls-1 {
        fill: none;
      }

      .cls-2 {
        fill: #0328d1;
      }

      .cls-3 {
        fill: #0f0f0f;
      }
    </style>
  </defs>
  <path class="cls-1" d="M12.49,16.32l2.15.03s.03-.05.04-.08l-3.1-5.88-1.26,2.02c1.16.96,1.96,2.34,2.17,3.91Z"/>
  <path class="cls-1" d="M25.11,17.11c0,.24.2.44.44.44s.44-.2.44-.44-.2-.44-.44-.44-.44.2-.44.44Z"/>
  <path class="cls-1" d="M6.45,16.68c-.24,0-.44.2-.44.44s.2.44.44.44.44-.2.44-.44-.2-.44-.44-.44Z"/>
  <path class="cls-1" d="M11.47,16.3c-.19-1.2-.81-2.25-1.69-3.02l-1.84,2.97,3.53.05Z"/>
  <path class="cls-1" d="M29.03,14.86c.25-.12.55-.02.67.23.22.44.36.92.43,1.41.04.27-.16.53-.43.56-.02,0-.04,0-.07,0-.25,0-.46-.18-.5-.43-.05-.39-.16-.76-.33-1.1-.12-.25-.02-.55.23-.67ZM27.96,19.81c.44-.39.77-.88.98-1.43.1-.26.39-.39.64-.29.26.1.39.38.29.64-.26.7-.69,1.33-1.25,1.82-.1.09-.21.13-.33.13-.14,0-.27-.06-.37-.17-.18-.21-.17-.52.04-.71Z"/>
  <path class="cls-1" d="M1.35,17.11c0,2.81,2.29,5.1,5.1,5.1s4.98-2.19,5.08-4.91l-3.65-.05c-.07.73-.68,1.3-1.42,1.3-.79,0-1.44-.65-1.44-1.44s.65-1.44,1.44-1.44c.21,0,.41.05.59.13l1.92-3.1c-.74-.43-1.59-.69-2.51-.69-2.81,0-5.1,2.29-5.1,5.1ZM8.22,20.27c.4-.22.74-.51,1.03-.87.18-.21.49-.24.7-.07.21.18.24.49.07.7-.37.45-.81.82-1.32,1.1-.08.04-.16.06-.24.06-.18,0-.34-.09-.44-.26-.14-.24-.05-.55.19-.68Z"/>
  <circle class="cls-1" cx="16.12" cy="17.1" r=".67"/>
  <path class="cls-1" d="M12.41,9.81l3.04,5.76c.21-.09.44-.15.68-.15.17,0,.33.03.49.08l4.9-6.32-.08-.18-9.02.8Z"/>
  <path class="cls-3" d="M11.47,16.3h1.02c-.21-1.55-1-2.93-2.17-3.89l-.54.88c.88.77,1.49,1.82,1.69,3.02Z"/>
  <path class="cls-3" d="M6.45,22.21c-2.81,0-5.1-2.29-5.1-5.1s2.29-5.1,5.1-5.1c.92,0,1.77.26,2.51.69l.54-.86c-.9-.52-1.94-.83-3.05-.83-3.36,0-6.1,2.74-6.1,6.1s2.74,6.1,6.1,6.1,5.98-2.63,6.09-5.89h-1.01c-.1,2.71-2.33,4.89-5.08,4.89Z"/>
  <path class="cls-3" d="M8.46,21.21c.08,0,.17-.02.24-.06.51-.28.95-.66,1.32-1.1.17-.21.14-.53-.07-.7-.21-.18-.53-.14-.7.07-.29.35-.64.65-1.03.87-.24.13-.33.44-.19.68.09.16.26.26.44.26Z"/>
  <path class="cls-3" d="M25.55,11.02c-.59,0-1.17.09-1.71.25l.41.94c.42-.11.85-.19,1.3-.19,2.81,0,5.1,2.29,5.1,5.1s-2.29,5.1-5.1,5.1-5.1-2.29-5.1-5.1c0-1.78.92-3.35,2.31-4.26l-.4-.93c-1.74,1.07-2.91,3-2.91,5.19,0,3.36,2.74,6.1,6.1,6.1s6.1-2.74,6.1-6.1-2.74-6.1-6.1-6.1Z"/>
  <path class="cls-3" d="M28.3,20.68c.12,0,.24-.04.33-.13.56-.5.99-1.13,1.25-1.82.1-.26-.03-.55-.29-.64-.26-.1-.55.03-.64.29-.2.55-.54,1.04-.98,1.43-.21.18-.22.5-.04.71.1.11.24.17.37.17Z"/>
  <path class="cls-3" d="M29.14,16.63c.03.25.25.43.5.43.02,0,.04,0,.07,0,.27-.04.47-.29.43-.56-.07-.49-.21-.97-.43-1.41-.12-.25-.42-.35-.67-.23-.25.12-.35.42-.23.67.17.35.28.72.33,1.1Z"/>
  <path class="cls-2" d="M24.4,15.87l.11.26c-.25.26-.4.61-.4.99,0,.79.65,1.44,1.44,1.44s1.44-.65,1.44-1.44-.65-1.44-1.44-1.44c-.05,0-.09,0-.14.01l-.54-1.24-2.11-4.88-.56-1.29s0-.01,0-.02l-.28-.63h0s-.88-2.02-.88-2.02h1.89c.24,0,.46.13.58.33l.3.5c.14.24.45.31.69.17.24-.14.31-.45.17-.69l-.3-.5c-.3-.5-.85-.82-1.44-.82h-3.42l1.5,3.42h0s-9.11.82-9.11.82l-.57-1.08h.28c.28,0,.5-.22.5-.5s-.22-.5-.5-.5h-2.96c-.28,0-.5.22-.5.5s.22.5.5.5h1.54l.84,1.59-1.54,2.48-.54.86-1.92,3.1c-.18-.08-.38-.13-.59-.13-.79,0-1.44.65-1.44,1.44s.65,1.44,1.44,1.44c.75,0,1.35-.57,1.42-1.3l3.65.05h1.01s1.94.04,1.94.04c.12.8.81,1.43,1.65,1.43.92,0,1.67-.75,1.67-1.67,0-.39-.14-.74-.36-1.03l4.52-5.84.33.75,2.11,4.88ZM25.99,17.11c0,.24-.2.44-.44.44s-.44-.2-.44-.44.2-.44.44-.44.44.2.44.44ZM10.32,12.41l1.26-2.02,3.1,5.88s-.03.05-.04.08l-2.15-.03h-1.02s-3.53-.07-3.53-.07l1.84-2.97.54-.88ZM6.45,17.55c-.24,0-.44-.2-.44-.44s.2-.44.44-.44.44.2.44.44-.2.44-.44.44ZM16.12,17.77c-.37,0-.67-.3-.67-.67s.3-.67.67-.67.67.3.67.67-.3.67-.67.67ZM16.61,15.51c-.15-.05-.32-.08-.49-.08-.24,0-.47.05-.68.15l-3.04-5.76,9.02-.8.08.18-4.9,6.32Z"/>
</svg>