<?xml version="1.0" encoding="UTF-8"?>
<svg id="Layer_1" data-name="Layer 1" xmlns="http://www.w3.org/2000/svg" viewBox="0 0 32 32">
  <defs>
    <style>
      .cls-1 {
        fill: #0328d1;
      }
    </style>
  </defs>
  <path class="cls-1" d="M31.28,24.65h-4.38c.45-.47.76-1.08.87-1.76.03-.16.05-.33.05-.5s-.03-.34-.05-.5c0-.05,0-.11-.02-.16-.31-1.51-1.65-2.6-3.19-2.6s-2.88,1.09-3.19,2.6c-.01.05,0,.1-.02.16-.03.16-.05.33-.05.5s.02.34.05.5c.11.68.41,1.28.87,1.76h-12.05c.45-.47.76-1.08.87-1.76.03-.16.05-.33.05-.5s-.02-.34-.05-.5c0-.05,0-.11-.02-.16-.31-1.51-1.65-2.6-3.19-2.6s-2.88,1.09-3.19,2.6c-.01.05,0,.1-.02.16-.03.16-.05.33-.05.5s.02.34.05.5c.11.68.41,1.28.87,1.76H.88c-.28,0-.5.22-.5.5s.22.5.5.5h30.4c.28,0,.5-.22.5-.5s-.22-.5-.5-.5ZM22.31,22.39c0-.16.02-.31.05-.46.21-1.04,1.14-1.8,2.21-1.8s2,.76,2.21,1.8c.03.15.05.3.05.46,0,1.24-1.01,2.26-2.26,2.26s-2.26-1.01-2.26-2.26ZM5.59,22.39c0-.16.02-.31.05-.46.21-1.04,1.14-1.8,2.21-1.8s2,.76,2.21,1.8c.03.15.05.3.05.46,0,1.24-1.01,2.26-2.26,2.26s-2.26-1.01-2.26-2.26Z"/>
  <polygon class="cls-1" points="26.68 17.53 1.47 17.53 1.47 18.53 27.85 18.53 26.68 17.53"/>
  <path d="M11.1,22.39c0,.17-.02.34-.05.5h10.31c-.03-.16-.05-.33-.05-.5s.02-.34.05-.5h-10.31c.03.16.05.33.05.5Z"/>
  <path d="M4.64,21.89h-2.6c-.32,0-.58-.26-.58-.58v-.56h1.45c.28,0,.5-.22.5-.5s-.22-.5-.5-.5h-1.45v-3.62h23.58l1.63,1.39,1.17,1h2.8v1.5h-1.08c-.28,0-.5.22-.5.5s.22.5.5.5h1.08v.29c0,.32-.26.58-.58.58h-2.31c.03.16.05.33.05.5s-.02.34-.05.5h2.31c.87,0,1.58-.71,1.58-1.58v-5.47c0-4.69-3.82-8.51-8.51-8.51H2.04c-.87,0-1.58.71-1.58,1.57v12.41c0,.87.71,1.58,1.58,1.58h2.6c-.03-.16-.05-.33-.05-.5s.02-.34.05-.5ZM24.75,15.14h-6.29v-4.71h6.29v4.71ZM17.46,15.14h-6.12v-4.71h6.12v4.71ZM10.34,15.14h-6.12v-4.71h6.12v4.71ZM3.22,15.14h-1.75v-4.71h1.75v4.71ZM30.65,15.84v1.68h-2.43l-2.47-2.1v-5h2.58c1.43,1.37,2.33,3.29,2.33,5.42ZM2.04,8.34h21.1c1.42,0,2.74.4,3.87,1.09H1.47v-.51c0-.32.26-.57.58-.57Z"/>
  <path d="M7.84,21.29c-.61,0-1.11.5-1.11,1.11s.5,1.11,1.11,1.11,1.11-.5,1.11-1.11-.5-1.11-1.11-1.11Z"/>
  <circle cx="24.57" cy="22.39" r="1.11"/>
</svg>