<?xml version="1.0" encoding="UTF-8"?>
<svg id="Layer_1" data-name="Layer 1" xmlns="http://www.w3.org/2000/svg" viewBox="0 0 32 32">
  <defs>
    <style>
      .cls-1 {
        fill: none;
      }

      .cls-2 {
        fill: #0328d1;
      }
    </style>
  </defs>
  <circle class="cls-1" cx="21.25" cy="18.2" r=".8"/>
  <path class="cls-1" d="M10.75,17.41c-.44,0-.8.36-.8.8s.36.8.8.8.8-.36.8-.8-.36-.8-.8-.8Z"/>
  <polygon class="cls-1" points="10.27 29.02 9.63 30.77 22.37 30.77 21.73 29.02 10.27 29.02"/>
  <polygon class="cls-1" points="11.71 25.06 20.29 25.06 19.45 22.77 12.55 22.77 11.71 25.06"/>
  <path class="cls-1" d="M16,15.53l8.9-3.24v-4.88c0-3.25-2.65-5.9-5.9-5.9h-6c-3.25,0-5.9,2.65-5.9,5.9v4.88l8.9,3.24ZM17.08,6.13h5.57v3.94h-5.57v-3.94ZM9.36,6.13h5.57v3.94h-5.57v-3.94Z"/>
  <polygon class="cls-1" points="21.36 28.02 20.65 26.06 11.35 26.06 10.64 28.02 21.36 28.02"/>
  <path class="cls-1" d="M24.9,18.71v-5.36l-8.9,3.24-8.9-3.24v5.36c0,1.69,1.37,3.06,3.06,3.06h11.68c1.69,0,3.06-1.37,3.06-3.06ZM10.75,20c-.99,0-1.8-.81-1.8-1.8s.81-1.8,1.8-1.8,1.8.81,1.8,1.8-.81,1.8-1.8,1.8ZM19.45,18.2c0-.99.81-1.8,1.8-1.8s1.8.81,1.8,1.8-.81,1.8-1.8,1.8-1.8-.81-1.8-1.8Z"/>
  <path class="cls-2" d="M10.27,29.02h11.46l.64,1.75h1.06l-2.91-8h-1.06l.83,2.29h-8.57l.83-2.29h-1.06l-2.91,8h1.06l.64-1.75ZM20.65,26.06l.71,1.96h-10.73l.71-1.96h9.3Z"/>
  <path d="M19.45,22.77h2.39c2.24,0,4.06-1.82,4.06-4.06V7.41c0-3.8-3.1-6.9-6.9-6.9h-6c-3.81,0-6.9,3.1-6.9,6.9v11.3c0,2.24,1.82,4.06,4.06,4.06h9.29ZM13,1.51h6c3.25,0,5.9,2.65,5.9,5.9v4.88l-8.9,3.24-8.9-3.24v-4.88c0-3.25,2.65-5.9,5.9-5.9ZM7.1,18.71v-5.36l8.9,3.24,8.9-3.24v5.36c0,1.69-1.37,3.06-3.06,3.06h-11.68c-1.69,0-3.06-1.37-3.06-3.06Z"/>
  <rect class="cls-2" x="9.36" y="6.13" width="5.57" height="3.94"/>
  <rect class="cls-2" x="17.08" y="6.13" width="5.57" height="3.94"/>
  <path d="M10.75,16.41c-.99,0-1.8.81-1.8,1.8s.81,1.8,1.8,1.8,1.8-.81,1.8-1.8-.81-1.8-1.8-1.8ZM10.75,19c-.44,0-.8-.36-.8-.8s.36-.8.8-.8.8.36.8.8-.36.8-.8.8Z"/>
  <path d="M23.05,18.2c0-.99-.81-1.8-1.8-1.8s-1.8.81-1.8,1.8.81,1.8,1.8,1.8,1.8-.81,1.8-1.8ZM21.25,19c-.44,0-.8-.36-.8-.8s.36-.8.8-.8.8.36.8.8-.36.8-.8.8Z"/>
</svg>