<?xml version="1.0" encoding="UTF-8"?>
<svg id="Layer_1" data-name="Layer 1" xmlns="http://www.w3.org/2000/svg" viewBox="0 0 32 32">
  <defs>
    <style>
      .cls-1 {
        fill: none;
      }

      .cls-2 {
        fill: #0328d1;
      }
    </style>
  </defs>
  <path class="cls-1" d="M7.34,15.99h4.26c.05-1.25.28-2.47.68-3.63-1.26-.17-2.51-.4-3.75-.69-.7,1.3-1.12,2.76-1.2,4.32Z"/>
  <path class="cls-1" d="M16.97,15.99v-3.28c-1.23-.02-2.45-.09-3.67-.22-.4,1.12-.64,2.3-.69,3.5h4.36Z"/>
  <path class="cls-1" d="M12.29,20.62c-.4-1.16-.63-2.38-.68-3.63h-4.26c.08,1.56.49,3.02,1.19,4.32,1.23-.29,2.49-.52,3.75-.69Z"/>
  <path class="cls-1" d="M16.97,16.99h-4.36c.05,1.21.29,2.39.69,3.51,1.22-.13,2.44-.2,3.67-.22v-3.29Z"/>
  <path class="cls-1" d="M17.97,7.27v4.44c1.09-.01,2.18-.08,3.27-.19-.76-1.63-1.86-3.1-3.27-4.25Z"/>
  <path class="cls-1" d="M17.97,15.99h4.36c-.05-1.21-.29-2.39-.69-3.5-1.22.13-2.44.21-3.67.22v3.28Z"/>
  <path class="cls-1" d="M26.4,11.67c-1.23.29-2.49.52-3.75.69.4,1.16.63,2.38.68,3.63h4.26c-.08-1.56-.49-3.02-1.19-4.32Z"/>
  <path class="cls-1" d="M21.24,21.46c-1.09-.11-2.18-.17-3.27-.19v4.44c1.41-1.15,2.52-2.62,3.27-4.25Z"/>
  <path class="cls-1" d="M13.7,11.52c1.09.11,2.18.17,3.27.19v-4.44c-1.41,1.15-2.52,2.62-3.27,4.25Z"/>
  <path class="cls-1" d="M16.97,25.71v-4.44c-1.09.01-2.18.08-3.27.19.76,1.63,1.86,3.1,3.27,4.25Z"/>
  <path class="cls-1" d="M22.29,21.58c-.84,1.94-2.13,3.67-3.81,5.01,3.05-.31,5.71-1.97,7.35-4.37-1.17-.27-2.35-.48-3.55-.64Z"/>
  <path class="cls-1" d="M12.64,21.58c-1.2.15-2.38.37-3.55.64,1.65,2.41,4.3,4.07,7.36,4.37-1.67-1.34-2.97-3.07-3.81-5.01Z"/>
  <path class="cls-1" d="M17.97,16.99v3.29c1.23.02,2.45.09,3.67.22.4-1.12.64-2.3.69-3.51h-4.36Z"/>
  <path class="cls-1" d="M27.59,16.99h-4.26c-.05,1.25-.28,2.47-.68,3.63,1.26.17,2.52.4,3.75.69.7-1.3,1.12-2.76,1.19-4.32Z"/>
  <path class="cls-1" d="M12.64,11.4c.84-1.94,2.13-3.67,3.8-5.01-3.05.31-5.7,1.97-7.35,4.37,1.17.27,2.35.48,3.55.64Z"/>
  <path class="cls-1" d="M22.29,11.4c1.2-.15,2.38-.37,3.55-.64-1.65-2.4-4.3-4.07-7.35-4.37,1.67,1.34,2.97,3.07,3.8,5.01Z"/>
  <path d="M25.37,28.22c-.53.36-1.09.69-1.67.97-.25.12-.35.42-.23.67.09.18.26.28.45.28.07,0,.15-.02.22-.05.62-.3,1.22-.65,1.79-1.04.23-.15.29-.47.13-.69-.15-.23-.47-.29-.69-.13Z"/>
  <path d="M20.05,30.4c-.63.12-1.27.19-1.92.22-.28.01-.49.25-.48.52.01.27.23.48.5.48,0,0,.02,0,.02,0,.69-.03,1.38-.11,2.05-.23.27-.05.45-.31.4-.58-.05-.27-.31-.45-.58-.4Z"/>
  <path d="M7.6,26.61c-.2-.19-.51-.19-.71,0-.19.2-.19.51,0,.71.49.48,1.02.93,1.57,1.34.09.07.19.1.3.1.15,0,.3-.07.4-.2.16-.22.12-.54-.1-.7-.52-.38-1.01-.8-1.47-1.25Z"/>
  <path d="M14.29,30.27c-.63-.14-1.25-.33-1.85-.56-.26-.1-.55.03-.65.29-.1.26.03.55.29.65.64.24,1.31.45,1.98.6.04,0,.08.01.11.01.23,0,.43-.16.49-.39.06-.27-.11-.54-.38-.6Z"/>
  <path d="M4.38,21.85c-.1-.26-.4-.38-.65-.27-.26.1-.38.4-.27.65.26.63.57,1.26.91,1.85.09.16.26.25.43.25.08,0,.17-.02.25-.07.24-.14.32-.44.18-.68-.32-.56-.61-1.14-.85-1.73Z"/>
  <path d="M6.7,7.34c.42-.49.87-.95,1.35-1.38.21-.18.22-.5.04-.71-.18-.21-.5-.22-.71-.04-.51.46-1,.95-1.44,1.48-.18.21-.15.53.06.71.09.08.21.12.32.12.14,0,.28-.06.38-.18Z"/>
  <path d="M16.81,2.38c.21,0,.42-.01.63-.01.46,0,.87.02,1.3.06.01,0,.03,0,.04,0,.26,0,.47-.2.5-.46.02-.27-.18-.52-.45-.54-.45-.04-.9-.06-1.36-.06-.23,0-.47,0-.7.02-.28.01-.49.25-.48.52s.26.49.52.48Z"/>
  <path d="M11.02,3.85c.07,0,.15-.02.22-.05.58-.28,1.18-.53,1.79-.73.26-.09.41-.37.32-.63-.09-.26-.37-.41-.63-.32-.65.21-1.29.48-1.91.78-.25.12-.35.42-.23.67.09.18.26.28.45.28Z"/>
  <path d="M3.32,12.72s.1.02.15.02c.21,0,.41-.14.48-.35.19-.61.42-1.22.69-1.8.12-.25,0-.55-.24-.66-.25-.11-.55,0-.66.24-.29.62-.54,1.27-.73,1.93-.08.26.07.54.33.62Z"/>
  <path d="M3.33,16.5v-.31c0-.28-.21-.51-.48-.51-.28,0-.51.21-.51.49v.33c0,.58.03,1.16.09,1.73.03.26.25.44.5.44.02,0,.04,0,.06,0,.27-.03.47-.28.44-.55-.06-.54-.09-1.08-.09-1.62Z"/>
  <path class="cls-2" d="M28.62,16.49c0-6.15-5-11.15-11.15-11.15s-11.15,5-11.15,11.15,5,11.15,11.15,11.15,11.15-5,11.15-11.15ZM23.33,15.99c-.05-1.25-.28-2.47-.68-3.63,1.26-.17,2.51-.4,3.75-.69.7,1.3,1.12,2.76,1.19,4.32h-4.26ZM22.33,15.99h-4.36v-3.28c1.23-.02,2.45-.09,3.67-.22.4,1.12.64,2.3.69,3.5ZM17.97,11.7v-4.44c1.41,1.15,2.52,2.62,3.27,4.25-1.09.11-2.18.17-3.27.19ZM16.97,11.7c-1.09-.01-2.18-.08-3.27-.19.76-1.63,1.86-3.1,3.27-4.25v4.44ZM16.97,12.71v3.28h-4.36c.05-1.21.29-2.39.69-3.5,1.22.13,2.44.21,3.67.22ZM11.61,15.99h-4.26c.08-1.56.49-3.02,1.2-4.32,1.23.29,2.49.52,3.75.69-.4,1.16-.63,2.38-.68,3.63ZM11.61,16.99c.05,1.25.28,2.47.68,3.63-1.26.17-2.52.39-3.75.69-.7-1.3-1.12-2.76-1.19-4.32h4.26ZM12.61,16.99h4.36v3.29c-1.23.02-2.45.09-3.67.22-.4-1.12-.64-2.3-.69-3.51ZM16.97,21.28v4.44c-1.41-1.15-2.52-2.62-3.27-4.25,1.09-.11,2.18-.17,3.27-.19ZM17.97,21.28c1.09.01,2.18.08,3.27.19-.76,1.63-1.86,3.1-3.27,4.25v-4.44ZM17.97,20.28v-3.29h4.36c-.05,1.21-.29,2.39-.69,3.51-1.22-.13-2.44-.2-3.67-.22ZM23.33,16.99h4.26c-.08,1.56-.49,3.02-1.19,4.32-1.23-.29-2.49-.52-3.75-.69.4-1.16.63-2.38.68-3.63ZM25.84,10.77c-1.17.27-2.35.48-3.55.64-.84-1.94-2.13-3.67-3.8-5.01,3.05.31,5.7,1.97,7.35,4.37ZM16.45,6.39c-1.67,1.34-2.97,3.07-3.8,5.01-1.2-.15-2.38-.37-3.55-.64,1.65-2.4,4.3-4.07,7.35-4.37ZM9.09,22.22c1.17-.27,2.35-.48,3.55-.64.84,1.94,2.13,3.67,3.81,5.01-3.05-.31-5.71-1.97-7.36-4.37ZM18.49,26.59c1.67-1.34,2.97-3.07,3.81-5.01,1.2.15,2.38.37,3.55.64-1.65,2.4-4.3,4.07-7.35,4.37Z"/>
  <path d="M21.37,3.02l.21-.19c.25.1.82.34,1.43.59l-1.21,1.9.12.05c.14.06.3.03.4-.07l1.58-1.52c.57.24,1.06.44,1.19.49.39.16,1.16.33,1.25.11.09-.22-.59-.65-.96-.8-.13-.05-.62-.25-1.19-.49l-.06-2.19c0-.14-.1-.27-.24-.33l-.12-.05-.48,2.2c-.61-.25-1.18-.49-1.43-.59l-.02-.28c0-.09-.06-.17-.15-.2l-.32-.13-.16.76-.42.65.32.13c.08.03.18.02.25-.04Z"/>
</svg>