<?xml version="1.0" encoding="UTF-8"?>
<svg id="Layer_1" data-name="Layer 1" xmlns="http://www.w3.org/2000/svg" viewBox="0 0 32 32">
  <defs>
    <style>
      .cls-1 {
        fill: none;
      }

      .cls-2 {
        fill: #0328d1;
      }
    </style>
  </defs>
  <path class="cls-1" d="M12.37,29.44v-12.85l-7.5,1.65v11.2h1.87v-2.64c0-.91.74-1.65,1.65-1.65s1.65.74,1.65,1.65v2.64h2.32ZM8.89,24.07h-1v-1.96h1v1.96ZM8.89,21.18h-1v-1.96h1v1.96Z"/>
  <path class="cls-1" d="M18.63,21.97c-2.17-2.49-1.91-6.27.58-8.44,1.41-1.23,3.23-1.68,4.94-1.39v-1.61l-10.79-2.38v21.29h1.33v-2.64c0-.91.74-1.65,1.65-1.65s1.65.74,1.65,1.65v2.64h1.42v-2.64c0-.91.74-1.65,1.65-1.65s1.65.74,1.65,1.65v2.64h1.42v-5.51c-1.99.34-4.1-.33-5.52-1.96ZM16.85,24.07h-1v-1.96h1v1.96ZM16.85,21.18h-1v-1.96h1v1.96ZM16.85,16.31v1.95h0s-1,.01-1,.01h0v-1.96h0s1-.01,1-.01h0ZM16.85,15.37h-1v-1.96h1v1.96Z"/>
  <path class="cls-1" d="M8.39,26.15c-.36,0-.65.29-.65.65v2.64h1.31v-2.64c0-.36-.29-.65-.65-.65Z"/>
  <path class="cls-1" d="M21.08,26.15c-.36,0-.65.29-.65.65v2.64h1.31v-2.64c0-.36-.29-.65-.65-.65Z"/>
  <path class="cls-1" d="M16.35,26.15c-.36,0-.65.29-.65.65v2.64h1.31v-2.64c0-.36-.29-.65-.65-.65Z"/>
  <path d="M30.31,29.44h-5.15v-5.62s-.01-.1-.03-.14c-.32.11-.64.19-.97.25v5.51h-1.42v-2.64c0-.91-.74-1.65-1.65-1.65s-1.65.74-1.65,1.65v2.64h-1.42v-2.64c0-.91-.74-1.65-1.65-1.65s-1.65.74-1.65,1.65v2.64h-1.33V8.15l10.79,2.38v1.61c.34.06.67.15,1,.26v-2.68l-12.79-2.82v8.66l-8.5,1.87v12h-1.37c-.28,0-.5.22-.5.5s.22.5.5.5h27.81c.28,0,.5-.22.5-.5s-.22-.5-.5-.5ZM7.74,29.44v-2.64c0-.36.29-.65.65-.65s.65.29.65.65v2.64h-1.31ZM8.39,25.15c-.91,0-1.65.74-1.65,1.65v2.64h-1.87v-11.2l7.5-1.65v12.85h-2.32v-2.64c0-.91-.74-1.65-1.65-1.65ZM15.7,29.44v-2.64c0-.36.29-.65.65-.65s.65.29.65.65v2.64h-1.31ZM20.43,29.44v-2.64c0-.36.29-.65.65-.65s.65.29.65.65v2.64h-1.31Z"/>
  <path class="cls-2" d="M8.97,12.27c-.13,0-.26.02-.38.04-.12-1.06-1.02-1.88-2.11-1.88-.95,0-1.76.63-2.03,1.5-.07,0-.14-.01-.21-.01-1,0-1.82.78-1.89,1.76h8.3c-.15-.8-.85-1.41-1.69-1.41Z"/>
  <path class="cls-2" d="M9.69,5.27c-.06,0-.12,0-.18.02-.06-.51-.49-.91-1.01-.91-.46,0-.85.3-.98.72-.03,0-.07,0-.1,0-.48,0-.88.37-.91.85h3.99c-.07-.38-.41-.68-.81-.68Z"/>
  <rect x="7.89" y="22.11" width="1" height="1.96"/>
  <rect x="7.89" y="19.21" width="1" height="1.96"/>
  <rect x="15.85" y="22.11" width="1" height="1.96"/>
  <rect x="15.85" y="19.21" width="1" height="1.96"/>
  <polygon points="15.85 16.31 15.85 18.26 15.85 18.27 16.85 18.27 16.85 18.26 16.85 16.31 16.85 16.3 15.85 16.3 15.85 16.31"/>
  <rect x="15.85" y="13.4" width="1" height="1.96"/>
  <path class="cls-2" d="M28.48,18.36c.1-1.42-.36-2.8-1.3-3.88-1.93-2.22-5.31-2.45-7.54-.52-1.08.94-1.72,2.24-1.82,3.66-.1,1.42.36,2.8,1.3,3.88s2.24,1.72,3.66,1.82c.12,0,.25.01.37.01,1.17,0,2.29-.4,3.22-1.11l.46.52.08.09-.31.27,2.32,2.67c.3.34.82.38,1.17.08l.11-.09c.34-.3.38-.82.08-1.17l-2.32-2.67-.29.26-.1-.11-.46-.53c.79-.88,1.28-1.98,1.36-3.18ZM22.85,22.32c-1.16-.08-2.21-.6-2.98-1.48-1.57-1.8-1.38-4.55.42-6.12.8-.69,1.8-1.07,2.85-1.07.1,0,.2,0,.3.01,1.16.08,2.21.6,2.98,1.48.76.87,1.14,1.99,1.06,3.15s-.6,2.21-1.48,2.97c-.87.76-2,1.13-3.15,1.06Z"/>
  <path d="M24.03,17.62h-1.28c-.35,0-.64-.29-.64-.64s.29-.64.64-.64h1.92c.24,0,.43-.19.43-.43s-.19-.43-.43-.43h-.85v-.43c0-.24-.19-.43-.43-.43s-.43.19-.43.43v.43h-.21c-.82,0-1.49.67-1.49,1.49s.67,1.49,1.49,1.49h1.28c.35,0,.64.29.64.64s-.29.64-.64.64h-1.92c-.24,0-.43.19-.43.43s.19.43.43.43h.85v.43c0,.24.19.43.43.43s.43-.19.43-.43v-.43h.21c.82,0,1.49-.67,1.49-1.49s-.67-1.49-1.49-1.49Z"/>
</svg>