<?xml version="1.0" encoding="UTF-8"?>
<svg id="Layer_1" data-name="Layer 1" xmlns="http://www.w3.org/2000/svg" viewBox="0 0 32 32">
  <defs>
    <style>
      .cls-1 {
        fill: #0328d1;
      }
    </style>
  </defs>
  <path d="M7.58,12.48c.28,0,.5-.22.5-.5s-.22-.5-.5-.5c-1.22,0-2.22,1-2.22,2.22s1,2.22,2.22,2.22c0,0,.02,0,.03,0,.41.46.99.73,1.62.73.28,0,.5-.22.5-.5s-.22-.5-.5-.5c-.39,0-.75-.2-.97-.53-.11-.16-.31-.25-.5-.22-.7.11-1.39-.47-1.39-1.2,0-.67.55-1.22,1.22-1.22Z"/>
  <path d="M29.55,13.2c.06-.25.09-.5.09-.75,0-1.38-.78-2.64-2-3.22-.18-1.47-1.26-2.67-2.69-3-.53-1.31-1.78-2.17-3.2-2.18-.29,0-.62.04-.93.12-.52-.35-1.17-.79-2.44-.9-1.01-.09-1.88,0-2.59.27-.66-.71-1.59-1.13-2.56-1.13s-1.94.44-2.6,1.19c-1.56-.35-3.23.49-3.91,1.97-1.45.2-2.63,1.3-2.94,2.75-1.29.55-2.13,1.82-2.13,3.25,0,.32.04.64.13.95-.33.59-.5,1.26-.5,1.94,0,2.37,2.03,4.3,4.4,4.02.64.79,1.59,1.26,2.61,1.29.13.6.43,1.12.84,1.54.39.45.93.76,1.55.86.21.04.42.07.64.07h.07c.25,1.74,1.65,3.05,3.83,3.55,2.88.66,3.55,2.29,3.88,3.08l.17.41c.08.19.27.31.46.31.06,0,.13-.01.19-.04.25-.11.37-.4.27-.65l-.17-.41c-.33-.79-1.19-2.9-4.58-3.67-1.73-.4-2.81-1.34-3.04-2.61h2.77c.28,0,.5-.22.5-.5s-.22-.5-.5-.5h-4.11c-.07,0-.14-.01-.2-.02-.37-.08-.7-.27-.97-.52-.24-.28-.39-.63-.39-1.02,0-.42.16-.81.46-1.11.2-.2.2-.51,0-.71s-.51-.2-.71,0c-.26.26-.46.58-.58.92-.9.1-1.82-.31-2.34-1.09l-.19-.28-.33.07c-.18.04-.35.05-.52.05-1.66,0-3-1.37-3-3.05,0-.57.16-1.12.46-1.61l.13-.2-.08-.23c-.1-.28-.15-.56-.15-.85,0-.88.45-1.67,1.15-2.13.15.73.59,1.38,1.25,1.78.08.05.17.07.26.07.17,0,.33-.09.43-.24.14-.24.07-.54-.17-.69-.62-.38-.95-1.11-.8-1.83,0,0,0-.02,0-.02.25-1.11,1.18-1.93,2.32-1.98h.34s.11-.33.11-.33c.4-1.13,1.57-1.82,2.7-1.65-.53.38-.92.94-1.07,1.59-.06.27.11.54.38.6.04,0,.07.01.11.01.23,0,.44-.16.49-.39.15-.68.72-1.21,1.42-1.29.43-.06.86.06,1.21.31.22.16.54.12.7-.11.16-.22.12-.54-.11-.7-.52-.38-1.15-.55-1.79-.5.45-.42,1.04-.66,1.66-.66.8,0,1.53.38,2.01,1.03l.25.35.38-.2c.75-.39,1.72-.4,2.41-.33,1.02.09,1.5.42,1.98.74l.41.27.23-.08c.26-.09.56-.14.83-.14,1.08,0,2.03.72,2.36,1.77l.09.3.31.04c1.21.17,2.11,1.19,2.16,2.42v.34s.33.12.33.12c.99.37,1.65,1.33,1.65,2.41,0,.26-.05.52-.13.78l-.12.35.29.22c.65.48,1.03,1.25,1.02,2.05,0,.93-.51,1.77-1.3,2.21l-.11.08c-.07-.2-.16-.4-.29-.58-.49-.72-1.3-1.15-2.17-1.15-.28,0-.5.22-.5.5s.22.5.5.5c.54,0,1.04.27,1.34.71.18.27.28.58.28.9,0,.89-.73,1.62-1.62,1.62-.28,0-.5.22-.5.5s.22.5.5.5c.14,0,.27-.02.4-.04l-.02.19c-.09,1.1-.72,2.02-1.61,2.53,0-1.78-1.12-2.71-1.17-2.75-.21-.17-.53-.13-.7.08-.17.21-.14.53.07.7.04.03.94.81.77,2.35-.15.03-.31.04-.47.04h-1.17c.26-2-.93-3.11-.98-3.16-.21-.18-.52-.16-.7.04-.18.2-.17.52.03.71.04.04.9.87.65,2.41-1.04-.06-1.88-.92-1.88-1.98,0-.28-.22-.5-.5-.5s-.5.22-.5.5c0,1.65,1.34,2.99,2.99,2.99h1.47l.05,2.89.03.51c.01.28.25.48.53.47.28-.01.49-.25.47-.53l-.03-.48s-.04-1.96-.05-2.88c1.88-.22,3.37-1.65,3.66-3.54,1.11-.56,1.89-1.91,1.89-3.34h0c1.01-.65,1.63-1.76,1.64-2.98,0-1-.42-1.97-1.15-2.64Z"/>
  <path class="cls-1" d="M17.87,13.59l.43,1.06c.1.26.4.38.65.28.26-.1.38-.39.28-.65l-.55-1.38s0,0,0,0l-.9-2.24c-.13-.32-.44-.53-.79-.53h0c-.35,0-.66.21-.79.53l-.9,2.24s0,0,0,0l-.55,1.38c-.1.26.02.55.28.65.06.02.12.04.19.04.2,0,.39-.12.46-.31l.43-1.06h1.78ZM17.46,12.59h-.98l.49-1.21.49,1.21Z"/>
  <path class="cls-1" d="M20.26,14.96c.28,0,.5-.22.5-.5v-3.84c0-.28-.22-.5-.5-.5s-.5.22-.5.5v3.84c0,.28.22.5.5.5Z"/>
  <path class="cls-1" d="M17.73,19.11c.28,0,.5-.22.5-.5v-1.16h.64v1.16c0,.28.22.5.5.5s.5-.22.5-.5v-1.16h1.09c1.2,0,2.18-.98,2.18-2.18v-.58h1.43c.28,0,.5-.22.5-.5s-.22-.5-.5-.5h-1.43v-.64h1.43c.28,0,.5-.22.5-.5s-.22-.5-.5-.5h-1.43v-.64h1.43c.28,0,.5-.22.5-.5s-.22-.5-.5-.5h-1.43v-.58c0-1.2-.98-2.18-2.18-2.18h-1.09v-1.16c0-.28-.22-.5-.5-.5s-.5.22-.5.5v1.16h-.64v-1.16c0-.28-.22-.5-.5-.5s-.5.22-.5.5v1.16h-.64v-1.16c0-.28-.22-.5-.5-.5s-.5.22-.5.5v1.16h-1.09c-1.2,0-2.18.98-2.18,2.18v.58h-1.43c-.28,0-.5.22-.5.5s.22.5.5.5h1.43v.64h-1.43c-.28,0-.5.22-.5.5s.22.5.5.5h1.43v.64h-1.43c-.28,0-.5.22-.5.5s.22.5.5.5h1.43v.58c0,1.2.98,2.18,2.18,2.18h1.09v1.16c0,.28.22.5.5.5s.5-.22.5-.5v-1.16h.64v1.16c0,.28.22.5.5.5ZM16.09,16.45s0,0,0,0,0,0,0,0h-1.58c-.65,0-1.18-.53-1.18-1.18v-5.45c0-.65.53-1.18,1.18-1.18h1.58s0,0,0,0,0,0,0,0h1.62s0,0,0,0,0,0,0,0h1.62s0,0,0,0,0,0,0,0h1.58c.65,0,1.18.53,1.18,1.18v5.45c0,.65-.53,1.18-1.18,1.18h-1.58s0,0,0,0,0,0,0,0h-1.63s0,0,0,0,0,0,0,0h-1.62Z"/>
</svg>