<?xml version="1.0" encoding="UTF-8"?>
<svg id="Layer_1" data-name="Layer 1" xmlns="http://www.w3.org/2000/svg" viewBox="0 0 32 32">
  <defs>
    <style>
      .cls-1 {
        fill: #0328d1;
      }
    </style>
  </defs>
  <path d="M30.64,12.67c0-6.39-5.2-11.59-11.59-11.59-1.79,0-3.49.42-5.01,1.15.22.26.4.54.55.84,1.36-.63,2.86-1,4.46-1,5.84,0,10.59,4.75,10.59,10.59l.03,5.54h-3.17v6.89h-7.11v4.39h1v-3.39h7.11v-6.89h3.17l-.04-6.54Z"/>
  <rect x="7.46" y="14.49" width="1" height="15"/>
  <path class="cls-1" d="M8.85,7.56s0,0,0,0l-.86-2.13c-.13-.32-.43-.52-.77-.52s-.64.2-.77.52l-.86,2.13s0,0,0,0l-.53,1.31c-.1.26.02.55.28.65.25.1.55-.02.65-.28l.4-.99h1.66l.4.99c.08.2.27.31.46.31.06,0,.13-.01.19-.04.26-.1.38-.39.28-.65l-.53-1.31ZM6.79,7.25l.43-1.07.43,1.07h-.86Z"/>
  <path class="cls-1" d="M10.34,4.9c-.28,0-.5.22-.5.5v3.65c0,.28.22.5.5.5s.5-.22.5-.5v-3.65c0-.28-.22-.5-.5-.5Z"/>
  <path class="cls-1" d="M12.99,4.38c0-.95-.77-1.72-1.72-1.72h-1.27v-1.21c0-.28-.22-.5-.5-.5s-.5.22-.5.5v1.21h-.57v-1.21c0-.28-.22-.5-.5-.5s-.5.22-.5.5v1.21h-.57v-1.21c0-.28-.22-.5-.5-.5s-.5.22-.5.5v1.21h-1.27c-.95,0-1.72.77-1.72,1.72v.78h-1.47c-.28,0-.5.22-.5.5s.22.5.5.5h1.47v.57h-1.47c-.28,0-.5.22-.5.5s.22.5.5.5h1.47v.56h-1.47c-.28,0-.5.22-.5.5s.22.5.5.5h1.47v.78c0,.95.77,1.72,1.72,1.72h1.27v1.21c0,.28.22.5.5.5s.5-.22.5-.5v-1.21h.57v1.21c0,.28.22.5.5.5s.5-.22.5-.5v-1.21h.57v1.21c0,.28.22.5.5.5s.5-.22.5-.5v-1.21h1.27c.95,0,1.72-.77,1.72-1.72v-.78h1.47c.28,0,.5-.22.5-.5s-.22-.5-.5-.5h-1.47v-.57h1.47c.28,0,.5-.22.5-.5s-.22-.5-.5-.5h-1.47v-.57h1.47c.28,0,.5-.22.5-.5s-.22-.5-.5-.5h-1.47v-.78ZM12.24,10.08c0,.53-.43.97-.97.97h-6.67c-.53,0-.97-.43-.97-.97v-5.7c0-.53.43-.97.97-.97h6.67c.53,0,.97.43.97.97v5.7Z"/>
</svg>