<svg xmlns="http://www.w3.org/2000/svg" width="143.413" height="126.159" viewBox="0 0 143.413 126.159">
  <g id="Group_1954" data-name="Group 1954" transform="translate(-2267.487 -452.751)">
    <g id="love_heart_like_favorite" transform="translate(2255.994 437.231)">
      <g id="Group_1953" data-name="Group 1953" transform="translate(13.744 17.77)">
        <path id="Path_1912" data-name="Path 1912" d="M32.342,24.882a18.819,18.819,0,0,0-6.471,4.234c-7.615,7.62-7.4,20.242.5,28.14" transform="translate(-4.462 -7.703)" fill="none" stroke="#05051e" stroke-linecap="round" stroke-linejoin="round" stroke-miterlimit="10" stroke-width="4.5"/>
        <g id="Group_1672" data-name="Group 1672">
          <path id="Path_1913" data-name="Path 1913" d="M141.969,78.552c14.05-14.05,14.277-36.818.5-50.6s-36.548-13.55-50.6.5l-8.7,8.652-8.647-8.652c-14.05-14.05-36.818-14.277-50.593-.5s-13.55,36.548.5,50.6l58.761,58.684Z" transform="translate(-13.744 -17.769)" fill="none" stroke="#05051e" stroke-linecap="round" stroke-linejoin="round" stroke-miterlimit="10" stroke-width="4.5"/>
        </g>
      </g>
    </g>
    <circle id="Ellipse_633" data-name="Ellipse 633" cx="5.5" cy="5.5" r="5.5" transform="translate(2334.3 567.91)" fill="#05051e"/>
    <circle id="Ellipse_634" data-name="Ellipse 634" cx="5.5" cy="5.5" r="5.5" transform="translate(2287.2 499.91)" fill="#05051e"/>
    <circle id="Ellipse_635" data-name="Ellipse 635" cx="5.5" cy="5.5" r="5.5" transform="translate(2398.2 465.908)" fill="#05051e"/>
  </g>
</svg>
