<svg xmlns="http://www.w3.org/2000/svg" width="101.288" height="143.699" viewBox="0 0 101.288 143.699">
  <g id="Group_2026" data-name="Group 2026" transform="translate(-2452.2 -114.395)">
    <g id="chess_strategy_business" transform="translate(2434.455 106.178)">
      <g id="Group_1943" data-name="Group 1943">
        <g id="Group_1530" data-name="Group 1530" transform="translate(20.545 10.822)">
          <line id="Line_258" data-name="Line 258" x1="7.53" y1="3.57" transform="translate(4.532 33.775)" fill="none" stroke="#05051e" stroke-linecap="round" stroke-miterlimit="10" stroke-width="4.5"/>
          <line id="Line_259" data-name="Line 259" x1="6.687" y1="4.975" transform="translate(11.64 20.529)" fill="none" stroke="#05051e" stroke-linecap="round" stroke-miterlimit="10" stroke-width="4.5"/>
          <line id="Line_260" data-name="Line 260" x1="8.479" y1="2.533" transform="translate(0 47.588)" fill="none" stroke="#05051e" stroke-linecap="round" stroke-miterlimit="10" stroke-width="4.5"/>
          <path id="Path_1699" data-name="Path 1699" d="M42.64,80.265c-1.1-4.456-3.39-9.544-8.091-12.529C22.17,59.887,20.658,50.271,22.67,33.564" transform="translate(-18.894 16.275)" fill="none" stroke="#05051e" stroke-miterlimit="10" stroke-width="4.5"/>
          <path id="Path_1700" data-name="Path 1700" d="M27.627,33.138a21.835,21.835,0,0,1,15.525-9.345s3.982-10.87,18.239-12.97L61.424,24.2l12.61,2.178,2.891,5.137S99.1,47.944,103.934,54.388c0,0,4.022,15.3-7.649,13.283,0,0-35.622-11.881-35.118-1.008,0,0,31.108,19.282,29.9,49.465" transform="translate(-12.106 -10.823)" fill="none" stroke="#05051e" stroke-linecap="round" stroke-miterlimit="10" stroke-width="4.5"/>
          <g id="Group_1529" data-name="Group 1529" transform="translate(52.57 105.6)">
            <g id="Group_1528" data-name="Group 1528">
              <path id="Path_1701" data-name="Path 1701" d="M79.845,73.108V62.5a3.819,3.819,0,0,0-3.682-3.5H44.532" transform="translate(-44.532 -59.007)" fill="none" stroke="#05051e" stroke-linecap="round" stroke-miterlimit="10" stroke-width="4.5"/>
            </g>
          </g>
        </g>
        <g id="Group_1531" data-name="Group 1531" transform="translate(29.255 116.422)">
          <path id="Path_1702" data-name="Path 1702" d="M64.582,74.024h43.784a3.823,3.823,0,0,1,3.682,3.5v14.73H24.519V77.522a3.821,3.821,0,0,1,3.682-3.5h4.675V62.5a3.818,3.818,0,0,1,3.682-3.5H49.9" transform="translate(-24.519 -59.007)" fill="none" stroke="#05051e" stroke-linecap="round" stroke-linejoin="round" stroke-miterlimit="10" stroke-width="4.5"/>
        </g>
      </g>
    </g>
    <circle id="Ellipse_605" data-name="Ellipse 605" cx="5" cy="5" r="5" transform="translate(2499.5 125.5)" fill="#05051e"/>
    <circle id="Ellipse_606" data-name="Ellipse 606" cx="5" cy="5" r="5" transform="translate(2472.7 205.501)" fill="#05051e"/>
    <circle id="Ellipse_607" data-name="Ellipse 607" cx="5" cy="5" r="5" transform="translate(2504.334 217.5)" fill="#05051e"/>
  </g>
</svg>
