<svg xmlns="http://www.w3.org/2000/svg" width="143.379" height="143.348" viewBox="0 0 143.379 143.348">
  <g id="Group_1956" data-name="Group 1956" transform="translate(-1774.17 -607.042)">
    <g id="compass_navigation_direction_camping" transform="translate(1776.42 609.292)">
      <path id="Path_1857" data-name="Path 1857" d="M152.453,83A69.439,69.439,0,1,1,83,13.581,69.431,69.431,0,0,1,152.453,83Z" transform="translate(-13.574 -13.581)" fill="none" stroke="#05051e" stroke-linejoin="round" stroke-miterlimit="10" stroke-width="4.5"/>
      <g id="Group_1628" data-name="Group 1628" transform="translate(34.187 34.177)">
        <path id="Path_1858" data-name="Path 1858" d="M62.1,62.8,27.815,82.856,54.049,38.851l7.61,7.612" transform="translate(-27.815 -12.365)" fill="none" stroke="#05051e" stroke-linejoin="round" stroke-width="4.5"/>
        <path id="Path_1859" data-name="Path 1859" d="M45.562,48.393,79.689,27.818,53.2,72.08,41.121,60" transform="translate(-9.179 -27.818)" fill="none" stroke="#05051e" stroke-linejoin="round" stroke-width="4.5"/>
      </g>
    </g>
    <circle id="Ellipse_639" data-name="Ellipse 639" cx="5" cy="5" r="5" transform="translate(1842.149 659.079)" fill="#05051e"/>
    <circle id="Ellipse_640" data-name="Ellipse 640" cx="5" cy="5" r="5" transform="translate(1839.149 688.9)" fill="#05051e"/>
    <circle id="Ellipse_641" data-name="Ellipse 641" cx="5" cy="5" r="5" transform="translate(1805.65 709.376)" fill="#05051e"/>
  </g>
</svg>
