<svg xmlns="http://www.w3.org/2000/svg" width="137.634" height="143.531" viewBox="0 0 137.634 143.531">
  <g id="Group_1946" data-name="Group 1946" transform="translate(-2105.866 -278.842)">
    <g id="Group_1947" data-name="Group 1947" transform="translate(2108.203 281.092)">
      <g id="brain_neuron_intelligence_mind" transform="translate(0 0)">
        <path id="Path_2030" data-name="Path 2030" d="M44.786,49.107A18.535,18.535,0,1,1,63.321,30.572" transform="translate(3.163 -12.037)" fill="none" stroke="#05051e" stroke-linecap="round" stroke-miterlimit="10" stroke-width="4.5"/>
        <path id="Path_2031" data-name="Path 2031" d="M63,78.684A18.241,18.241,0,1,1,31.314,65.9L41.678,54.619" transform="translate(3.512 42.52)" fill="none" stroke="#05051e" stroke-linecap="round" stroke-miterlimit="10" stroke-width="4.5"/>
        <path id="Path_2032" data-name="Path 2032" d="M72.632,118.923l1.421,1.533a18.242,18.242,0,0,1-22.844,27.959,18.043,18.043,0,0,1-8.68-15.172V30.572a18.422,18.422,0,0,1,18.4-18.535,19.445,19.445,0,0,1,12.052,4.546" transform="translate(24.018 -12.037)" fill="none" stroke="#05051e" stroke-linecap="round" stroke-miterlimit="10" stroke-width="4.5"/>
        <path id="Path_2033" data-name="Path 2033" d="M31.892,20.955c-4.98,2.642-9.49,8.575-6.168,21.859,0,0-26.234,22.812-2.281,46.195,0,0-6.844,30.8,19.39,32.507" transform="translate(-13.357 -0.611)" fill="none" stroke="#05051e" stroke-linecap="round" stroke-linejoin="round" stroke-miterlimit="10" stroke-width="4.5"/>
        <g id="Group_1773" data-name="Group 1773" transform="translate(21.427 6.481)">
          <path id="Path_2034" data-name="Path 2034" d="M47.253,14.878A9.7,9.7,0,1,1,35.267,30.121" transform="translate(-6.713 -14.878)" fill="none" stroke="#05051e" stroke-linecap="round" stroke-miterlimit="10" stroke-width="4.5"/>
          <path id="Path_2035" data-name="Path 2035" d="M33.263,46.656a9.7,9.7,0,1,1,4.629-18.831" transform="translate(-18.743 1.352)" fill="none" stroke="#05051e" stroke-linecap="round" stroke-miterlimit="10" stroke-width="4.5"/>
          <path id="Path_2036" data-name="Path 2036" d="M64.734,39.816a9.989,9.989,0,0,0-14.162.668S35.694,64.018,24.667,64.018" transform="translate(-20.294 13.71)" fill="none" stroke="#05051e" stroke-linecap="round" stroke-miterlimit="10" stroke-width="4.5"/>
          <path id="Path_2037" data-name="Path 2037" d="M36.745,64.141a7.009,7.009,0,0,1,13.174,3.632" transform="translate(-4.819 43.519)" fill="none" stroke="#05051e" stroke-linecap="round" stroke-miterlimit="10" stroke-width="4.5"/>
          <line id="Line_511" data-name="Line 511" x2="10.295" y2="3.62" transform="translate(6.559 94.176)" fill="none" stroke="#05051e" stroke-linecap="round" stroke-miterlimit="10" stroke-width="4.5"/>
          <path id="Path_2038" data-name="Path 2038" d="M22.75,40.536s9.7,4.562,16.539,11.976" transform="translate(-22.75 17.995)" fill="none" stroke="#05051e" stroke-linecap="round" stroke-miterlimit="10" stroke-width="4.5"/>
        </g>
        <g id="Group_1774" data-name="Group 1774" transform="translate(66.536 14.025)">
          <path id="Path_2039" data-name="Path 2039" d="M48.781,24.434a16.3,16.3,0,0,1,18.82,9.4" transform="translate(-34.508 -10.774)" fill="none" stroke="#05051e" stroke-linecap="round" stroke-miterlimit="10" stroke-width="4.5"/>
          <path id="Path_2040" data-name="Path 2040" d="M67.625,53.6A16.353,16.353,0,0,1,60.8,67.563a17.078,17.078,0,0,1-11.4,3.508" transform="translate(-33.711 27.194)" fill="none" stroke="#05051e" stroke-linecap="round" stroke-miterlimit="10" stroke-width="4.5"/>
          <path id="Path_2041" data-name="Path 2041" d="M58.5,55.141c-1.836-3.4-8.2-4.681-11.593-2.847-2.432,1.309-4.485,3.878-4.378,6.479" transform="translate(-42.524 24.444)" fill="none" stroke="#05051e" stroke-linecap="round" stroke-miterlimit="10" stroke-width="4.5"/>
          <path id="Path_2042" data-name="Path 2042" d="M75.83,30.536s26.234,22.812,2.281,46.195c0,0,6.844,30.8-19.39,32.507" transform="translate(-21.773 -2.361)" fill="none" stroke="#05051e" stroke-linecap="round" stroke-linejoin="round" stroke-miterlimit="10" stroke-width="4.5"/>
          <path id="Path_2043" data-name="Path 2043" d="M42.888,49.8s18.537,4.991,26.353-9.164" transform="translate(-42.058 10.581)" fill="none" stroke="#05051e" stroke-linecap="round" stroke-miterlimit="10" stroke-width="4.5"/>
          <path id="Path_2044" data-name="Path 2044" d="M52.5,43.942s12.275,9.905,22.246-1.031" transform="translate(-29.738 13.494)" fill="none" stroke="#05051e" stroke-linecap="round" stroke-miterlimit="10" stroke-width="4.5"/>
          <path id="Path_2045" data-name="Path 2045" d="M51.842,31.074A17.966,17.966,0,1,1,84.2,45.849" transform="translate(-30.586 -18.185)" fill="none" stroke="#05051e" stroke-linecap="round" stroke-miterlimit="10" stroke-width="4.5"/>
          <path id="Path_2046" data-name="Path 2046" d="M42.669,30.561s10.085,8.5,16.546,8.5" transform="translate(-42.339 -2.329)" fill="none" stroke="#05051e" stroke-linecap="round" stroke-miterlimit="10" stroke-width="4.5"/>
        </g>
        <path id="Path_2047" data-name="Path 2047" d="M69.529,32.975a57.781,57.781,0,0,0-5.89-4.343" transform="translate(51.065 9.225)" fill="none" stroke="#05051e" stroke-linecap="round" stroke-linejoin="round" stroke-miterlimit="10" stroke-width="4.5"/>
      </g>
      <circle id="Ellipse_614" data-name="Ellipse 614" cx="5" cy="5" r="5" transform="translate(41 90.892)" fill="#05051e"/>
      <circle id="Ellipse_615" data-name="Ellipse 615" cx="5" cy="5" r="5" transform="translate(107.189 31.208)" fill="#05051e"/>
      <circle id="Ellipse_616" data-name="Ellipse 616" cx="5" cy="5" r="5" transform="translate(13.383 15.253)" fill="#05051e"/>
    </g>
  </g>
</svg>
