<svg xmlns="http://www.w3.org/2000/svg" width="144.049" height="144.049" viewBox="0 0 144.049 144.049">
  <g id="Group_1960" data-name="Group 1960" transform="translate(-2102.983 -114.751)">
    <g id="Group_1940" data-name="Group 1940" transform="translate(2105.233 117.001)">
      <g id="setting_settings_option_gear_cog" transform="translate(0 0)">
        <g id="Group_1800" data-name="Group 1800" transform="translate(0 0)">
          <g id="Group_1799" data-name="Group 1799">
            <path id="Path_2095" data-name="Path 2095" d="M39.471,111.706,28.424,127.1,42.5,141.178l15.4-11.053a52.158,52.158,0,0,0,13.76,5.714l3.185,18.735H94.754l3.19-18.73a52.445,52.445,0,0,0,13.765-5.719L127.1,141.178,141.179,127.1l-11.048-15.393a52.441,52.441,0,0,0,5.75-13.884l18.694-3.07V74.845l-18.694-3.073a52.253,52.253,0,0,0-5.684-13.78L141.179,42.5,127.1,28.425,111.61,39.412a52.309,52.309,0,0,0-13.78-5.686l-3.076-18.7H74.844l-3.073,18.7A52.431,52.431,0,0,0,58,39.414L42.5,28.425,28.424,42.5,39.41,57.992A52.342,52.342,0,0,0,33.749,71.66L15.027,74.845V94.753l18.725,3.185A52.148,52.148,0,0,0,39.471,111.706Z" transform="translate(-15.027 -15.026)" fill="none" stroke="#05051e" stroke-linecap="round" stroke-linejoin="round" stroke-miterlimit="10" stroke-width="4.5"/>
          </g>
        </g>
        <path id="Path_2096" data-name="Path 2096" d="M47.174,35.972A20.357,20.357,0,1,1,35.248,49.265" transform="translate(14.91 14.913)" fill="none" stroke="#05051e" stroke-linecap="round" stroke-linejoin="round" stroke-miterlimit="10" stroke-width="4.5"/>
      </g>
      <circle id="Ellipse_599" data-name="Ellipse 599" cx="5" cy="5" r="5" transform="translate(22.467 9.99)" fill="#05051e"/>
      <circle id="Ellipse_600" data-name="Ellipse 600" cx="5" cy="5" r="5" transform="translate(116.067 51.668)" fill="#05051e"/>
      <circle id="Ellipse_601" data-name="Ellipse 601" cx="5" cy="5" r="5" transform="translate(45.395 58.657)" fill="#05051e"/>
    </g>
  </g>
</svg>
