<?xml version="1.0" encoding="UTF-8"?>
<svg id="Layer_1" data-name="Layer 1" xmlns="http://www.w3.org/2000/svg" viewBox="0 0 32 32">
  <defs>
    <style>
      .cls-1 {
        fill: #0328d1;
      }
    </style>
  </defs>
  <path d="M15.94,5.22c-5.94,0-10.78,4.84-10.78,10.78s4.84,10.78,10.78,10.78,10.78-4.84,10.78-10.78-4.84-10.78-10.78-10.78ZM15.94,25.78c-5.39,0-9.78-4.39-9.78-9.78S10.54,6.22,15.94,6.22s9.78,4.39,9.78,9.78-4.39,9.78-9.78,9.78Z"/>
  <path d="M15.94,8.94c-3.89,0-7.06,3.17-7.06,7.06s3.17,7.06,7.06,7.06,7.06-3.17,7.06-7.06-3.17-7.06-7.06-7.06ZM15.94,22.05c-3.34,0-6.06-2.72-6.06-6.06s2.72-6.06,6.06-6.06,6.06,2.72,6.06,6.06-2.72,6.06-6.06,6.06Z"/>
  <path class="cls-1" d="M5.7,10.71v-5.72h-1v5.72c0,.38-.31.68-.68.68-.17,0-.33.07-.45.19-.12.12-.18.29-.18.46l.28,12.53c0,.17-.06.33-.18.45-.24.24-.65.24-.89,0-.12-.12-.18-.28-.18-.45l.28-12.53c0-.17-.06-.34-.18-.46-.12-.12-.28-.19-.45-.19-.38,0-.68-.31-.68-.68v-5.72H.4v5.72c0,.8.56,1.47,1.31,1.64l-.27,12.2c0,.44.16.85.46,1.17.31.31.72.49,1.16.49s.85-.17,1.16-.49c.31-.31.47-.73.46-1.17l-.27-12.2c.75-.17,1.31-.84,1.31-1.64Z"/>
  <path class="cls-1" d="M2.38,10.1c.28,0,.5-.22.5-.5v-4.62h-1v4.62c0,.28.22.5.5.5Z"/>
  <path class="cls-1" d="M3.77,10.1c.28,0,.5-.22.5-.5v-4.62h-1v4.62c0,.28.22.5.5.5Z"/>
  <path class="cls-1" d="M31.78,9.38c0-1.97-1.23-4.89-2.94-4.89s-2.93,2.92-2.93,4.89c0,1.36.59,2.43,1.59,2.95l-.28,12.22c0,.44.15.85.46,1.17.31.31.72.49,1.16.49s.85-.17,1.16-.49c.31-.31.47-.73.46-1.17l-.28-12.21c1.01-.52,1.6-1.6,1.6-2.95ZM29.52,11.54c-.15.06-.27.19-.31.35-.01.05-.02.11-.02.16l.28,12.53c0,.17-.06.33-.18.45-.24.24-.65.24-.89,0-.12-.12-.18-.28-.18-.45l.28-12.51s0-.11-.01-.15c-.03-.17-.15-.32-.32-.38-.79-.29-1.26-1.1-1.26-2.16,0-1.75,1.07-3.89,1.93-3.89s1.94,2.15,1.94,3.89c0,1.08-.46,1.86-1.27,2.16Z"/>
</svg>