<?xml version="1.0" encoding="UTF-8"?>
<svg id="Layer_1" data-name="Layer 1" xmlns="http://www.w3.org/2000/svg" viewBox="0 0 32 32">
  <defs>
    <style>
      .cls-1 {
        fill: none;
      }

      .cls-2 {
        fill: #0328d1;
      }
    </style>
  </defs>
  <path class="cls-1" d="M16.35,20.51c-.39,0-.7.31-.7.7v.74h1.4v-.74c0-.39-.31-.7-.7-.7Z"/>
  <path class="cls-1" d="M20.21,3.2c-.13.1-.21.24-.22.39-.01.16.05.31.17.43,3.57,3.43,5.48,7.61,6.31,13.76.46-.33,1.01-.52,1.6-.52.78,0,1.52.33,2.04.91.1.11.18.24.26.36-.25-6.9-4.37-11.55-8.84-15.54l-.02-.02c-.14-.14-.32-.21-.5-.21-.15,0-.3.05-.43.15l-.38.29h.01ZM29.33,15.65c.22,0,.39.15.39.32,0,.17-.19.3-.41.3s-.39-.15-.39-.32c0-.17.19-.3.41-.3ZM27.94,13.42c.22,0,.39.15.39.32,0,.17-.19.3-.41.3-.22,0-.39-.15-.39-.32,0-.17.19-.3.41-.3ZM27.54,15.47c.22,0,.39.15.39.32,0,.17-.19.3-.41.3-.22,0-.39-.15-.39-.32,0-.17.19-.3.41-.3ZM25.73,8.86c.22,0,.39.15.39.32,0,.17-.19.3-.41.3-.22,0-.39-.15-.39-.32,0-.17.19-.3.41-.3ZM24.25,7.81c.22,0,.39.15.39.32,0,.17-.19.3-.41.3-.22,0-.39-.15-.39-.32,0-.17.19-.3.41-.3ZM21.74,4.09c.22,0,.39.15.39.32,0,.17-.19.3-.41.3s-.39-.15-.39-.32c0-.17.19-.3.41-.3Z"/>
  <path class="cls-1" d="M24.17,20.51h-2.96c-.3,0-.55.25-.55.55v.71h7.28c.96,0,1.79-.69,1.87-1.57.05-.5-.11-.99-.44-1.36-.33-.37-.81-.58-1.3-.58-.68,0-1.3.4-1.59,1.01-.33.71-1.14,1.24-1.88,1.24h-.43Z"/>
  <path class="cls-1" d="M10.82,21.19c0-.38-.31-.7-.7-.7H2.38l-1.12,1.06c-.07.07-.09.16-.05.25.04.09.12.15.22.15h9.4v-.76Z"/>
  <path class="cls-1" d="M19.66,21.06c0-.85.69-1.55,1.55-1.55h3.39c.35,0,.81-.31.98-.67,0-.02.02-.04.03-.06-.74-6.49-2.53-10.57-6.14-14.05-.06-.06-.12-.13-.17-.2L3.44,19.5h6.69c.93,0,1.7.76,1.7,1.7v1.46h0v5.03c0,.76.56,1.41,1.27,1.48.39.03.79-.09,1.09-.36.29-.27.46-.65.46-1.05v-5.8h0v-.74c0-.94.76-1.7,1.7-1.7s1.7.76,1.7,1.7v3.73c0,.45.35.85.76.87.23.01.44-.07.6-.22.16-.15.25-.36.25-.58h0v-3.94ZM15.14,16.81c-.91.7-2.37.7-3.28,0-.91-.7-.91-1.82,0-2.52.91-.7,2.37-.7,3.28,0,.91.7.91,1.82,0,2.52ZM18.38,12.52c-.91-.7-.91-1.82,0-2.52.91-.7,2.37-.7,3.28,0,.91.7.91,1.82,0,2.52-.91.7-2.37.7-3.28,0ZM19.51,16.27c-.38-.3-.38-.77,0-1.07.38-.3,1.01-.3,1.39,0,.38.3.38.77,0,1.07-.38.3-1.01.3-1.39,0Z"/>
  <path d="M21.72,4.7c.22,0,.4-.13.41-.3,0-.17-.17-.31-.39-.32-.22,0-.4.13-.41.3,0,.17.17.31.39.32Z"/>
  <path d="M24.23,8.42c.22,0,.4-.13.41-.3,0-.17-.17-.31-.39-.32s-.4.13-.41.3c0,.17.17.31.39.32Z"/>
  <path d="M25.71,9.48c.22,0,.4-.13.41-.3,0-.17-.17-.31-.39-.32s-.4.13-.41.3c0,.17.17.31.39.32Z"/>
  <path d="M27.52,16.08c.22,0,.4-.13.41-.3,0-.17-.17-.31-.39-.32-.22,0-.4.13-.41.3,0,.17.17.31.39.32Z"/>
  <path d="M27.92,14.03c.22,0,.4-.13.41-.3,0-.17-.17-.31-.39-.32-.22,0-.4.13-.41.3,0,.17.17.31.39.32Z"/>
  <path d="M29.31,16.26c.22,0,.4-.13.41-.3,0-.17-.17-.31-.39-.32-.22,0-.4.13-.41.3,0,.17.17.31.39.32Z"/>
  <path class="cls-2" d="M15.14,14.29c-.91-.7-2.37-.7-3.28,0-.91.7-.91,1.82,0,2.52.91.7,2.37.7,3.28,0,.91-.7.91-1.82,0-2.52ZM12.37,16.38c-.22,0-.39-.15-.39-.32,0-.17.19-.3.41-.3.22,0,.39.15.39.32,0,.17-.19.3-.41.3ZM13.49,15.2c-.22,0-.39-.15-.39-.32,0-.17.19-.3.41-.3.22,0,.39.15.39.32,0,.17-.19.3-.41.3ZM14.4,16.6c-.22,0-.39-.15-.39-.32,0-.17.19-.3.41-.3.22,0,.39.15.39.32,0,.17-.19.3-.41.3Z"/>
  <path class="cls-2" d="M21.66,12.52c.91-.7.91-1.82,0-2.52-.91-.7-2.37-.7-3.28,0-.91.7-.91,1.82,0,2.52.91.7,2.37.7,3.28,0ZM20.8,11.54c.22,0,.39.15.39.32,0,.17-.19.3-.41.3s-.39-.15-.39-.32c0-.17.19-.3.41-.3ZM19.61,11.15c-.22,0-.39-.15-.39-.32,0-.17.19-.3.41-.3s.39.15.39.32c0,.17-.19.3-.41.3Z"/>
  <path class="cls-2" d="M20.9,16.27c.38-.3.38-.77,0-1.07-.38-.3-1.01-.3-1.39,0-.38.3-.38.77,0,1.07.38.3,1.01.3,1.39,0Z"/>
  <path d="M22.21,2.24c-.6-.6-1.57-.66-2.24-.14l-.38.3c-.34.26-.57.64-.64,1.11L.57,20.83c-.37.35-.48.88-.29,1.35s.64.77,1.15.77h9.4v4.72c0,1.27.96,2.36,2.18,2.48.08,0,.16.01.24.01.6,0,1.18-.22,1.62-.63.5-.46.79-1.11.79-1.79v-4.32h0v-.48h1.4v1.98c0,.98.77,1.82,1.71,1.87.51.03.98-.15,1.34-.49.36-.34.56-.81.56-1.31h0v-2.05h7.68c1.62,0,2.99-1.28,3.04-2.85,0-.05.02-.5.02-.73.08-7.76-4.37-12.82-9.19-17.13ZM21.01,2.75c.18,0,.36.07.5.21l.02.02c4.47,3.99,8.6,8.64,8.84,15.54-.08-.12-.16-.25-.26-.36-.52-.58-1.27-.91-2.04-.91-.58,0-1.14.19-1.6.52-.83-6.15-2.74-10.32-6.31-13.76-.12-.12-.19-.27-.17-.43.01-.15.09-.29.22-.39h-.01s.38-.31.38-.31c.13-.1.28-.15.43-.15ZM26.48,19.27c.29-.61.91-1.01,1.59-1.01.49,0,.97.21,1.3.58.34.37.49.85.44,1.36-.09.88-.91,1.57-1.87,1.57h-7.28v-.71c0-.3.25-.55.55-.55h3.39c.74,0,1.55-.53,1.88-1.24ZM1.42,21.95c-.1,0-.18-.05-.22-.15-.04-.09-.02-.18.05-.25l1.12-1.06h7.75c.38,0,.7.31.7.7v.76H1.42ZM15.65,21.95v-.74c0-.39.31-.7.7-.7s.7.31.7.7v.74h-1.4ZM19.66,25c0,.22-.09.43-.25.58-.16.15-.37.23-.6.22-.41-.02-.76-.42-.76-.87v-3.73c0-.94-.76-1.7-1.7-1.7s-1.7.76-1.7,1.7v.74h0v5.8c0,.4-.17.78-.46,1.05-.3.27-.7.4-1.09.36-.71-.07-1.27-.72-1.27-1.48v-5.03h0v-1.46c0-.94-.76-1.7-1.7-1.7H3.44l15.86-14.95c.05.07.1.14.17.2,3.61,3.47,5.4,7.55,6.14,14.05,0,.02-.02.04-.03.06-.17.35-.62.67-.98.67h-3.39c-.85,0-1.55.69-1.55,1.55v3.94h0Z"/>
</svg>