<?xml version="1.0" encoding="UTF-8"?>
<svg id="Layer_1" xmlns="http://www.w3.org/2000/svg" version="1.1" viewBox="0 0 32 32">
  <!-- Generator: Adobe Illustrator 30.0.0, SVG Export Plug-In . SVG Version: 2.1.1 Build 123)  -->
  <defs>
    <style>
      .st0 {
        fill: none;
      }

      .st1 {
        fill: #fff;
      }

      .st2 {
        fill: #538fe4;
      }
    </style>
  </defs>
  <polygon class="st0" points="5.7 26.3 25.9 26.3 25.9 12.6 15.8 22.7 7.8 14.7 11.7 10.8 15.8 15 23.7 7.1 5.7 7.1 5.7 26.3"/>
  <polygon class="st1" points="25.9 26.3 5.7 26.3 5.7 7.1 23.7 7.1 24.7 6.1 4.7 6.1 4.7 27.3 26.9 27.3 26.9 11.6 25.9 12.6 25.9 26.3"/>
  <polygon class="st2" points="27.1 3.7 24.7 6.1 23.7 7.1 15.8 15 11.7 10.8 7.8 14.7 15.8 22.7 25.9 12.6 26.9 11.6 31 7.5 27.1 3.7"/>
</svg>