<?xml version="1.0" encoding="UTF-8"?>
<svg id="Layer_1" xmlns="http://www.w3.org/2000/svg" version="1.1" viewBox="0 0 32 32">
  <defs>
    <style>
      .st0 {
        fill: none;
      }
      .st1 {
        fill: #fff;
      }
      .st2 {
        fill: #538fe4;
      }
    </style>
  </defs>
  <!-- Figma-inspired design tool icon -->
  <rect class="st0" width="32" height="32"/>
  <!-- Top-left rounded rectangle -->
  <path class="st2" d="M10,5h4v6h-4c-1.7,0-3-1.3-3-3s1.3-3,3-3Z"/>
  <!-- Top-right rounded rectangle -->
  <path class="st1" d="M18,5h4c1.7,0,3,1.3,3,3s-1.3,3-3,3h-4v-6Z"/>
  <!-- Middle-left rounded rectangle -->
  <path class="st1" d="M10,13h4v6h-4c-1.7,0-3-1.3-3-3s1.3-3,3-3Z"/>
  <!-- Middle-right circle -->
  <circle class="st2" cx="19" cy="16" r="3"/>
  <!-- Bottom-left rounded rectangle -->
  <path class="st2" d="M10,21h4v3c0,1.7-1.3,3-3,3s-3-1.3-3-3,1.3-3,3-3Z"/>
</svg>
