<?xml version="1.0" encoding="UTF-8"?>
<svg id="Layer_1" xmlns="http://www.w3.org/2000/svg" version="1.1" viewBox="0 0 32 32">
  <!-- Generator: Adobe Illustrator 30.0.0, SVG Export Plug-In . SVG Version: 2.1.1 Build 123)  -->
  <defs>
    <style>
      .st0 {
        fill: none;
      }

      .st1 {
        fill: #fff;
      }

      .st2 {
        fill: #538fe4;
      }
    </style>
  </defs>
  <path class="st0" d="M19,1.9c.1,0,.3.2.4.3-.1,0-.2-.2-.4-.3Z"/>
  <path class="st2" d="M16.7,1.2c-.2,0-.3,0-.5,0,.3,0,.5,0,.8,0,0,0-.2,0-.2,0Z"/>
  <path class="st2" d="M17.4,1.3c.2,0,.3,0,.5.1-.2,0-.3,0-.5-.1Z"/>
  <path class="st2" d="M14.6,1.7c0,0,.1,0,.2-.1,0,0-.1,0-.2.1Z"/>
  <polygon class="st2" points="14.9 11.4 16.3 11.7 14.9 11.4 14.9 11.4"/>
  <path class="st2" d="M18.2,1.5c.1,0,.3.1.4.2-.1,0-.3-.1-.4-.2Z"/>
  <path class="st0" d="M12.3,5.6c0,0,0,.2,0,.2h0c0,0,0-.2,0-.2Z"/>
  <path class="st0" d="M14.1,2.1c-.9.7-1.6,1.7-1.7,2.9,0,.2,0,.4,0,.6,0-.2,0-.4,0-.6.2-1.2.8-2.2,1.7-2.9Z"/>
  <path class="st2" d="M18.5,10.8v1.4h0v-1.4c0-.6.3-1.3.8-1.7-.5.4-.8,1-.8,1.7Z"/>
  <path class="st0" d="M19.7,2.4c.1.1.2.2.3.4-.1-.1-.2-.2-.3-.4Z"/>
  <path class="st0" d="M21,4.7c0,.3,0,.6.1.9,0-.3,0-.6-.1-.9Z"/>
  <path class="st0" d="M20.3,3.1c.1.1.2.3.3.5,0-.2-.2-.3-.3-.5Z"/>
  <path class="st0" d="M20.7,3.8c0,.2.1.4.2.6,0-.2-.1-.4-.2-.6Z"/>
  <path class="st1" d="M26.3,14.4c0-3.4-1.7-6.3-4.3-8,0,.4-.1.7-.2,1.1,2.2,1.6,3.6,4.1,3.6,7v4.5s-2.6,0-2.6,0v5.7h-5.9v3.7h1v-2.7h5.9v-5.7h2.6v-5.5s0,0,0,0Z"/>
  <path class="st1" d="M7,14.4v13.9h1v-13.9c0-2.9,1.4-5.4,3.6-7-.1-.3-.2-.7-.3-1-2.6,1.7-4.3,4.7-4.3,8.1h0Z"/>
  <path d="M12.3,5.8c0,.3,0,.6.1.9,0-.3-.1-.6-.1-.9h0Z"/>
  <path class="st2" d="M21.1,5.6h0c0-.3,0-.6-.1-.9,0,0,0-.2,0-.3,0-.2-.1-.4-.2-.5,0-.1-.1-.2-.2-.3,0-.2-.2-.3-.3-.5,0,0-.2-.2-.2-.3-.1-.1-.2-.2-.3-.4,0,0-.2-.2-.3-.2-.1,0-.2-.2-.4-.3-.1,0-.2-.1-.4-.2-.1,0-.3-.1-.4-.2-.1,0-.3,0-.4-.1-.2,0-.3,0-.5-.1-.1,0-.3,0-.4,0-.2,0-.5,0-.8,0h0c-.5,0-.9.2-1.4.4,0,0-.1,0-.2.1-.2.1-.4.2-.5.3-.9.7-1.6,1.7-1.7,2.9,0,.2,0,.4,0,.6h0c0,.1,0,.2,0,.3,0,.3,0,.6.1.9.3.9.8,1.7,1.6,2.3.5.4.8,1.1.8,1.8v.5l1.4.3,2.2.5v-1.4c0-.6.3-1.3.8-1.7,1.1-.8,1.8-2.1,1.8-3.5h0Z"/>
  <polygon class="st2" points="14.8 12.4 14.8 13.2 18.6 14.1 18.6 13.1 18.5 13.1 14.8 12.2 14.8 12.4"/>
  <path class="st2" d="M16.7,15c-.4,0-.8-.3-.8-.8l-1-.2h0c0,1.2.8,2,1.9,2s1.4-.5,1.7-1.1l-1-.2c-.2.2-.4.4-.7.4Z"/>
</svg>