<?xml version="1.0" encoding="UTF-8"?>
<svg id="Layer_1" xmlns="http://www.w3.org/2000/svg" version="1.1" viewBox="0 0 32 32">
  <!-- Generator: Adobe Illustrator 30.0.0, SVG Export Plug-In . SVG Version: 2.1.1 Build 123)  -->
  <defs>
    <style>
      .st0 {
        fill: none;
      }

      .st1 {
        fill: #fff;
      }

      .st2 {
        fill: #538fe4;
      }
    </style>
  </defs>
  <g>
    <path class="st0" d="M29.1,27.8s0,0,0,0c0,0,0-.1,0-.2v-13.8l-12.1,7,12.1,7h0Z"/>
    <path class="st0" d="M16,20.3l12.8-7.4L16.4,3.9c-.1,0-.2-.1-.4-.1s-.2,0-.4.1L3.2,12.8l12.9,7.4Z"/>
    <path class="st0" d="M2.8,13.8v13.9c0,.3.3.6.6.6h24.5L2.8,13.8Z"/>
    <path class="st1" d="M30.1,13c0,0,0-.1,0-.2,0,0,0,0,0,0-.1-.2-.3-.5-.5-.6L16.9,3.1c-.6-.4-1.3-.4-1.9,0L2.5,12.1c-.4.3-.7.8-.7,1.3v14.3c0,.9.7,1.6,1.6,1.6h25.2c.9,0,1.6-.7,1.6-1.6v-14.3c0-.1,0-.3,0-.4h0ZM29.2,27.6c0,0,0,.1,0,.2,0,0,0,0,0,0l-12.1-6.9,12.1-7v13.8h0ZM15.6,3.9c.1,0,.2-.1.4-.1s.2,0,.4.1l12.5,9-12.8,7.4L3.2,12.8,15.6,3.9ZM2.8,27.6v-13.9l25.1,14.4H3.4c-.3,0-.6-.3-.6-.6Z"/>
  </g>
  <path class="st2" d="M15.6,3.9c.1,0,.2-.1.4-.1s.2,0,.4.1l12.5,9-12.8,7.4L3.2,12.8,15.6,3.9Z"/>
</svg>