<?xml version="1.0" encoding="UTF-8"?>
<svg id="Layer_1" xmlns="http://www.w3.org/2000/svg" version="1.1" viewBox="0 0 32 32">
  <defs>
    <style>
      .st0 {
        fill: none;
      }
      .st1 {
        fill: #fff;
      }
      .st2 {
        fill: #538fe4;
      }
    </style>
  </defs>
  <!-- Monitor -->
  <path class="st1" d="M22.5,4H9.5C8.1,4,7,5.1,7,6.5v11C7,18.9,8.1,20,9.5,20h13c1.4,0,2.5-1.1,2.5-2.5v-11C25,5.1,23.9,4,22.5,4ZM24,17.5c0,.8-.7,1.5-1.5,1.5h-13c-.8,0-1.5-.7-1.5-1.5v-11c0-.8.7-1.5,1.5-1.5h13c.8,0,1.5.7,1.5,1.5v11Z"/>
  <path class="st1" d="M18.5,21h-5c-.3,0-.5.2-.5.5v2c0,.3-.2.5-.5.5h-1c-.3,0-.5.2-.5.5s.2.5.5.5h8c.3,0,.5-.2.5-.5s-.2-.5-.5-.5h-1c-.3,0-.5-.2-.5-.5v-2c0-.3-.2-.5-.5-.5Z"/>
  <!-- Phone overlay -->
  <path class="st2" d="M28,14h-6c-.6,0-1,.4-1,1v12c0,.6.4,1,1,1h6c.6,0,1-.4,1-1v-12c0-.6-.4-1-1-1ZM28,26.5c0,.3-.2.5-.5.5h-5c-.3,0-.5-.2-.5-.5v-11c0-.3.2-.5.5-.5h5c.3,0,.5.2.5.5v11Z"/>
  <circle class="st2" cx="25" cy="27.2" r=".4"/>
  <!-- Check marks on screens -->
  <path class="st2" d="M13,10l-2,2-1-1c-.2-.2-.5-.2-.7,0s-.2.5,0,.7l1.4,1.4c.1.1.2.1.4.1s.3,0,.4-.1l2.3-2.3c.2-.2.2-.5,0-.7s-.5-.2-.7,0Z"/>
  <path class="st1" d="M26.3,18.5l-1.5,1.5-.7-.7c-.2-.2-.5-.2-.7,0s-.2.5,0,.7l1,1c.1.1.2.2.4.2s.3,0,.4-.2l1.8-1.8c.2-.2.2-.5,0-.7s-.5-.2-.7,0Z"/>
</svg>
