<?xml version="1.0" encoding="UTF-8"?>
<svg id="Layer_1" data-name="Layer 1" xmlns="http://www.w3.org/2000/svg" viewBox="0 0 32 32">
  <defs>
    <style>
      .cls-1 {
        fill: none;
      }

      .cls-2 {
        fill: #0328d1;
      }
    </style>
  </defs>
  <path class="cls-1" d="M26.33,21.52c.51-.09.87-.55.84-1.07,0-.16-.02-.31-.03-.47l-.24-3.29c-.04-.53-.47-.94-1-.95l-1.51-.04.19,2.58.26,3.5,1.48-.26Z"/>
  <path class="cls-1" d="M15.93,2.54c-3.39,0-6.45,1.31-8.71,3.46l1.65,1.24c.59.44,1.39.43,1.94-.03,1.46-1.21,3.32-1.88,5.22-1.88s3.62.61,5.08,1.76c.62.49,1.48.47,2.06-.05l1.29-1.17c-2.25-2.07-5.25-3.33-8.54-3.33Z"/>
  <path class="cls-1" d="M5.4,21.52l1.48.26.45-6.08-1.51.04c-.53.02-.96.42-1,.95l-.28,3.74c-.04.53.32.99.85,1.09Z"/>
  <path d="M29.53,16.91v-1.91c0-.15,0-.3-.01-.45-.31-7.29-6.28-13.01-13.59-13.01S2.52,7.36,2.33,14.79v2.12c0,.84.58,1.54,1.36,1.73l-.13,1.72c-.08,1.04.64,1.96,1.67,2.15l1.59.28.6-8.09-1.61.05c-1.04.03-1.89.84-1.96,1.88l-.07.98c-.26-.13-.44-.39-.44-.69v-2.09c.08-3.13,1.28-5.94,3.2-8.09l1.75,1.31c.47.35,1.01.52,1.56.52.58,0,1.15-.19,1.62-.58,1.29-1.06,2.91-1.65,4.58-1.65s3.18.53,4.46,1.55c1,.79,2.41.75,3.35-.1l1.33-1.2c1.96,2.12,3.21,4.9,3.34,8.01,0,.14,0,.27,0,.41v1.91c0,.35-.24.64-.56.74l-.08-1.03c-.08-1.04-.92-1.85-1.96-1.88l-1.61-.05.27,3.59-.19-2.58,1.51.04c.53.02.96.42,1,.95l.24,3.29c.01.16.03.31.03.47.03.52-.33.98-.84,1.07l-1.48.26.07,1,1.59-.28c.18-.03.34-.09.49-.16-.47,2.37-1.89,4.42-3.98,5.7-.43.27-.89.49-1.35.67-.33-.53-.97-.81-1.61-.66-.92.22-1.86.28-2.81.18-.81-.08-1.56.52-1.64,1.35-.08.82.52,1.56,1.35,1.64.38.04.77.06,1.15.06.89,0,1.77-.1,2.64-.31.63-.15,1.07-.68,1.14-1.29.57-.21,1.12-.46,1.65-.79,2.62-1.6,4.29-4.27,4.59-7.32.04-.39.05-.77.04-1.16,0-.02,0-.04,0-.06l-.04-.57c0-.11,0-.23-.02-.34,0,0,0,0,0-.01l-.06-.77c.84-.14,1.49-.87,1.49-1.76ZM4.83,16.69c.04-.53.47-.94,1-.95l1.51-.04-.45,6.08-1.48-.26c-.52-.09-.88-.56-.85-1.09l.28-3.74ZM23.18,7.04c-.58.52-1.44.54-2.06.05-1.46-1.15-3.22-1.76-5.08-1.76s-3.76.67-5.22,1.88c-.56.46-1.35.47-1.94.03l-1.65-1.24c2.26-2.15,5.31-3.46,8.71-3.46s6.3,1.26,8.54,3.33l-1.29,1.17Z"/>
  <path class="cls-2" d="M24.59,18.28l-.27-3.59-.04-.48c-.02-.3-.16-.57-.39-.76s-.52-.29-.81-.27c-1.18.09-2.07,1.12-1.99,2.3l.51,6.95c.08,1.13,1.03,1.99,2.14,1.99.05,0,.11,0,.16,0,.61-.05,1.08-.58,1.03-1.2l-.03-.44-.07-1-.26-3.5Z"/>
  <path class="cls-2" d="M6.78,23.23c-.02.3.07.59.27.81s.47.36.76.39c.05,0,.11,0,.16,0,.51,0,1.01-.18,1.4-.52.44-.38.7-.9.74-1.47l.51-6.95c.09-1.18-.8-2.22-1.99-2.3-.3-.02-.59.07-.81.27s-.36.47-.38.76l-.04.48-.6,8.09-.03.44Z"/>
</svg>