<?xml version="1.0" encoding="UTF-8"?>
<svg id="Layer_1" data-name="Layer 1" xmlns="http://www.w3.org/2000/svg" viewBox="0 0 32 32">
  <defs>
    <style>
      .cls-1 {
        fill: none;
      }

      .cls-2 {
        fill: #0328d1;
      }
    </style>
  </defs>
  <path class="cls-1" d="M10.19,21.72c-.79-1.12-1.25-2.48-1.25-3.95,0-3.8,3.09-6.89,6.89-6.89s6.89,3.09,6.89,6.89c0,1.47-.47,2.83-1.25,3.95h8.36v-9.87c0-1.48-1.21-2.69-2.69-2.69h-4.21l-1.03-3.28c-.15-.48-.59-.81-1.1-.81h-9.41c-.45,0-.86.27-1.05.68l-1.53,3.4h-4.29c-1.48,0-2.69,1.21-2.69,2.69v9.87h8.36ZM27.52,11.4v4.94l-1.23-1.23-3.71-3.71h4.94ZM13.05,6.62h5.56v2.04h-5.56v-2.04Z"/>
  <path class="cls-1" d="M15.83,23.66c3.25,0,5.89-2.64,5.89-5.89s-2.64-5.89-5.89-5.89-5.89,2.64-5.89,5.89c0,1.52.58,2.91,1.53,3.95h.02v.02c1.08,1.17,2.62,1.91,4.33,1.91ZM10.79,17.77c0-2.78,2.25-5.03,5.03-5.03s5.03,2.25,5.03,5.03-2.25,5.04-5.03,5.04-5.03-2.25-5.03-5.04Z"/>
  <path class="cls-1" d="M20.61,22.72c-1.24,1.2-2.92,1.94-4.78,1.94s-3.54-.74-4.78-1.94H1.83v1.81c0,.63.52,1.15,1.15,1.15h25.69c.63,0,1.15-.52,1.15-1.15v-1.81h-9.21Z"/>
  <polygon class="cls-2" points="27.52 16.35 27.52 11.4 22.58 11.4 26.29 15.12 27.52 16.35"/>
  <path d="M27.78,8.23v-.82c0-.32-.26-.58-.58-.58h-1.74c-.32,0-.58.26-.58.58v.75h-1.22l-.81-2.58c-.28-.9-1.11-1.51-2.05-1.51h-9.41c-.85,0-1.62.5-1.96,1.27l-1.26,2.81h-3.65c-2.03,0-3.69,1.65-3.69,3.69v12.68c0,1.19.96,2.15,2.15,2.15h25.69c1.19,0,2.15-.96,2.15-2.15v-12.68c0-1.81-1.31-3.31-3.04-3.62ZM4.52,9.17h4.29l1.53-3.4c.18-.41.6-.68,1.05-.68h9.41c.51,0,.95.32,1.1.81l1.03,3.28h4.21c1.48,0,2.69,1.21,2.69,2.69v9.87h-8.36c.79-1.12,1.25-2.48,1.25-3.95,0-3.8-3.09-6.89-6.89-6.89s-6.89,3.09-6.89,6.89c0,1.47.47,2.83,1.25,3.95H1.83v-9.87c0-1.48,1.21-2.69,2.69-2.69ZM11.47,21.72c-.95-1.05-1.53-2.43-1.53-3.95,0-3.25,2.64-5.89,5.89-5.89s5.89,2.64,5.89,5.89-2.64,5.89-5.89,5.89c-1.71,0-3.26-.74-4.33-1.91v-.02h-.02ZM28.67,25.68H2.98c-.63,0-1.15-.52-1.15-1.15v-1.81h9.21c1.24,1.2,2.92,1.94,4.78,1.94s3.54-.74,4.78-1.94h9.21v1.81c0,.63-.52,1.15-1.15,1.15Z"/>
  <path d="M15.83,22.81c2.78,0,5.03-2.25,5.03-5.04s-2.25-5.03-5.03-5.03-5.03,2.25-5.03,5.03,2.25,5.04,5.03,5.04Z"/>
  <rect x="13.05" y="6.62" width="5.56" height="2.04"/>
</svg>