<?xml version="1.0" encoding="UTF-8"?>
<svg id="Layer_1" data-name="Layer 1" xmlns="http://www.w3.org/2000/svg" viewBox="0 0 32 32">
  <defs>
    <style>
      .cls-1 {
        fill: none;
      }

      .cls-2 {
        fill: #0328d1;
      }
    </style>
  </defs>
  <path class="cls-1" d="M19.37,11.82c-1.08-1.08-2.49-1.61-3.9-1.61s-2.83.54-3.91,1.61l-6.88,6.88c-1.04,1.04-1.62,2.43-1.62,3.91s.57,2.86,1.62,3.9l.74.74c2.15,2.15,5.66,2.15,7.81,0l6.88-6.88c1.04-1.04,1.62-2.43,1.62-3.9s-.57-2.86-1.62-3.9l-.74-.74ZM18.52,20.04l-1.65-1.65-4.98-4.98h6.63v6.63Z"/>
  <polygon class="cls-2" points="16.87 18.39 18.52 20.04 18.52 13.41 11.89 13.41 16.87 18.39"/>
  <path d="M29.85,2.53c-.06-.27-.33-.44-.59-.38-.27.06-.44.32-.38.59.03.12.61,3.06-2.03,4.92-.61.43-1.29.57-2.08.73-1.34.27-3,.62-4.8,2.63-2.55-2.44-6.61-2.41-9.11.1l-6.88,6.88c-1.23,1.23-1.91,2.87-1.91,4.61s.68,3.38,1.91,4.61l.74.74c1.27,1.27,2.94,1.91,4.61,1.91s3.34-.64,4.61-1.91l6.88-6.88c1.23-1.23,1.91-2.87,1.91-4.61s-.68-3.38-1.91-4.61l-.14-.14c1.58-1.8,2.96-2.08,4.28-2.35.86-.17,1.68-.33,2.46-.89,3.2-2.25,2.47-5.8,2.43-5.95ZM21.73,16.47c0,1.48-.57,2.86-1.62,3.9l-6.88,6.88c-2.15,2.15-5.66,2.15-7.81,0l-.74-.74c-1.04-1.04-1.62-2.43-1.62-3.9s.57-2.86,1.62-3.91l6.88-6.88c1.08-1.08,2.49-1.61,3.91-1.61s2.83.54,3.9,1.61l.74.74c1.04,1.04,1.62,2.43,1.62,3.9Z"/>
</svg>