<?xml version="1.0" encoding="UTF-8"?>
<svg id="Layer_1" data-name="Layer 1" xmlns="http://www.w3.org/2000/svg" viewBox="0 0 32 32">
  <defs>
    <style>
      .cls-1 {
        fill: none;
      }

      .cls-2 {
        fill: #0328d1;
      }
    </style>
  </defs>
  <path class="cls-1" d="M21.14,2.7h-1.56v1.11c0,.49-.4.88-.88.88h-5.39c-.49,0-.88-.4-.88-.88v-1.11h-1.56c-1.02,0-1.85.83-1.85,1.85v22.9c0,1.02.83,1.85,1.85,1.85h10.28c1.02,0,1.85-.83,1.85-1.85V4.55c0-1.02-.83-1.85-1.85-1.85ZM20.85,16.76l-2.43-2.43-7.32-7.32h9.75v9.75Z"/>
  <path d="M21.14,1.7h-10.28c-1.57,0-2.85,1.28-2.85,2.85v22.9c0,1.57,1.28,2.85,2.85,2.85h10.28c1.57,0,2.85-1.28,2.85-2.85V4.55c0-1.57-1.28-2.85-2.85-2.85ZM18.76,3.44c0,.33-.27.6-.6.6s-.6-.27-.6-.6.27-.6.6-.6.6.27.6.6ZM16.89,3.43c0,.28-.22.5-.5.5h-2.65c-.28,0-.5-.22-.5-.5s.22-.5.5-.5h2.65c.28,0,.5.22.5.5ZM22.99,27.45c0,1.02-.83,1.85-1.85,1.85h-10.28c-1.02,0-1.85-.83-1.85-1.85V4.55c0-1.02.83-1.85,1.85-1.85h1.56v1.11c0,.49.4.88.88.88h5.39c.49,0,.88-.4.88-.88v-1.11h1.56c1.02,0,1.85.83,1.85,1.85v22.9Z"/>
  <polygon class="cls-2" points="18.42 14.33 20.85 16.76 20.85 7.01 11.1 7.01 18.42 14.33"/>
</svg>