<?xml version="1.0" encoding="UTF-8"?>
<svg id="Layer_1" data-name="Layer 1" xmlns="http://www.w3.org/2000/svg" viewBox="0 0 32 32">
  <defs>
    <style>
      .cls-1 {
        fill: none;
      }

      .cls-2 {
        fill: #0328d1;
      }
    </style>
  </defs>
  <rect class="cls-1" x="15.59" y="6.3" width="9" height="1.56"/>
  <path class="cls-1" d="M15.59,8.87v2.46c0,1.35,1.1,2.45,2.45,2.45h4.1c1.35,0,2.45-1.1,2.45-2.45v-2.46h-9Z"/>
  <path d="M19.56,14.94v10c0,2.59-2.1,4.69-4.69,4.69s-4.69-2.1-4.69-4.69v-5.49c0-3.14-2.55-5.69-5.69-5.69H1.87c-.28,0-.5.22-.5.5s.22.5.5.5h2.61c2.59,0,4.69,2.1,4.69,4.69v5.49c0,3.14,2.55,5.69,5.69,5.69s5.69-2.55,5.69-5.69v-10c0-.05-.01-.1-.03-.15h-.94s-.03.1-.03.15Z"/>
  <path class="cls-2" d="M25.09,5.3h-1.73V1.8c0-.28-.22-.5-.5-.5s-.5.22-.5.5v3.5h-4.55V1.8c0-.28-.22-.5-.5-.5s-.5.22-.5.5v3.5h-1.73c-.28,0-.5.22-.5.5v5.53c0,1.9,1.55,3.45,3.45,3.45h4.1c1.9,0,3.45-1.55,3.45-3.45v-5.53c0-.28-.22-.5-.5-.5ZM24.59,6.3v1.56h-9v-1.56h9ZM22.14,13.78h-4.1c-1.35,0-2.45-1.1-2.45-2.45v-2.46h9v2.46c0,1.35-1.1,2.45-2.45,2.45Z"/>
</svg>