<?xml version="1.0" encoding="UTF-8"?>
<svg id="Layer_1" data-name="Layer 1" xmlns="http://www.w3.org/2000/svg" viewBox="0 0 32 32">
  <defs>
    <style>
      .cls-1 {
        fill: #0328d1;
      }
    </style>
  </defs>
  <path d="M31.12,15.9l-.05-.12-1.93-1.52c-.34-.27-.76-.41-1.19-.41h-2.08l-.33-8.94c-.02-.28-.24-.49-.52-.49s-.5.21-.52.49l-.33,8.94H7.35l-.33-8.94c-.02-.28-.24-.49-.52-.49s-.5.21-.52.49l-.33,8.94h-1.27c-.62,0-1.22.21-1.7.59l-1.71,1.35-.05.12c-.13.31-.2.63-.2.96v6.16c0,1.16.94,2.1,2.1,2.1h26.4c1.16,0,2.1-.94,2.1-2.1v-6.16c0-.33-.07-.66-.2-.96ZM30.32,22.69c0,.79-.64,1.43-1.43,1.43H3.14c-.79,0-1.43-.64-1.43-1.43v-4.52c0-.61.49-1.1,1.1-1.1h26.4c.61,0,1.1.49,1.1,1.1v4.52Z"/>
  <path class="cls-1" d="M26.5,18.46c-1.03,0-1.88.79-1.98,1.8-.1-1.01-.95-1.8-1.98-1.8-1.1,0-2,.9-2,2s.9,2,2,2c1.03,0,1.88-.79,1.98-1.8.1,1.01.95,1.8,1.98,1.8,1.1,0,2-.9,2-2s-.9-2-2-2ZM22.54,21.46c-.55,0-1-.45-1-1s.45-1,1-1,1,.45,1,1-.45,1-1,1ZM26.5,21.46c-.55,0-1-.45-1-1s.45-1,1-1,1,.45,1,1-.45,1-1,1Z"/>
  <circle class="cls-1" cx="5.49" cy="20.46" r="1"/>
  <path class="cls-1" d="M8.69,19.46c-.55,0-1,.45-1,1s.45,1,1,1,1-.45,1-1-.45-1-1-1Z"/>
  <path class="cls-1" d="M12.09,19.46c-.55,0-1,.45-1,1s.45,1,1,1,1-.45,1-1-.45-1-1-1Z"/>
  <circle class="cls-1" cx="15.74" cy="11.8" r="1.04"/>
  <path class="cls-1" d="M15.74,8.64c-1.39,0-2.56.91-2.98,2.16l.91.44c.25-.92,1.08-1.6,2.07-1.6s1.84.69,2.08,1.62l.91-.44c-.41-1.26-1.59-2.18-2.98-2.18Z"/>
  <path class="cls-1" d="M15.74,8.01c1.65,0,3.03,1.06,3.55,2.53l.91-.44c-.69-1.8-2.42-3.09-4.46-3.09s-3.77,1.28-4.46,3.08l.91.44c.52-1.46,1.91-2.52,3.55-2.52Z"/>
  <path class="cls-1" d="M15.74,6.25c2.34,0,4.34,1.46,5.15,3.51l.9-.44c-.98-2.39-3.32-4.08-6.06-4.08s-5.07,1.68-6.05,4.06l.9.44c.82-2.05,2.81-3.5,5.15-3.5Z"/>
</svg>