<?xml version="1.0" encoding="UTF-8"?>
<svg id="Layer_1" data-name="Layer 1" xmlns="http://www.w3.org/2000/svg" viewBox="0 0 32 32">
  <defs>
    <style>
      .cls-1 {
        fill: none;
      }

      .cls-2 {
        fill: #0328d1;
      }
    </style>
  </defs>
  <path class="cls-1" d="M30.52,20.22V7.93c0-1.31-1.07-2.38-2.38-2.38H4.05c-1.31,0-2.38,1.07-2.38,2.38v12.29h28.84ZM28.58,7.68v9.75s-2.43-2.43-2.43-2.43l-7.32-7.32h9.75Z"/>
  <path class="cls-1" d="M1.76,21.22c.26,1.03,1.19,1.79,2.29,1.79h24.09c1.11,0,2.03-.76,2.29-1.79H1.76Z"/>
  <polygon class="cls-2" points="28.58 17.43 28.58 7.68 18.83 7.68 26.15 15.01 28.58 17.43"/>
  <path d="M31.52,7.93c0-1.86-1.52-3.38-3.38-3.38H4.05c-1.86,0-3.38,1.51-3.38,3.38v12.71s0,.04,0,.06c0,.01,0,.02,0,.03,0,.03.01.06.02.09.09,1.78,1.56,3.2,3.36,3.2h8.36c-.13,1.9-1.59,3.43-3.47,3.64-.26.03-.45.24-.45.5,0,.28.22.5.5.5h14.2c.28,0,.5-.23.5-.5,0-.26-.2-.47-.45-.5-1.88-.21-3.33-1.75-3.47-3.64h8.36c1.8,0,3.26-1.42,3.36-3.2,0-.03.02-.06.02-.09,0-.01,0-.02,0-.03,0-.02,0-.04,0-.06V7.93ZM4.05,5.55h24.09c1.31,0,2.38,1.07,2.38,2.38v12.29H1.68V7.93c0-1.31,1.07-2.38,2.38-2.38ZM28.14,23.01H4.05c-1.11,0-2.03-.76-2.29-1.79h28.68c-.26,1.03-1.19,1.79-2.29,1.79Z"/>
</svg>