<?xml version="1.0" encoding="UTF-8"?>
<svg id="Layer_1" data-name="Layer 1" xmlns="http://www.w3.org/2000/svg" viewBox="0 0 32 32">
  <defs>
    <style>
      .cls-1 {
        fill: none;
      }

      .cls-2 {
        fill: #0328d1;
      }
    </style>
  </defs>
  <path class="cls-1" d="M16,12.64c2.16,0,3.96-.53,4.52-1.25v-1.32c-.42.29-.93.5-1.47.56-.02,0-.04,0-.06,0-.25,0-.47-.19-.5-.44-.03-.27.16-.52.44-.56.72-.09,1.41-.56,1.59-1.07v-.72c-.42.29-.93.5-1.47.56-.02,0-.04,0-.06,0-.25,0-.47-.19-.5-.44-.03-.27.16-.52.44-.56.71-.09,1.39-.55,1.58-1.06,0-.23-.03-.46-.07-.69-.41.27-.89.46-1.39.52-.02,0-.04,0-.06,0-.25,0-.47-.19-.5-.44-.03-.27.16-.52.44-.56.44-.05.87-.25,1.18-.53-.68-1.46-2.14-2.47-3.85-2.47h-.53c-1.71,0-3.17,1.02-3.85,2.47.32.27.75.47,1.18.53.27.03.47.28.44.56-.03.25-.25.44-.5.44-.02,0-.04,0-.06,0-.5-.06-.98-.25-1.39-.52-.04.22-.06.45-.07.69.19.51.86.97,1.58,1.06.27.03.47.28.44.56-.03.25-.25.44-.5.44-.02,0-.04,0-.06,0-.54-.06-1.05-.27-1.47-.56v.72c.18.52.86.99,1.59,1.07.27.03.47.28.44.56-.03.25-.25.44-.5.44-.02,0-.04,0-.06,0-.54-.06-1.05-.27-1.47-.56v1.32c.57.72,2.36,1.25,4.52,1.25Z"/>
  <path class="cls-1" d="M16,27.34c3.27,0,5.35-.96,5.35-1.63,0-.44-1.1-1.19-3.42-1.5v.07c0,1.06-.87,1.93-1.93,1.93s-1.93-.87-1.93-1.93v-.07c-2.32.31-3.42,1.06-3.42,1.5,0,.66,2.08,1.63,5.35,1.63Z"/>
  <path class="cls-1" d="M15.73,20.05h.53c2.35,0,4.25-1.91,4.25-4.25v-.63c-.57.72-2.36,1.25-4.52,1.25s-3.96-.53-4.52-1.25v.63c0,2.35,1.91,4.25,4.25,4.25Z"/>
  <path class="cls-1" d="M16,28.34c-2.27,0-4.56-.47-5.67-1.38v.53c0,1.05,2.59,1.94,5.67,1.94s5.67-.89,5.67-1.94v-.53c-1.1.91-3.39,1.38-5.67,1.38Z"/>
  <path class="cls-1" d="M15.07,24.29c0,.51.42.93.93.93s.93-.42.93-.93v-1.29c-.2.02-.4.03-.61.03h-.64c-.21,0-.41-.01-.61-.03v1.29Z"/>
  <path class="cls-2" d="M16,16.42c2.16,0,3.96-.53,4.52-1.25v-3.78c-.57.72-2.36,1.25-4.52,1.25s-3.96-.53-4.52-1.25v3.78c.57.72,2.36,1.25,4.52,1.25Z"/>
  <path d="M15.73,21.05h.53c2.9,0,5.25-2.36,5.25-5.25V6.46s0-.03,0-.04c0-.01,0-.02,0-.03-.04-2.86-2.38-5.18-5.25-5.18h-.53c-2.87,0-5.21,2.32-5.25,5.18,0,.01,0,.02,0,.03,0,.01,0,.03,0,.04v9.34c0,2.9,2.36,5.25,5.25,5.25ZM11.48,15.17v-5.1c.42.29.93.5,1.47.56.02,0,.04,0,.06,0,.25,0,.47-.19.5-.44.03-.27-.16-.52-.44-.56-.72-.09-1.41-.56-1.59-1.07v-.72c.42.29.93.5,1.47.56.02,0,.04,0,.06,0,.25,0,.47-.19.5-.44.03-.27-.16-.52-.44-.56-.71-.09-1.39-.55-1.58-1.06,0-.23.03-.46.07-.69.41.27.89.46,1.39.52.02,0,.04,0,.06,0,.25,0,.47-.19.5-.44.03-.27-.16-.52-.44-.56-.44-.05-.87-.25-1.18-.53.68-1.46,2.14-2.47,3.85-2.47h.53c1.71,0,3.17,1.02,3.85,2.47-.32.27-.75.47-1.18.53-.27.03-.47.28-.44.56.03.25.25.44.5.44.02,0,.04,0,.06,0,.5-.06.98-.25,1.39-.52.04.22.06.45.07.69-.19.51-.86.97-1.58,1.06-.27.03-.47.28-.44.56.03.25.25.44.5.44.02,0,.04,0,.06,0,.54-.06,1.05-.27,1.47-.56v.72c-.18.52-.86.99-1.59,1.07-.27.03-.47.28-.44.56.03.25.25.44.5.44.02,0,.04,0,.06,0,.54-.06,1.05-.27,1.47-.56v5.73c0,2.35-1.91,4.25-4.25,4.25h-.53c-2.35,0-4.25-1.91-4.25-4.25v-.63Z"/>
  <path d="M23.65,15.7v-2.74c0-.28-.22-.5-.5-.5s-.5.22-.5.5v2.74c0,3.49-2.84,6.33-6.33,6.33h-.64c-3.49,0-6.33-2.84-6.33-6.33v-2.74c0-.28-.22-.5-.5-.5s-.5.22-.5.5v2.74c0,3.44,2.38,6.32,5.58,7.11v.16c-2.84.37-4.6,1.44-4.6,2.81v1.71c0,2.02,3.46,2.94,6.67,2.94s6.67-.92,6.67-2.94v-1.71c0-1.37-1.74-2.44-4.6-2.81v-.17c3.2-.79,5.58-3.67,5.58-7.11ZM14.07,24.22v.07c0,1.06.87,1.93,1.93,1.93s1.93-.87,1.93-1.93v-.07c2.32.31,3.42,1.06,3.42,1.5,0,.66-2.08,1.63-5.35,1.63s-5.35-.96-5.35-1.63c0-.43,1.1-1.19,3.42-1.5ZM16.32,23.03c.21,0,.41-.01.61-.03v1.29c0,.51-.42.93-.93.93s-.93-.42-.93-.93v-1.29c.2.02.4.03.61.03h.64ZM16,29.44c-3.07,0-5.67-.89-5.67-1.94v-.53c1.1.91,3.39,1.38,5.67,1.38s4.56-.47,5.67-1.38v.53c0,1.05-2.59,1.94-5.67,1.94Z"/>
</svg>