<?xml version="1.0" encoding="UTF-8"?>
<svg id="Layer_1" data-name="Layer 1" xmlns="http://www.w3.org/2000/svg" viewBox="0 0 32 32">
  <defs>
    <style>
      .cls-1 {
        fill: none;
      }

      .cls-2 {
        fill: #0328d1;
      }
    </style>
  </defs>
  <path class="cls-1" d="M9.18,17.88h13.82v-9.88h-13.82v9.88ZM22,8.83v8.23l-2.05-2.05-6.18-6.18h8.23Z"/>
  <path class="cls-1" d="M23.21,22.26h-14.24c-2.93,0-5.52-1.47-7.08-3.72,1.13,2.81,3.87,4.79,7.08,4.79h14.24c3.2,0,5.94-1.97,7.08-4.77-1.56,2.23-4.15,3.7-7.08,3.7Z"/>
  <path class="cls-1" d="M23.21,5.94h-14.24c-4.22,0-7.64,3.42-7.64,7.64v.04c0,4.22,3.42,7.64,7.64,7.64h14.24c4.22,0,7.64-3.42,7.64-7.64v-.04c0-4.22-3.42-7.64-7.64-7.64ZM26.56,10.34c.42,0,.75.34.75.75s-.34.75-.75.75-.75-.34-.75-.75.34-.75.75-.75ZM5.62,10.34c.42,0,.75.34.75.75s-.34.75-.75.75-.75-.34-.75-.75.34-.75.75-.75ZM2.98,12.56c0-.42.34-.75.75-.75s.75.34.75.75-.34.75-.75.75-.75-.34-.75-.75ZM6.63,15.8h-.52v.52c0,.28-.22.5-.5.5s-.5-.22-.5-.5v-.52h-.52c-.28,0-.5-.22-.5-.5s.22-.5.5-.5h.52v-.52c0-.28.22-.5.5-.5s.5.22.5.5v.52h.52c.28,0,.5.22.5.5s-.22.5-.5.5ZM24,18.38c0,.28-.22.5-.5.5h-14.82c-.28,0-.5-.22-.5-.5V7.5c0-.28.22-.5.5-.5h14.82c.28,0,.5.22.5.5v10.88ZM27.59,15.8h-.52v.52c0,.28-.22.5-.5.5s-.5-.22-.5-.5v-.52h-.52c-.28,0-.5-.22-.5-.5s.22-.5.5-.5h.52v-.52c0-.28.22-.5.5-.5s.5.22.5.5v.52h.52c.28,0,.5.22.5.5s-.22.5-.5.5ZM29.2,12.56c0,.42-.34.75-.75.75s-.75-.34-.75-.75.34-.75.75-.75.75.34.75.75Z"/>
  <path d="M6.63,14.8h-.52v-.52c0-.28-.22-.5-.5-.5s-.5.22-.5.5v.52h-.52c-.28,0-.5.22-.5.5s.22.5.5.5h.52v.52c0,.28.22.5.5.5s.5-.22.5-.5v-.52h.52c.28,0,.5-.22.5-.5s-.22-.5-.5-.5Z"/>
  <path d="M4.48,12.56c0-.42-.34-.75-.75-.75s-.75.34-.75.75.34.75.75.75.75-.34.75-.75Z"/>
  <circle cx="5.62" cy="11.09" r=".75"/>
  <path d="M27.59,14.8h-.52v-.52c0-.28-.22-.5-.5-.5s-.5.22-.5.5v.52h-.52c-.28,0-.5.22-.5.5s.22.5.5.5h.52v.52c0,.28.22.5.5.5s.5-.22.5-.5v-.52h.52c.28,0,.5-.22.5-.5s-.22-.5-.5-.5Z"/>
  <path d="M27.69,12.56c0,.42.34.75.75.75s.75-.34.75-.75-.34-.75-.75-.75-.75.34-.75.75Z"/>
  <path d="M26.56,11.84c.42,0,.75-.34.75-.75s-.34-.75-.75-.75-.75.34-.75.75.34.75.75.75Z"/>
  <path d="M23.5,7h-14.82c-.28,0-.5.22-.5.5v10.88c0,.28.22.5.5.5h14.82c.28,0,.5-.22.5-.5V7.5c0-.28-.22-.5-.5-.5ZM23,17.88h-13.82v-9.88h13.82v9.88Z"/>
  <polygon class="cls-2" points="22 17.06 22 8.83 13.77 8.83 19.95 15.01 22 17.06"/>
  <path d="M24.09,4.98c-.29-.03-.58-.04-.88-.04h-14.24C4.2,4.94.33,8.81.33,13.58v2.11c0,4.76,3.88,8.64,8.64,8.64h14.24c4.76,0,8.64-3.88,8.64-8.64v-2.11c0-4.47-3.41-8.15-7.76-8.59ZM23.21,23.33h-14.24c-3.21,0-5.95-1.98-7.08-4.79,1.56,2.25,4.15,3.72,7.08,3.72h14.24c2.93,0,5.51-1.47,7.08-3.7-1.13,2.8-3.87,4.77-7.08,4.77ZM30.85,13.62c0,4.22-3.42,7.64-7.64,7.64h-14.24c-4.22,0-7.64-3.42-7.64-7.64v-.04c0-4.22,3.42-7.64,7.64-7.64h14.24c4.22,0,7.64,3.42,7.64,7.64v.04Z"/>
</svg>