<?xml version="1.0" encoding="UTF-8"?>
<svg id="Layer_1" data-name="Layer 1" xmlns="http://www.w3.org/2000/svg" viewBox="0 0 32 32">
  <defs>
    <style>
      .cls-1 {
        fill: none;
      }

      .cls-2 {
        fill: #0328d1;
      }
    </style>
  </defs>
  <path class="cls-1" d="M1.91,25.05c0,.38.31.7.7.7h27.18c.38,0,.7-.31.7-.7v-.49H1.91v.49Z"/>
  <path class="cls-1" d="M27.55,7.99c0-.37-.3-.67-.67-.67H5.49c-.37,0-.67.3-.67.67v15.56h22.73V7.99ZM25.75,19.22l-2.43-2.43-7.32-7.32h9.75v9.75Z"/>
  <path d="M28.55,23.56V7.99c0-.92-.75-1.67-1.67-1.67H5.49c-.92,0-1.67.75-1.67,1.67v15.56H.91v1.49c0,.94.76,1.7,1.7,1.7h27.18c.94,0,1.7-.76,1.7-1.7v-1.49h-2.94ZM4.82,7.99c0-.37.3-.67.67-.67h21.39c.37,0,.67.3.67.67v15.56H4.82V7.99ZM30.49,25.05c0,.38-.31.7-.7.7H2.61c-.38,0-.7-.31-.7-.7v-.49h28.58v.49Z"/>
  <polygon class="cls-2" points="23.32 16.8 25.75 19.22 25.75 9.47 16 9.47 23.32 16.8"/>
</svg>