<?xml version="1.0" encoding="UTF-8"?>
<svg id="Layer_1" xmlns="http://www.w3.org/2000/svg" version="1.1" viewBox="0 0 32 32">
  <!-- Generator: Adobe Illustrator 30.0.0, SVG Export Plug-In . SVG Version: 2.1.1 Build 123)  -->
  <defs>
    <style>
      .st0 {
        fill: #fff;
      }

      .st1 {
        fill: #538fe4;
      }
    </style>
  </defs>
  <path class="st1" d="M25.9,8.9h-.6c.8-.3,1.3-1.1,1.3-1.9s-1-2.1-2.1-2.1-2.1.9-2.1,2.1.5,1.6,1.3,1.9h-.6c-1,0-1.9.7-2.1,1.7h0c.8,1.1,2.1,1.8,3.6,1.8s2.7-.7,3.6-1.8h0c-.2-1-1.1-1.7-2.1-1.7h0Z"/>
  <path class="st0" d="M24.5,2.3c-3.1,0-5.5,2.5-5.5,5.6s0,.9.2,1.3l-5,2.3c-.9-1.7-2.8-2.9-4.9-2.9-3.1,0-5.6,2.5-5.6,5.6s2.5,5.6,5.6,5.6,2.2-.3,3.1-.9l1.7,1.9c-1,1-1.6,2.4-1.6,3.9,0,3.1,2.5,5.6,5.6,5.6s5.5-2.5,5.5-5.5-1.1-3.9-2.8-4.8l2.2-6.6c.6.2,1.2.3,1.8.3,3.1,0,5.5-2.5,5.5-5.6s-2.5-5.6-5.5-5.6h0ZM4.6,14.1c0-2.5,2-4.6,4.5-4.6s4.6,2,4.6,4.6-.4,2-1,2.8c-.8,1.1-2.1,1.8-3.6,1.8s-2.7-.7-3.6-1.8c-.6-.8-1-1.7-1-2.8ZM22.4,24.6c0,1-.4,2-1,2.8-.8,1.1-2.1,1.8-3.6,1.8s-2.7-.7-3.6-1.8c-.6-.8-1-1.7-1-2.8,0-2.5,2-4.5,4.5-4.5s4.5,2,4.5,4.6ZM19.6,19.3c-.6-.2-1.2-.3-1.8-.3-1.2,0-2.2.4-3.1,1l-1.7-1.9c1.1-1,1.7-2.4,1.7-4s-.1-1.2-.3-1.7l5-2.3c.5,1.1,1.3,2,2.4,2.6l-2.1,6.6h0ZM28.1,10.6c-.8,1.1-2.1,1.8-3.6,1.8s-2.7-.7-3.6-1.8c-.6-.8-1-1.7-1-2.8,0-2.5,2-4.6,4.6-4.6s4.5,2,4.5,4.6-.4,2-1,2.8Z"/>
  <path class="st1" d="M10.6,15.2h-.6c.8-.3,1.3-1.1,1.3-1.9s-.9-2.1-2.1-2.1-2.1.9-2.1,2.1.5,1.6,1.3,1.9h-.6c-1,0-1.9.7-2.2,1.7h0c.8,1.1,2.1,1.8,3.6,1.8s2.7-.7,3.6-1.8h0c-.2-1-1.1-1.7-2.2-1.7h0Z"/>
  <path class="st1" d="M19.2,25.6h-.6c.8-.3,1.3-1.1,1.3-2s-1-2.1-2.1-2.1-2.1,1-2.1,2.1.5,1.6,1.3,2h-.6c-1,0-1.9.7-2.1,1.7h0c.8,1.1,2.1,1.8,3.6,1.8s2.7-.7,3.6-1.8h0c-.2-1-1.1-1.7-2.1-1.7h0Z"/>
</svg>