<?xml version="1.0" encoding="UTF-8"?>
<svg id="Layer_1" xmlns="http://www.w3.org/2000/svg" version="1.1" viewBox="0 0 32 32">
  <!-- Generator: Adobe Illustrator 30.0.0, SVG Export Plug-In . SVG Version: 2.1.1 Build 123)  -->
  <defs>
    <style>
      .st0 {
        fill: #fff;
      }

      .st1 {
        fill: #538fe4;
      }
    </style>
  </defs>
  <path class="st1" d="M13.1,9.5c0,.3.2.5.5.5h.8l-9.2,9.2c-.2.2-.2.5,0,.7,0,.1.2.1.3.1s.3,0,.3-.1l9.3-9.3v1.1c0,.3.2.5.5.5s.5-.2.5-.5v-2.6h-2.6c-.3,0-.5.2-.5.5h0Z"/>
  <polygon class="st1" points="13.1 20.1 15.6 20.1 15.6 12.9 13.1 15.5 13.1 20.1"/>
  <polygon class="st1" points="17 20.1 19.5 20.1 19.5 9 17 11.5 17 20.1"/>
  <polygon class="st1" points="9.1 20.1 11.6 20.1 11.6 16.8 9.1 19.4 9.1 20.1"/>
  <path class="st0" d="M3.8,24c-1,0-1.9-.7-2.2-1.7h19.3c0-.3,0-.7,0-1H1.6v-11.9c0-1.3,1-2.3,2.3-2.3h22c1.2,0,2.3,1,2.3,2.3v7.9c.4.2.7.5,1,.8v-8.7c0-1.8-1.5-3.3-3.3-3.3H3.8c-1.8,0-3.3,1.5-3.3,3.3v12.3h0c0,.1,0,.1,0,.2,0,1.7,1.5,3.1,3.3,3.1h7.5c-.1,1.8-1.5,3.3-3.3,3.5-.2,0-.4.2-.4.5s.2.5.5.5h13.7c.3,0,.5-.2.5-.5s-.2-.5-.4-.5c-1.8-.2-3.2-1.7-3.4-3.5h3.8c-.3-.3-.5-.6-.7-1H3.8Z"/>
  <path class="st1" d="M31.2,29.3l-1.9-3.7-.4.2-.2-.3c1.8-1.4,2.5-3.9,1.4-6.1-.2-.5-.6-.9-.9-1.2-.3-.3-.6-.6-1-.8-.3-.2-.6-.3-.9-.4-1.2-.4-2.6-.3-3.7.3-1.6.8-2.5,2.4-2.6,4.1,0,.3,0,.7,0,1,0,.5.2,1,.5,1.5,0,0,0,.1.1.2.2.4.5.7.7,1,.9,1,2.2,1.5,3.5,1.5s.9,0,1.3-.2l.2.3-.4.2,1.9,3.7h0c.2.5.7.7,1.2.7s.4,0,.6-.1c.3-.2.6-.4.7-.8s0-.7,0-1h0ZM27.5,25c-1.9,1-4.2.2-5.2-1.7-.5-.9-.5-2-.2-3,.3-1,1-1.8,1.9-2.2.5-.3,1.1-.4,1.8-.4s.8,0,1.2.2c1,.3,1.8,1,2.2,1.9,1,1.9.2,4.2-1.7,5.2Z"/>
</svg>