<?xml version="1.0" encoding="UTF-8"?>
<svg id="Layer_1" xmlns="http://www.w3.org/2000/svg" version="1.1" viewBox="0 0 32 32">
  <!-- Generator: Adobe Illustrator 30.0.0, SVG Export Plug-In . SVG Version: 2.1.1 Build 123)  -->
  <defs>
    <style>
      .st0 {
        fill: none;
      }

      .st1 {
        fill: #fff;
      }

      .st2 {
        fill: #538fe4;
      }
    </style>
  </defs>
  <path class="st0" d="M1.4,25.6c0,.4.3.7.7.7h27.7c.4,0,.7-.3.7-.7v-.5H1.4v.5Z"/>
  <path class="st1" d="M4.3,8.5c0-.4.3-.7.7-.7h21.8c.4,0,.7.3.7.7v15.6h1v-15.6c0-.9-.8-1.7-1.7-1.7H4.9c-.9,0-1.7.8-1.7,1.7v15.6h1v-15.6h0Z"/>
  <path class="st1" d="M.4,24.1v1.5c0,1,.8,1.7,1.7,1.7h27.7c1,0,1.7-.8,1.7-1.7v-1.5H.4ZM30.5,25.6c0,.4-.3.7-.7.7H2.1c-.4,0-.7-.3-.7-.7v-.5h29.1v.5Z"/>
  <path class="st2" d="M18.7,13.4v-2.6h-2.6c-.3,0-.5.2-.5.5s.2.5.5.5h.8l-9.2,9.2c-.2.2-.2.5,0,.7,0,.1.2.1.4.1s.3,0,.4-.1l9.3-9.3v1.1c0,.3.2.5.5.5s.5-.2.5-.5h0Z"/>
  <polygon class="st2" points="15.4 21.8 18 21.8 18 14.7 15.4 17.2 15.4 21.8"/>
  <polygon class="st2" points="21.9 21.8 21.9 10.7 19.4 13.2 19.4 21.8 21.9 21.8"/>
  <polygon class="st2" points="14.1 21.8 14.1 18.5 11.6 21.1 11.6 21.8 14.1 21.8"/>
</svg>