<svg xmlns="http://www.w3.org/2000/svg" width="0" height="0" style="position:absolute" aria-hidden="true">
  <defs>
    <symbol id="i-grid"      viewBox="0 0 24 24" fill="none" stroke="currentColor" stroke-width="1.6"><rect x="3" y="3" width="7" height="7"/><rect x="14" y="3" width="7" height="7"/><rect x="3" y="14" width="7" height="7"/><rect x="14" y="14" width="7" height="7"/></symbol>
    <symbol id="i-folder"    viewBox="0 0 24 24" fill="none" stroke="currentColor" stroke-width="1.6"><path d="M3 7a2 2 0 0 1 2-2h4l2 2h8a2 2 0 0 1 2 2v9a2 2 0 0 1-2 2H5a2 2 0 0 1-2-2z"/></symbol>
    <symbol id="i-cube"      viewBox="0 0 24 24" fill="none" stroke="currentColor" stroke-width="1.6"><path d="M3 7l9-4 9 4-9 4z"/><path d="M3 7v10l9 4V11"/><path d="M21 7v10l-9 4"/></symbol>
    <symbol id="i-check"     viewBox="0 0 24 24" fill="none" stroke="currentColor" stroke-width="1.8"><path d="M5 12l4 4L19 6"/></symbol>
    <symbol id="i-x"         viewBox="0 0 24 24" fill="none" stroke="currentColor" stroke-width="1.8"><path d="M6 6l12 12M18 6L6 18"/></symbol>
    <symbol id="i-bolt"      viewBox="0 0 24 24" fill="currentColor"><path d="M13 2 4 14h6l-1 8 9-12h-6z"/></symbol>
    <symbol id="i-eye"       viewBox="0 0 24 24" fill="none" stroke="currentColor" stroke-width="1.6"><path d="M2 12s3.5-7 10-7 10 7 10 7-3.5 7-10 7S2 12 2 12z"/><circle cx="12" cy="12" r="3"/></symbol>
    <symbol id="i-code"      viewBox="0 0 24 24" fill="none" stroke="currentColor" stroke-width="1.6"><path d="M16 18l6-6-6-6"/><path d="M8 6l-6 6 6 6"/></symbol>
    <symbol id="i-layout"    viewBox="0 0 24 24" fill="none" stroke="currentColor" stroke-width="1.6"><rect x="3" y="3" width="18" height="18"/><path d="M9 3v18M3 9h18"/></symbol>
    <symbol id="i-spark"     viewBox="0 0 24 24" fill="currentColor"><path d="M12 2l1.8 5.4L19 9l-5.2 1.6L12 16l-1.8-5.4L5 9l5.2-1.6z"/></symbol>
    <symbol id="i-cog"       viewBox="0 0 24 24" fill="none" stroke="currentColor" stroke-width="1.6"><circle cx="12" cy="12" r="3"/><path d="M19.4 15a1.6 1.6 0 0 0 .3 1.8l.1.1a2 2 0 1 1-2.8 2.8l-.1-.1a1.6 1.6 0 0 0-1.8-.3 1.6 1.6 0 0 0-1 1.5V21a2 2 0 1 1-4 0v-.1a1.6 1.6 0 0 0-1-1.5 1.6 1.6 0 0 0-1.8.3l-.1.1a2 2 0 1 1-2.8-2.8l.1-.1a1.6 1.6 0 0 0 .3-1.8 1.6 1.6 0 0 0-1.5-1H3a2 2 0 1 1 0-4h.1a1.6 1.6 0 0 0 1.5-1 1.6 1.6 0 0 0-.3-1.8l-.1-.1a2 2 0 1 1 2.8-2.8l.1.1a1.6 1.6 0 0 0 1.8.3h0a1.6 1.6 0 0 0 1-1.5V3a2 2 0 1 1 4 0v.1a1.6 1.6 0 0 0 1 1.5 1.6 1.6 0 0 0 1.8-.3l.1-.1a2 2 0 1 1 2.8 2.8l-.1.1a1.6 1.6 0 0 0-.3 1.8v0a1.6 1.6 0 0 0 1.5 1H21a2 2 0 1 1 0 4h-.1a1.6 1.6 0 0 0-1.5 1z"/></symbol>
    <symbol id="i-bell"      viewBox="0 0 24 24" fill="none" stroke="currentColor" stroke-width="1.6"><path d="M6 8a6 6 0 1 1 12 0c0 7 3 9 3 9H3s3-2 3-9z"/><path d="M10 20a2 2 0 0 0 4 0"/></symbol>
    <symbol id="i-search"    viewBox="0 0 24 24" fill="none" stroke="currentColor" stroke-width="1.8"><circle cx="11" cy="11" r="7"/><path d="M21 21l-4.3-4.3"/></symbol>
    <symbol id="i-arrow-r"   viewBox="0 0 24 24" fill="none" stroke="currentColor" stroke-width="1.8"><path d="M5 12h14M13 6l6 6-6 6"/></symbol>
    <symbol id="i-chevron-d" viewBox="0 0 24 24" fill="none" stroke="currentColor" stroke-width="1.8"><path d="M6 9l6 6 6-6"/></symbol>
    <symbol id="i-chevron-r" viewBox="0 0 24 24" fill="none" stroke="currentColor" stroke-width="1.8"><path d="M9 6l6 6-6 6"/></symbol>
    <symbol id="i-monitor"   viewBox="0 0 24 24" fill="none" stroke="currentColor" stroke-width="1.6"><rect x="2" y="4" width="20" height="13"/><path d="M8 21h8M12 17v4"/></symbol>
    <symbol id="i-mobile"    viewBox="0 0 24 24" fill="none" stroke="currentColor" stroke-width="1.6"><rect x="7" y="2" width="10" height="20"/><path d="M11 18h2"/></symbol>
    <symbol id="i-history"   viewBox="0 0 24 24" fill="none" stroke="currentColor" stroke-width="1.6"><path d="M3 12a9 9 0 1 0 3-6.7L3 8M3 3v5h5"/><path d="M12 7v5l3 2"/></symbol>
    <symbol id="i-star"      viewBox="0 0 24 24" fill="currentColor"><path d="M12 2l2.9 6.9L22 10l-5.5 5 1.6 7.5L12 18.6 5.9 22.5 7.5 15 2 10l7.1-1.1z"/></symbol>
    <symbol id="i-paint"     viewBox="0 0 24 24" fill="none" stroke="currentColor" stroke-width="1.6"><path d="M19 11h2v8H3v-8h2"/><path d="M7 7l5-5 5 5v6H7z"/></symbol>
    <symbol id="i-network"   viewBox="0 0 24 24" fill="none" stroke="currentColor" stroke-width="1.6"><circle cx="12" cy="6" r="2"/><circle cx="6" cy="18" r="2"/><circle cx="18" cy="18" r="2"/><path d="M12 8v3M12 11l-5 5M12 11l5 5"/></symbol>
    <symbol id="i-lock"      viewBox="0 0 24 24" fill="none" stroke="currentColor" stroke-width="1.6"><rect x="4" y="11" width="16" height="10"/><path d="M8 11V7a4 4 0 0 1 8 0v4"/></symbol>
    <symbol id="i-pause"     viewBox="0 0 24 24" fill="currentColor"><rect x="6" y="5" width="4" height="14"/><rect x="14" y="5" width="4" height="14"/></symbol>
    <symbol id="i-play"      viewBox="0 0 24 24" fill="currentColor"><path d="M6 4l14 8-14 8z"/></symbol>
    <symbol id="i-undo"      viewBox="0 0 24 24" fill="none" stroke="currentColor" stroke-width="1.6"><path d="M3 12a9 9 0 1 0 3-6.7L3 8"/></symbol>
    <symbol id="i-share"     viewBox="0 0 24 24" fill="none" stroke="currentColor" stroke-width="1.6"><circle cx="18" cy="5" r="3"/><circle cx="6" cy="12" r="3"/><circle cx="18" cy="19" r="3"/><path d="M8.6 13.5l6.8 4M8.6 10.5l6.8-4"/></symbol>
    <symbol id="i-rocket"    viewBox="0 0 24 24" fill="none" stroke="currentColor" stroke-width="1.6"><path d="M12 2c4 0 7 4 7 9v6l-3-2h-8l-3 2v-6c0-5 3-9 7-9z"/><circle cx="12" cy="11" r="2"/></symbol>
    <symbol id="i-database"  viewBox="0 0 24 24" fill="none" stroke="currentColor" stroke-width="1.6"><ellipse cx="12" cy="5" rx="8" ry="3"/><path d="M4 5v6c0 1.7 3.6 3 8 3s8-1.3 8-3V5M4 11v6c0 1.7 3.6 3 8 3s8-1.3 8-3v-6"/></symbol>
    <symbol id="i-stack"     viewBox="0 0 24 24" fill="none" stroke="currentColor" stroke-width="1.6"><path d="M12 2 2 7l10 5 10-5z"/><path d="M2 12l10 5 10-5M2 17l10 5 10-5"/></symbol>
    <symbol id="i-warning"   viewBox="0 0 24 24" fill="none" stroke="currentColor" stroke-width="1.8"><path d="M12 2L2 21h20L12 2z"/><path d="M12 9v6M12 18v.5"/></symbol>
    <symbol id="i-info"      viewBox="0 0 24 24" fill="none" stroke="currentColor" stroke-width="1.8"><circle cx="12" cy="12" r="10"/><path d="M12 8v.5M12 11v5"/></symbol>
    <symbol id="i-mail"      viewBox="0 0 24 24" fill="none" stroke="currentColor" stroke-width="1.6"><rect x="2" y="5" width="20" height="14"/><path d="M2 7l10 7L22 7"/></symbol>
    <symbol id="i-sparkles2" viewBox="0 0 24 24" fill="currentColor"><path d="M5 3v4M3 5h4M19 14v6M16 17h6M12 2l1.8 5.4L19 9l-5.2 1.6L12 16l-1.8-5.4L5 9l5.2-1.6z"/></symbol>
  </defs>
</svg>
