<?xml version="1.0" encoding="UTF-8"?>
<svg id="Layer_1" xmlns="http://www.w3.org/2000/svg" version="1.1" viewBox="0 0 32 32">
  <!-- Generator: Adobe Illustrator 30.0.0, SVG Export Plug-In . SVG Version: 2.1.1 Build 123)  -->
  <defs>
    <style>
      .st0 {
        fill: #030303;
      }
    </style>
  </defs>
  <path class="st0" d="M22,27c0,.6-.4,1-1,1H3c-.6,0-1-.4-1-1s.4-1,1-1h18c.6,0,1,.4,1,1ZM30.8,10.8l-2.3-3h0c-1.6-1.9-4.3-2.4-6.4-1.2l-6.4,3.8-6.7-2.5c-.2,0-.5,0-.7,0l-.9.3h0c-1,.5-1.5,1.6-1,2.6.1.3.3.5.5.7l2.7,2.6-2.5,1.5-3.5-1.2c-.3,0-.5,0-.8,0l-.4.2c-1,.5-1.5,1.6-1,2.6.1.2.3.5.4.6l4.5,4.4h0c.9.9,2.1,1.4,3.4,1.4.9,0,1.8-.2,2.5-.7l18.4-11c.5-.3.6-.9.3-1.4,0,0,0,0,0-.1h0Z"/>
</svg>